<svg xmlns="http://www.w3.org/2000/svg" width="12.543" height="13.947" viewBox="0 0 12.543 13.947">
  <path id="calendar_" data-name="calendar " d="M9.766-9v3.5h-3.5V-9ZM9.048-16.68h1.4v1.4h.686a1.355,1.355,0,0,1,1,.408,1.355,1.355,0,0,1,.408,1v9.734a1.355,1.355,0,0,1-.408,1,1.355,1.355,0,0,1-1,.408H1.4a1.355,1.355,0,0,1-1-.408,1.355,1.355,0,0,1-.408-1v-9.734a1.355,1.355,0,0,1,.408-1,1.355,1.355,0,0,1,1-.408H2.09v-1.4H3.5v1.4H9.048Zm2.09,12.543V-11.78H1.4v7.643Z" transform="translate(0 16.68)" fill="#707070"/>
</svg>
