<svg xmlns="http://www.w3.org/2000/svg" width="199.31" height="197.329" viewBox="0 0 199.31 197.329">
  <g id="Completed-pana" transform="translate(-47.882 -74.698)">
    <g id="freepik--background-complete--inject-2" transform="translate(47.882 97.756)">
      <path id="Path_44268" data-name="Path 44268" d="M352.206,193.945l-35.87-13.563a4.794,4.794,0,0,1-2.787-6.185l18.771-49.645a4.8,4.8,0,0,1,6.185-2.792l22.751,8.6L372,155.169l-13.607,36a4.8,4.8,0,0,1-6.185,2.772Z" transform="translate(-182.365 -121.449)" fill="#f5f5f5"/>
      <path id="Path_44269" data-name="Path 44269" d="M404.868,139.52l-5.287,13.972a4.463,4.463,0,0,0,2.594,5.756l13.435,5.08Z" transform="translate(-225.977 -130.608)" fill="#ebebeb"/>
      <path id="Path_44270" data-name="Path 44270" d="M398.995,170.48a5,5,0,0,0,1.973,5.918,4.082,4.082,0,0,0,.4.266c1.637.986,12.409,7.4,12.508,7.137l1.42-3.758-13.435-5.08S398.561,173.558,398.995,170.48Z" transform="translate(-225.672 -146.298)" fill="#e0e0e0"/>
      <path id="Path_44271" data-name="Path 44271" d="M377.17,157.938c-.069.182-3.837-1.08-8.419-2.811s-8.241-3.285-8.172-3.452,3.837,1.08,8.419,2.811S377.239,157.746,377.17,157.938Z" transform="translate(-206.358 -136.76)" fill="#e0e0e0"/>
      <path id="Path_44272" data-name="Path 44272" d="M381.828,178c-.069.178-6.234-1.973-13.775-4.838s-13.6-5.312-13.533-5.494,6.234,1.973,13.78,4.843S381.882,177.819,381.828,178Z" transform="translate(-203.287 -144.868)" fill="#e0e0e0"/>
      <path id="Path_44273" data-name="Path 44273" d="M379.229,192.31c-.069.178-6.786-2.195-15.008-5.307s-14.83-5.775-14.761-5.953,6.786,2.195,15.008,5.307S379.318,192.128,379.229,192.31Z" transform="translate(-200.722 -151.651)" fill="#e0e0e0"/>
      <path id="Path_44274" data-name="Path 44274" d="M374.459,204.932c-.069.178-6.786-2.195-15.008-5.307s-14.83-5.8-14.761-5.953,6.786,2.195,15.008,5.3S374.528,204.749,374.459,204.932Z" transform="translate(-198.305 -158.048)" fill="#e0e0e0"/>
      <path id="Path_44275" data-name="Path 44275" d="M369.684,217.55c-.069.178-6.791-2.195-15.008-5.307s-14.83-5.775-14.766-5.953,6.786,2.195,15.013,5.3S369.748,217.368,369.684,217.55Z" transform="translate(-195.882 -164.442)" fill="#e0e0e0"/>
      <path id="Path_44276" data-name="Path 44276" d="M364.909,230.17c-.064.178-6.786-2.2-15-5.307s-14.835-5.775-14.766-5.953,6.786,2.195,15.008,5.3S364.978,229.988,364.909,230.17Z" transform="translate(-193.465 -170.838)" fill="#e0e0e0"/>
      <rect id="Rectangle_7884" data-name="Rectangle 7884" width="56.377" height="78.058" rx="6.36" transform="matrix(0.944, -0.331, 0.331, 0.944, 0, 38.552)" fill="#ebebeb"/>
      <rect id="Rectangle_7885" data-name="Rectangle 7885" width="48.466" height="71.149" transform="matrix(0.944, -0.331, 0.331, 0.944, 5.112, 41.185)" fill="#e0e0e0"/>
      <rect id="Rectangle_7886" data-name="Rectangle 7886" width="48.466" height="69.792" transform="matrix(0.944, -0.331, 0.331, 0.944, 4.294, 40.869)" fill="#fafafa"/>
      <path id="Path_44277" data-name="Path 44277" d="M125.335,237.656l-23.126-65.847.084.039L56.559,187.872h0l.044-.089c8.621,24.739,16.645,47.589,23.052,65.871l-.074-.035,45.759-15.965L79.616,253.739h-.054v-.054C73.15,235.4,65.15,212.552,56.48,187.818v-.069h.064l45.739-16.009h.064v.059Z" transform="translate(-52.24 -146.937)" fill="#e0e0e0"/>
      <path id="Path_44278" data-name="Path 44278" d="M163.2,298.888s10.184-8.591,11.95-17.538a12.947,12.947,0,0,1-8.71,5.253S166.238,295.973,163.2,298.888Z" transform="translate(-106.326 -202.488)" fill="#e0e0e0"/>
      <rect id="Rectangle_7887" data-name="Rectangle 7887" width="5.923" height="5.923" rx="2.962" transform="matrix(0.944, -0.331, 0.331, 0.944, 15.927, 56.947)" fill="#ebebeb"/>
      <path id="Path_44279" data-name="Path 44279" d="M86.387,239.539h0a.118.118,0,0,1-.108,0l-1.1-.641a.138.138,0,0,1,.138-.237l.986.562,1.164-2.466a.148.148,0,0,1,.187-.069.138.138,0,0,1,.064.187L86.486,239.5A.128.128,0,0,1,86.387,239.539Z" transform="translate(-66.754 -179.847)" fill="#fff"/>
      <path id="Path_44280" data-name="Path 44280" d="M124.418,213.4c0,.039-5.918,2.155-13.262,4.725s-13.316,4.621-13.316,4.587,5.918-2.155,13.267-4.725S124.409,213.365,124.418,213.4Z" transform="translate(-73.201 -168.05)" fill="#e0e0e0"/>
      <path id="Path_44281" data-name="Path 44281" d="M111.971,232.62s-.153.069-.429.178l-1.194.444c-.986.365-2.407.863-3.946,1.406s-2.959,1.026-3.946,1.366l-1.208.4a3.189,3.189,0,0,1-.449.128,2.909,2.909,0,0,1,.429-.182l1.194-.439c.986-.37,2.407-.868,3.946-1.411s2.959-1.021,3.946-1.366l1.208-.4A2.7,2.7,0,0,1,111.971,232.62Z" transform="translate(-74.701 -177.791)" fill="#e0e0e0"/>
      <path id="Path_44282" data-name="Path 44282" d="M125.683,217.079c0,.035-5.918,2.15-13.267,4.72S99.1,226.426,99.1,226.386s5.918-2.15,13.272-4.72S125.683,217.04,125.683,217.079Z" transform="translate(-73.84 -169.915)" fill="#e0e0e0"/>
      <rect id="Rectangle_7888" data-name="Rectangle 7888" width="5.923" height="5.923" rx="2.962" transform="matrix(0.944, -0.331, 0.331, 0.944, 19.363, 66.76)" fill="#ebebeb"/>
      <path id="Path_44283" data-name="Path 44283" d="M93.342,259.414h0a.128.128,0,0,1-.113,0l-1.1-.641a.137.137,0,1,1,.138-.237l.986.562,1.164-2.491a.143.143,0,0,1,.182-.069.138.138,0,0,1,.069.182l-1.228,2.629A.143.143,0,0,1,93.342,259.414Z" transform="translate(-70.271 -189.908)" fill="#fff"/>
      <path id="Path_44284" data-name="Path 44284" d="M131.383,233.3c0,.039-5.918,2.15-13.267,4.725s-13.316,4.621-13.316,4.587,5.918-2.155,13.267-4.725S131.373,233.265,131.383,233.3Z" transform="translate(-76.728 -178.135)" fill="#e0e0e0"/>
      <path id="Path_44285" data-name="Path 44285" d="M118.941,252.52s-.153.069-.434.178l-1.189.444c-.986.365-2.407.863-3.946,1.406s-2.959,1.026-3.946,1.366l-1.208.4a3.179,3.179,0,0,1-.449.128,2.626,2.626,0,0,1,.429-.182l1.194-.439c.986-.37,2.407-.868,3.946-1.411s2.959-1.021,3.946-1.366l1.208-.4A2.7,2.7,0,0,1,118.941,252.52Z" transform="translate(-78.234 -187.876)" fill="#e0e0e0"/>
      <path id="Path_44286" data-name="Path 44286" d="M132.683,237c0,.035-5.918,2.15-13.267,4.72s-13.316,4.626-13.316,4.587,5.918-2.15,13.267-4.72S132.683,236.95,132.683,237Z" transform="translate(-77.387 -180.01)" fill="#e0e0e0"/>
      <rect id="Rectangle_7889" data-name="Rectangle 7889" width="5.923" height="5.923" rx="2.962" transform="matrix(0.944, -0.331, 0.331, 0.944, 22.803, 76.574)" fill="#ebebeb"/>
      <path id="Path_44287" data-name="Path 44287" d="M100.292,279.317h0a.128.128,0,0,1-.113,0l-1.1-.631a.138.138,0,1,1,.138-.237l.986.562,1.164-2.491a.138.138,0,1,1,.252.113l-1.228,2.629A.163.163,0,0,1,100.292,279.317Z" transform="translate(-73.784 -199.996)" fill="#fff"/>
      <path id="Path_44288" data-name="Path 44288" d="M138.353,253.2c0,.039-5.918,2.15-13.267,4.725s-13.316,4.621-13.316,4.582,5.918-2.15,13.272-4.72S138.339,253.165,138.353,253.2Z" transform="translate(-80.261 -188.221)" fill="#e0e0e0"/>
      <path id="Path_44289" data-name="Path 44289" d="M125.906,272.41a3.187,3.187,0,0,1-.434.182l-1.194.444c-.986.365-2.4.863-3.946,1.406s-2.959,1.021-3.946,1.366l-1.208.4a3.415,3.415,0,0,1-.449.128,2.623,2.623,0,0,1,.429-.182l1.194-.444c.986-.365,2.407-.863,3.946-1.406s2.959-1.021,3.946-1.366l1.2-.4a4.217,4.217,0,0,1,.459-.128Z" transform="translate(-81.761 -197.957)" fill="#e0e0e0"/>
      <path id="Path_44290" data-name="Path 44290" d="M139.683,256.879c0,.035-5.918,2.15-13.267,4.72s-13.316,4.626-13.316,4.587,5.918-2.15,13.267-4.725S139.649,256.84,139.683,256.879Z" transform="translate(-80.935 -190.086)" fill="#e0e0e0"/>
      <rect id="Rectangle_7890" data-name="Rectangle 7890" width="5.923" height="5.923" rx="2.962" transform="matrix(0.944, -0.331, 0.331, 0.944, 26.238, 86.387)" fill="#ebebeb"/>
      <path id="Path_44291" data-name="Path 44291" d="M107.275,299.238h0a.138.138,0,0,1-.109,0l-1.1-.641a.138.138,0,0,1,.143-.237l.986.562,1.164-2.466a.138.138,0,0,1,.182-.069.143.143,0,0,1,.069.182l-1.233,2.629A.143.143,0,0,1,107.275,299.238Z" transform="translate(-77.334 -210.102)" fill="#fff"/>
      <path id="Path_44292" data-name="Path 44292" d="M145.323,273.1c0,.039-5.918,2.15-13.267,4.72s-13.316,4.626-13.316,4.587,5.918-2.15,13.267-4.72S145.309,273.05,145.323,273.1Z" transform="translate(-83.793 -198.306)" fill="#e0e0e0"/>
      <path id="Path_44293" data-name="Path 44293" d="M132.871,292.31a2.626,2.626,0,0,1-.429.182l-1.194.444c-.986.365-2.407.863-3.946,1.406s-2.959,1.021-3.946,1.366l-1.208.4c-.286.089-.449.133-.449.128a2.626,2.626,0,0,1,.429-.182l1.194-.444c.986-.365,2.407-.863,3.946-1.406s2.959-1.021,3.946-1.366l1.208-.4a3.41,3.41,0,0,1,.449-.128Z" transform="translate(-85.293 -208.042)" fill="#e0e0e0"/>
      <path id="Path_44294" data-name="Path 44294" d="M146.613,276.779c0,.035-5.918,2.15-13.267,4.72s-13.316,4.621-13.316,4.587,5.918-2.15,13.267-4.725S146.6,276.74,146.613,276.779Z" transform="translate(-84.447 -200.171)" fill="#e0e0e0"/>
      <path id="Path_44295" data-name="Path 44295" d="M67.09,179.578l1.2,3.452a3.842,3.842,0,0,0,4.893,2.357l25.3-8.878a3.832,3.832,0,0,0,2.353-4.888l-1.2-3.452Z" transform="translate(-57.617 -145.128)" fill="#e0e0e0"/>
      <path id="Path_44296" data-name="Path 44296" d="M95.841,174.629a3.6,3.6,0,1,1,2.2-4.582,3.6,3.6,0,0,1-2.2,4.582Zm-1.923-5.489a2.219,2.219,0,1,0,2.826,1.361,2.219,2.219,0,0,0-2.826-1.361Z" transform="translate(-69.757 -144.855)" fill="#e0e0e0"/>
      <path id="Path_44297" data-name="Path 44297" d="M111.063,200c0,.064-6.648,2.466-14.9,5.351S81.2,210.527,81.18,210.463s6.648-2.466,14.9-5.351S111.038,199.914,111.063,200Z" transform="translate(-64.758 -161.257)" fill="#e0e0e0"/>
      <path id="Path_44298" data-name="Path 44298" d="M110.878,202.447c0,.064-2.91,1.154-6.555,2.431s-6.619,2.279-6.643,2.19,2.915-1.154,6.56-2.431S110.858,202.383,110.878,202.447Z" transform="translate(-73.12 -162.498)" fill="#e0e0e0"/>
    </g>
    <g id="freepik--Plants--inject-2" transform="translate(197.586 213.777)">
      <path id="Path_44299" data-name="Path 44299" d="M388.8,404.167a9.37,9.37,0,0,1,5.825-.705,4.839,4.839,0,0,1,2.875,1.282,2.069,2.069,0,0,1,.03,2.87,2.738,2.738,0,0,1-1.825.459c-1.544,0-3.25-.291-4.478.636-.705.528-1.169,1.406-2.007,1.667a1.973,1.973,0,0,1-2.185-.986,3.4,3.4,0,0,1-.247-2.5A3.817,3.817,0,0,1,388.8,404.167Z" transform="translate(-369.276 -380.303)" fill="#006ae1"/>
      <path id="Path_44300" data-name="Path 44300" d="M381.671,372.725c1.085,1.544,3.191,1.036,4.168.089A7.868,7.868,0,0,0,387.6,369.2c.858-2.984,1.726-6.111,1.09-9.149a5.1,5.1,0,0,0-1.169-2.466,2.658,2.658,0,0,0-2.515-.838,3.887,3.887,0,0,0-2.2,2.308,21.815,21.815,0,0,0-2.155,9.371,7.631,7.631,0,0,0,1.021,4.335" transform="translate(-366.234 -356.692)" fill="#006ae1"/>
      <path id="Path_44301" data-name="Path 44301" d="M363.883,380.045a5.627,5.627,0,0,0,.878-5.184,9.992,9.992,0,0,0-3.068-4.439,16.516,16.516,0,0,0-5.494-3.24,5.845,5.845,0,0,0-2.466-.419,2.584,2.584,0,0,0-2.071,1.253c-.582,1.1,0,2.441.572,3.531a41.366,41.366,0,0,0,3.61,5.494,9.744,9.744,0,0,0,3.97,3.4c1.652.631,3.359.552,4.232-.587" transform="translate(-351.421 -361.793)" fill="#006ae1"/>
      <path id="Path_44302" data-name="Path 44302" d="M382.551,421.894a3.588,3.588,0,0,0,.094-.7c.054-.493.113-1.154.187-1.919a26.856,26.856,0,0,1,.434-2.816,21.579,21.579,0,0,1,1.021-3.319,12.266,12.266,0,0,1,1.7-3,6.344,6.344,0,0,1,2.145-1.785,5.97,5.97,0,0,1,1.805-.562,3.387,3.387,0,0,0,.7-.1,3.343,3.343,0,0,0-.715,0,5.544,5.544,0,0,0-1.879.493,6.308,6.308,0,0,0-2.264,1.8,12.052,12.052,0,0,0-1.756,3.068A19.929,19.929,0,0,0,383,416.42a24.087,24.087,0,0,0-.375,2.851c-.064.814-.084,1.48-.094,1.928a2.956,2.956,0,0,0,.015.7Z" transform="translate(-367.183 -382.528)" fill="#263238"/>
      <path id="Path_44303" data-name="Path 44303" d="M382.693,400.922a1.2,1.2,0,0,0,0-.326v-.917c0-.809,0-1.973.039-3.452.074-2.9.321-6.007.8-10.4.454-4.128,1.065-8.932,1.711-12.054.138-.71.276-1.351.409-1.909s.232-1.046.335-1.435.158-.671.217-.907a2.463,2.463,0,0,0,.059-.326,1.415,1.415,0,0,0-.113.306c-.074.237-.163.533-.271.9s-.247.868-.385,1.425-.3,1.194-.454,1.9a107.212,107.212,0,0,0-1.78,11.2,110.342,110.342,0,0,0-.715,11.3c0,1.45,0,2.624.049,3.452,0,.38.039.69.054.932A1.751,1.751,0,0,0,382.693,400.922Z" transform="translate(-367.197 -363.031)" fill="#263238"/>
      <path id="Path_44304" data-name="Path 44304" d="M372.247,395.632a5.914,5.914,0,0,0,0-.986,26.382,26.382,0,0,0-.3-2.639,34.03,34.03,0,0,0-.858-3.847,31.139,31.139,0,0,0-1.608-4.552,24.3,24.3,0,0,0-4.72-7.354,12.026,12.026,0,0,0-1.115-1.031,4.547,4.547,0,0,0-.493-.4l-.429-.3A5.513,5.513,0,0,0,361.9,374a27.726,27.726,0,0,1,2.688,2.4,25.351,25.351,0,0,1,4.606,7.329,35.715,35.715,0,0,1,1.618,4.508,37.018,37.018,0,0,1,.912,3.807c.2,1.1.321,1.973.39,2.614a6.715,6.715,0,0,0,.133.977Z" transform="translate(-356.732 -365.464)" fill="#263238"/>
      <path id="Path_44305" data-name="Path 44305" d="M367.74,445.49l.774,10.6h13.627l.769-10.6Z" transform="translate(-359.691 -401.695)" fill="#263238"/>
      <rect id="Rectangle_7891" data-name="Rectangle 7891" width="18.115" height="4.182" transform="translate(6.737 39.613)" fill="#263238"/>
      <path id="Path_44306" data-name="Path 44306" d="M365.08,466.17v1.154h17.809V466.17Z" transform="translate(-358.343 -412.176)" fill="#455a64"/>
      <path id="Path_44307" data-name="Path 44307" d="M367.633,470.552l-.833-2.042h16.315l-.977,2.042Z" transform="translate(-359.215 -413.362)" fill="#455a64"/>
      <path id="Path_44308" data-name="Path 44308" d="M382.912,450.99s0,.039-.064.1l-.2.271-.794,1.016-.035.044-.034-.049-1.948-2.693h.118L378.03,452.4l-.059.084-.069-.079-2.274-2.713h.128l-.123.158L373.6,452.4l-.064.089-.064-.089c-.69-.986-1.337-1.894-1.923-2.717h.113l-2.362,2.693-.044.049-.035-.054c-.311-.523-.557-.942-.74-1.243l-.187-.33a.494.494,0,0,1-.059-.118.746.746,0,0,1,.079.1l.212.321.774,1.218h-.074l2.328-2.727.059-.069.054.074L373.6,452.3h-.133l2.047-2.55.128-.158.064-.084.064.079,2.274,2.718h-.128l1.938-2.708.054-.079.059.079c.764,1.1,1.42,2.032,1.909,2.727H381.8l.829-.986.222-.256Z" transform="translate(-359.94 -403.733)" fill="#e0e0e0"/>
      <path id="Path_44309" data-name="Path 44309" d="M383.22,445.254c0,.049-3.413.089-7.625.089s-7.625-.039-7.625-.089,3.413-.084,7.625-.084S383.22,445.209,383.22,445.254Z" transform="translate(-359.808 -401.533)" fill="#455a64"/>
      <path id="Path_44310" data-name="Path 44310" d="M383.261,468.659c0,.044-3.714.084-8.286.084s-8.286-.039-8.286-.084,3.709-.089,8.286-.089S383.261,468.609,383.261,468.659Z" transform="translate(-359.159 -413.392)" fill="#263238"/>
    </g>
    <g id="freepik--Character--inject-2" transform="translate(104.804 104.386)">
      <rect id="Rectangle_7893" data-name="Rectangle 7893" width="72.806" height="58.059" transform="translate(8.549 108.674)" fill="#e0e0e0"/>
      <g id="Group_35837" data-name="Group 35837" transform="translate(13.851 108.59)" opacity="0.3">
        <path id="Path_44371" data-name="Path 44371" d="M191.38,355.272c8.572,3.058,18.026,3.714,27.224,3.886a25.117,25.117,0,0,1,5.682.493,7.206,7.206,0,0,1,4.572,3.166,7.812,7.812,0,0,1,.335,6.042c-.587,1.988-1.6,3.827-2.328,5.766a21.528,21.528,0,0,0-1.149,10.757,10.1,10.1,0,0,0,1.519,4.34,4.976,4.976,0,0,0,3.857,2.259c2.767.039,4.661-2.678,6.032-5.085,5.627-9.864,11.713-21.059,15.314-31.826Z" transform="translate(-191.38 -355.07)"/>
      </g>
      <path id="Path_44372" data-name="Path 44372" d="M230.8,413.262c-.074,0-.128-12.867-.128-28.739s.054-28.743.128-28.743.128,12.867.128,28.743S230.867,413.262,230.8,413.262Z" transform="translate(-197.442 -246.84)" fill="#455a64"/>
      <path id="Path_44373" data-name="Path 44373" d="M234.334,227.523c-.217-1.45-4.547-6.234-4.547-6.234s-2.16-8.685-2.811-11.245a8.453,8.453,0,0,0-.942-2.1,16.892,16.892,0,0,0-6.313-6.091l-5.992-3.369L212.3,195.3l-14.391-7.4-3.9,6.9s-9.474,3.009-10.727,5.144.621,30.973.621,30.973-3.946,16.631-4.8,20.073a17.5,17.5,0,0,0,.266,7.546l7.058-8.853c2.195-2.752,7.008-4.02,10.466-3.97l29.547.133-1.189-8.276,23.905,4.626s4.108-8.019,4.439-8.177S234.334,227.523,234.334,227.523Z" transform="translate(-171.143 -161.757)" fill="#006ae1"/>
      <path id="Path_44374" data-name="Path 44374" d="M216.3,207.345a118.362,118.362,0,0,0,4.024,12.581,31.717,31.717,0,0,1,1.909,10.885v23.378l14.165-.962-2.116-15.4s-1.726-9.933-2.21-13.711c-.444-3.452-1.973-12.823-1.973-12.823S222.237,213.386,216.3,207.345Z" transform="translate(-190.153 -171.609)" fill="#fff"/>
      <path id="Path_44375" data-name="Path 44375" d="M280.043,273.947a.986.986,0,0,1,0-.36,5.176,5.176,0,0,1,.187-.952,6.412,6.412,0,0,1,1.618-2.747,6.5,6.5,0,0,1,2.747-1.628,5.176,5.176,0,0,1,.952-.187.948.948,0,0,1,.355,0c0,.044-.493.1-1.253.36a6.826,6.826,0,0,0-4.246,4.256C280.142,273.454,280.087,273.947,280.043,273.947Z" transform="translate(-222.456 -202.381)" fill="#263238"/>
      <path id="Path_44376" data-name="Path 44376" d="M281.54,267.953a4.567,4.567,0,0,1,2.165-.626,4.439,4.439,0,0,1,2.234.266c0,.079-.986-.113-2.214,0S281.57,268.027,281.54,267.953Z" transform="translate(-223.223 -201.99)" fill="#263238"/>
      <g id="Group_35838" data-name="Group 35838" transform="translate(10.098 78.722)" opacity="0.3">
        <path id="Path_44377" data-name="Path 44377" d="M185,294.51,183.77,295.9a9.962,9.962,0,0,0,4.991,3.3,25.408,25.408,0,0,0,6.022.543,8.576,8.576,0,0,0,2.436-.232,11.347,11.347,0,0,1,2.382-.735,6.082,6.082,0,0,1,1.652.237,3.206,3.206,0,0,0,1.657.025,1.3,1.3,0,0,0,.962-1.218A86.888,86.888,0,0,0,185,294.51Z" transform="translate(-183.77 -294.51)"/>
      </g>
      <path id="Path_44378" data-name="Path 44378" d="M242.605,292.489l-3.452-3.689-7.176-1.8s-6.55,1.973-6.707,1.973-5.7-1.519-5.7-1.519l-1.938,7.112,9.987.686,11.4-.459s.6-.552.242-.932,1.909.641,2.175.651.779.217,1.134-.207A1.545,1.545,0,0,0,242.605,292.489Z" transform="translate(-190.833 -211.982)" fill="#ffbe9d"/>
      <path id="Path_44379" data-name="Path 44379" d="M253.5,298.8a6.364,6.364,0,0,1-1.134-.326c-.69-.217-1.652-.493-2.722-.789s-2.057-.493-2.772-.616a5.809,5.809,0,0,1-1.149-.271,4.986,4.986,0,0,1,1.179.089,25.526,25.526,0,0,1,2.8.552,23.755,23.755,0,0,1,2.722.868A4.651,4.651,0,0,1,253.5,298.8Z" transform="translate(-205.069 -216.943)" fill="#eb996e"/>
      <path id="Path_44380" data-name="Path 44380" d="M257.009,295.265a15.547,15.547,0,0,1-1.588-.493c-.986-.326-2.333-.73-3.847-1.149a22.756,22.756,0,0,0-3.877-.957,9.151,9.151,0,0,0-1.647.064,1.343,1.343,0,0,1,.429-.148,4.662,4.662,0,0,1,1.228-.1,16,16,0,0,1,3.946.893c1.48.444,2.87.853,3.837,1.228.493.182.863.35,1.129.469a1.481,1.481,0,0,1,.39.192Z" transform="translate(-205.236 -214.757)" fill="#eb996e"/>
      <path id="Path_44381" data-name="Path 44381" d="M175.431,212.33s-5.154,3.586-6.412,8.744-6.688,26.243-5.573,29.395,22.786,6.249,22.786,6.249l2.57-10.85-11.008-3.013s.143-10.037.281-14.194S175.431,212.33,175.431,212.33Z" transform="translate(-163.296 -174.139)" fill="#006ae1"/>
      <path id="Path_44382" data-name="Path 44382" d="M212.6,283.64l3.546.873-2.136,8.177-3.482-.557Z" transform="translate(-187.234 -210.279)" fill="#fff"/>
      <path id="Path_44383" data-name="Path 44383" d="M163.42,280.8a3.188,3.188,0,0,0,.054.493,2.4,2.4,0,0,0,.755,1.228,10.414,10.414,0,0,0,5.021,2.017h0c1.041.345,2.229.616,3.5.9s2.639.577,4.079.868c2.885.592,6.076,1.213,9.46,1.845l-.148.094c.242-.986.493-2.067.764-3.147.607-2.466,1.2-4.892,1.756-7.176l.089.148-9.76-2.767h0a9.726,9.726,0,0,0-4.266-.75,9.455,9.455,0,0,0-3.221.76,10.794,10.794,0,0,0-1.849,1.026l-.449.326a.956.956,0,0,1-.158.1,1.524,1.524,0,0,1,.138-.128c.094-.079.237-.2.434-.35a9.976,9.976,0,0,1,1.84-1.08,9.341,9.341,0,0,1,3.255-.814,9.766,9.766,0,0,1,4.35.72h0l9.79,2.742.118.03-.03.118c-.557,2.283-1.144,4.69-1.746,7.181-.266,1.075-.523,2.14-.769,3.142l-.03.118h-.118c-3.383-.636-6.569-1.268-9.455-1.869-1.44-.3-2.806-.6-4.079-.9s-2.466-.577-3.512-.937h0a10.315,10.315,0,0,1-5.06-2.121,2.382,2.382,0,0,1-.74-1.287A1.5,1.5,0,0,1,163.42,280.8Z" transform="translate(-163.349 -205.586)" fill="#263238"/>
      <path id="Path_44384" data-name="Path 44384" d="M185.467,272.98c-.03.035-.4-.306-1.06-.745a10.135,10.135,0,0,0-5.859-1.711c-.8,0-1.287.108-1.3.064a4.069,4.069,0,0,1,1.287-.242,8.961,8.961,0,0,1,5.987,1.741A3.945,3.945,0,0,1,185.467,272.98Z" transform="translate(-170.368 -203.529)" fill="#263238"/>
      <path id="Path_44385" data-name="Path 44385" d="M193.531,239.91a4.029,4.029,0,0,1,0,.661c0,.429-.044,1.041-.1,1.8-.123,1.514-.345,3.6-.745,5.889a40.2,40.2,0,0,1-1.366,5.78c-.118.36-.247.686-.35.986l-.316.71a3.08,3.08,0,0,1-.34.572,3.345,3.345,0,0,1,.247-.612c.084-.212.173-.454.276-.72s.2-.612.311-.986a51.583,51.583,0,0,0,1.287-5.77c.395-2.279.646-4.355.814-5.864.074-.715.138-1.312.187-1.785A2.8,2.8,0,0,1,193.531,239.91Z" transform="translate(-176.987 -188.116)" fill="#263238"/>
      <path id="Path_44386" data-name="Path 44386" d="M215.427,215.038a3.816,3.816,0,0,0-.168-.365,2.19,2.19,0,0,0-.745-.809,1.845,1.845,0,0,0-1.6-.237,2.061,2.061,0,0,0-1.351,1.534l-.069.35-.153-.326a34.26,34.26,0,0,1-1.5-3.807,20.018,20.018,0,0,1-1.115-6.727c0-.439.059-.834.084-1.184a5.358,5.358,0,0,1,.158-.878,4.6,4.6,0,0,1,.217-.73,17.506,17.506,0,0,0-.281,2.791,21.518,21.518,0,0,0,1.179,6.648,38.106,38.106,0,0,0,1.48,3.788l-.222.03a2.264,2.264,0,0,1,1.524-1.672,1.973,1.973,0,0,1,1.741.3,2.141,2.141,0,0,1,.73.893,1.282,1.282,0,0,1,.094.3C215.432,215,215.437,215.038,215.427,215.038Z" transform="translate(-186.317 -168.832)" fill="#263238"/>
      <path id="Path_44387" data-name="Path 44387" d="M246.461,216.675a3.887,3.887,0,0,1-.113-.587,6.228,6.228,0,0,1-.1-1.652,3.452,3.452,0,0,1,1.189-2.185,2.274,2.274,0,0,1,1.435-.518,1.973,1.973,0,0,1,1.509.676l-.217.128-.469-1.179c-.922-2.323-1.741-4.439-2.323-5.963l-.676-1.82a3.413,3.413,0,0,1-.212-.676,3.865,3.865,0,0,1,.306.641c.2.493.449,1.07.755,1.79.626,1.514,1.48,3.61,2.392,5.918l.464,1.184.3.76-.493-.636a1.707,1.707,0,0,0-1.317-.592,2.047,2.047,0,0,0-1.292.449,3.359,3.359,0,0,0-1.159,2.027,7,7,0,0,0,.03,1.623A2.5,2.5,0,0,1,246.461,216.675Z" transform="translate(-205.327 -169.359)" fill="#263238"/>
      <path id="Path_44388" data-name="Path 44388" d="M265.247,233.31c.069,0,1.184,7.487,2.491,16.744s2.3,16.769,2.234,16.769-1.184-7.487-2.491-16.769S265.177,233.32,265.247,233.31Z" transform="translate(-214.963 -184.771)" fill="#263238"/>
      <g id="Group_35839" data-name="Group 35839" transform="translate(23.665 42.625)" opacity="0.3">
        <path id="Path_44389" data-name="Path 44389" d="M211.28,221.32a15.461,15.461,0,0,0,1.228,5.573,3.915,3.915,0,0,1,1.973-1.563,3.1,3.1,0,0,1,2.782,1.154,5.045,5.045,0,0,0-.888-2.131,2.5,2.5,0,0,0-1.973-1.021,1.726,1.726,0,0,0-1.642,1.342l-1.415-3.319" transform="translate(-211.28 -221.32)"/>
      </g>
      <path id="Path_44390" data-name="Path 44390" d="M189.458,224.987c-.044,0-.03-.518-.178-1.322a8.113,8.113,0,0,0-1.2-2.935,8.848,8.848,0,0,0-1.129-1.337,7.588,7.588,0,0,0-1.129-.883c-.7-.439-1.184-.607-1.164-.651a1.031,1.031,0,0,1,.35.089,2.087,2.087,0,0,1,.4.153,3.774,3.774,0,0,1,.493.256,6.9,6.9,0,0,1,1.2.858,8.185,8.185,0,0,1,1.179,1.371,7.354,7.354,0,0,1,1.164,3.048,4.976,4.976,0,0,1,.049.986C189.493,224.858,189.478,224.987,189.458,224.987Z" transform="translate(-174.123 -176.941)" fill="#263238"/>
      <path id="Path_44391" data-name="Path 44391" d="M232.376,151.291a10.569,10.569,0,0,0-10.781-9.445h-.547c-5.894.493-8.764,5.775-8.1,11.649l1.618,20.665.686.838a11.048,11.048,0,0,0,13.119,3.092h0l-.454-6.648s5.652-1.026,5.573-6.7C233.451,161.993,232.919,156.361,232.376,151.291Z" transform="translate(-188.411 -138.415)" fill="#ffbe9d"/>
      <path id="Path_44392" data-name="Path 44392" d="M235.792,199.8a13.731,13.731,0,0,1-7.482-1.973s1.85,4.039,7.5,3.383Z" transform="translate(-196.245 -166.79)" fill="#eb996e"/>
      <path id="Path_44393" data-name="Path 44393" d="M247.142,169.726a.819.819,0,0,1-.76.838.779.779,0,0,1-.853-.71.814.814,0,0,1,.76-.838.774.774,0,0,1,.853.71Z" transform="translate(-204.972 -152.184)" fill="#263238"/>
      <path id="Path_44394" data-name="Path 44394" d="M246.6,164.125c-.064.1-.705.168-1.48.582s-1.228.932-1.332.922,0-.143.192-.375a3.723,3.723,0,0,1,1.036-.8,3.373,3.373,0,0,1,1.2-.4C246.51,164.022,246.634,164.076,246.6,164.125Z" transform="translate(-204.069 -149.666)" fill="#263238"/>
      <path id="Path_44395" data-name="Path 44395" d="M230.542,170.6a.8.8,0,0,1-.76.838.774.774,0,0,1-.853-.71.814.814,0,0,1,.76-.838.774.774,0,0,1,.853.71Z" transform="translate(-196.559 -152.625)" fill="#263238"/>
      <path id="Path_44396" data-name="Path 44396" d="M228.809,165.694a13.619,13.619,0,0,0-1.48-.538c-.838-.207-1.534-.163-1.608-.232s.089-.1.39-.123a4.187,4.187,0,0,1,1.307.123,3.789,3.789,0,0,1,1.164.493C228.78,165.576,228.839,165.684,228.809,165.694Z" transform="translate(-194.925 -150.047)" fill="#263238"/>
      <path id="Path_44397" data-name="Path 44397" d="M238.272,172.9a6.075,6.075,0,0,1,1.411-.291c.222,0,.429-.079.464-.232a1.115,1.115,0,0,0-.163-.651l-.705-1.682a27.4,27.4,0,0,1-1.588-4.389,26.57,26.57,0,0,1,1.938,4.251c.237.592.464,1.154.676,1.692a1.3,1.3,0,0,1,.138.868.562.562,0,0,1-.36.335,1.421,1.421,0,0,1-.375.064A5.6,5.6,0,0,1,238.272,172.9Z" transform="translate(-200.995 -150.486)" fill="#263238"/>
      <path id="Path_44398" data-name="Path 44398" d="M227.933,159.037c-.1.232-.962.079-1.973.148s-1.869.316-1.973.094c-.059-.1.1-.321.439-.533a3.452,3.452,0,0,1,3.033-.187C227.785,158.731,227.963,158.923,227.933,159.037Z" transform="translate(-194.049 -146.753)" fill="#263238"/>
      <path id="Path_44399" data-name="Path 44399" d="M245.685,159.276c-.192.2-.942,0-1.84,0s-1.662.153-1.84-.054c-.079-.1.039-.3.37-.493a2.989,2.989,0,0,1,1.48-.34,2.959,2.959,0,0,1,1.48.385C245.66,158.975,245.769,159.183,245.685,159.276Z" transform="translate(-203.175 -146.8)" fill="#263238"/>
      <path id="Path_44400" data-name="Path 44400" d="M232.772,142.729a1.08,1.08,0,0,0-1.134-.873,2.249,2.249,0,0,0,.779-.4.784.784,0,0,0,.271-.789c-.148-.439-.71-.533-1.154-.656a2.959,2.959,0,0,1-1.48-.986c-.538-.681-.745-1.568-1.213-2.3a3.763,3.763,0,0,0-5.83-.641,3.921,3.921,0,0,0-6.308.962,4.572,4.572,0,0,0-6.264,5.006l3.531,2.165a1.909,1.909,0,0,1,2.328-1.657c1.065.311,1.746,1.544,2.851,1.628.863.064,1.6-.6,2.431-.824a4.118,4.118,0,0,1,2.994.646,11.947,11.947,0,0,0,2.8,1.411,5.815,5.815,0,0,0,3.6-.429,3.644,3.644,0,0,0,1.332-.824A1.647,1.647,0,0,0,232.772,142.729Z" transform="translate(-187.154 -134.893)" fill="#263238"/>
      <path id="Path_44401" data-name="Path 44401" d="M213.823,145.063,230,144.974a7.348,7.348,0,0,0-2.466-2.683,12.626,12.626,0,0,0-7.4-2.431c-2.639,0-7.916,3.388-9.775,5.257a4.141,4.141,0,0,0-1.44,2.757c-.187,2.1,1.051,4.439,1.578,6.5.266,1.055.824,4.251.824,4.251h0c.888-.025,1.2-.745,1.041-1.623l-.261-3.452a5.223,5.223,0,0,0,1.425-6.135C213.3,147.105,212.772,145.68,213.823,145.063Z" transform="translate(-186.409 -137.41)" fill="#263238"/>
      <path id="Path_44402" data-name="Path 44402" d="M208.843,158.129c-.824-2.861-1.583-5.918-.705-8.779h-.493l-.2.143a2.264,2.264,0,0,0-2.545,3.487,1.973,1.973,0,0,0-1.973,1.711,3.66,3.66,0,0,0,.528,1.884,4.409,4.409,0,0,1,.617,1.874A1.406,1.406,0,0,1,203,159.9a1.613,1.613,0,0,0,1.83.893,3.22,3.22,0,0,1-1.11,1.4,3.663,3.663,0,0,0,3.645-.084,3.107,3.107,0,0,0,1.628-1.509A3.893,3.893,0,0,0,208.843,158.129Z" transform="translate(-183.383 -142.22)" fill="#263238"/>
      <path id="Path_44403" data-name="Path 44403" d="M210.563,173.768c-.1-.039-3.946-1.05-3.7,2.821s4.069,2.851,4.069,2.737S210.563,173.768,210.563,173.768Z" transform="translate(-185.368 -154.521)" fill="#ffbe9d"/>
      <path id="Path_44404" data-name="Path 44404" d="M211.4,179.218a1.32,1.32,0,0,1-.178.109.666.666,0,0,1-.493.039,1.67,1.67,0,0,1-.858-1.455,2.249,2.249,0,0,1,.133-.986.789.789,0,0,1,.493-.547.35.35,0,0,1,.409.163c.059.1.035.182.059.192s.079-.074.039-.232a.467.467,0,0,0-.547-.311.957.957,0,0,0-.671.641,2.4,2.4,0,0,0-.173,1.095,1.742,1.742,0,0,0,1.085,1.618.73.73,0,0,0,.607-.138C211.4,179.312,211.413,179.223,211.4,179.218Z" transform="translate(-186.766 -155.818)" fill="#eb996e"/>
      <path id="Path_44405" data-name="Path 44405" d="M206.147,158.972a.673.673,0,0,1-.074-.454,1.445,1.445,0,0,1,.725-.986,4.439,4.439,0,0,1,1.776-.429,2.185,2.185,0,0,0,1.766-.9,3.221,3.221,0,0,0,.306-2.037c-.094-.651-.266-1.238-.35-1.746a2.866,2.866,0,0,1,.025-1.662,7.689,7.689,0,0,0,.182,1.618c.109.493.3,1.07.419,1.756a3.388,3.388,0,0,1-.326,2.229,1.889,1.889,0,0,1-.922.779,4,4,0,0,1-1.07.237,4.621,4.621,0,0,0-1.7.335,1.44,1.44,0,0,0-.715.848A3.115,3.115,0,0,0,206.147,158.972Z" transform="translate(-184.972 -142.935)" fill="#455a64"/>
      <path id="Path_44406" data-name="Path 44406" d="M204.2,156.834a.791.791,0,0,1-.118-.35,1.652,1.652,0,0,1,.192-.986,1.756,1.756,0,0,1,.459-.552,1.973,1.973,0,0,1,.745-.345,2.184,2.184,0,0,0,.735-.306.878.878,0,0,0,.291-.71c0-.291-.035-.6-.025-.912a4.56,4.56,0,0,1,.1-.883,4.083,4.083,0,0,1,.557-1.381,1.065,1.065,0,0,1,.853-.547c.256,0,.365.118.355.128a.927.927,0,0,0-.345,0,.987.987,0,0,0-.686.543,4.5,4.5,0,0,0-.464,1.322,4.978,4.978,0,0,0-.074.829c0,.286.044.592.03.927a1.149,1.149,0,0,1-.409.927,2.219,2.219,0,0,1-.843.34,1.6,1.6,0,0,0-1.095.74A2.17,2.17,0,0,0,204.2,156.834Z" transform="translate(-183.959 -142.479)" fill="#455a64"/>
      <path id="Path_44407" data-name="Path 44407" d="M232.516,141.177a.787.787,0,0,1-.8-.025,2.328,2.328,0,0,1-.735-.626,3.087,3.087,0,0,0-.9-.794,2.678,2.678,0,0,0-2.92.192c-.493.345-.9.834-1.48,1.238a2.584,2.584,0,0,1-.986.449,2.091,2.091,0,0,1-1.1-.1c-.7-.252-1.253-.681-1.854-.9a4.977,4.977,0,0,0-1.82-.33,4.818,4.818,0,0,0-2.959,1.011,5.3,5.3,0,0,0-1.381,1.623c-.242.449-.33.725-.355.715s0-.074.039-.207a4.292,4.292,0,0,1,.207-.562,5.041,5.041,0,0,1,1.356-1.736A4.962,4.962,0,0,1,219.9,140a5.03,5.03,0,0,1,1.928.33c.651.237,1.213.666,1.849.888a1.791,1.791,0,0,0,.947.094,2.279,2.279,0,0,0,.853-.395c.518-.37.952-.858,1.48-1.223a2.792,2.792,0,0,1,1.692-.557,2.989,2.989,0,0,1,1.48.4,3.358,3.358,0,0,1,.922.873,2.224,2.224,0,0,0,.656.631A1.11,1.11,0,0,0,232.516,141.177Z" transform="translate(-189.611 -137.045)" fill="#455a64"/>
      <path id="Path_44408" data-name="Path 44408" d="M234.443,182.41c.123,0,.261.8,1.07,1.268s1.672.232,1.7.345-.173.2-.543.266a2.086,2.086,0,0,1-1.411-.237,1.854,1.854,0,0,1-.848-1.075C234.325,182.637,234.384,182.415,234.443,182.41Z" transform="translate(-199.316 -158.975)" fill="#263238"/>
      <path id="Path_44409" data-name="Path 44409" d="M329,336.788a7.546,7.546,0,0,0-5.425-1.805l-3.334,10.589c2.441.109,4.878,1.366,7.235.72a5.164,5.164,0,0,0,3.6-4.242A6.13,6.13,0,0,0,329,336.788Z" transform="translate(-242.836 -236.291)" fill="#001b82"/>
      <path id="Path_44410" data-name="Path 44410" d="M324.194,334.358c0-.084.36-.153.986-.148a8.236,8.236,0,0,1,2.727.518,7.4,7.4,0,0,1,3.324,2.579,6.869,6.869,0,0,1,1.11,2.3,6.046,6.046,0,0,1,.079,2.777,5.648,5.648,0,0,1-1.208,2.53,5.341,5.341,0,0,1-2.15,1.48,7.729,7.729,0,0,1-4.192.271,12.662,12.662,0,0,1-2.614-.814c-.587-.252-.9-.439-.868-.523s.385-.059.986.044,1.514.3,2.6.395a7.521,7.521,0,0,0,3.625-.493,4.316,4.316,0,0,0,1.628-1.2,4.547,4.547,0,0,0,.917-1.973,5.425,5.425,0,0,0-.9-4.143,7.146,7.146,0,0,0-2.713-2.427,12.256,12.256,0,0,0-2.431-.848C324.53,334.55,324.184,334.447,324.194,334.358Z" transform="translate(-243.417 -235.908)" fill="#f5f5f5"/>
      <path id="Path_44411" data-name="Path 44411" d="M257,415.06l-7.25,20.315,25.227,9.149c.73-2.466-10.569-12.034-10.569-12.034l5.179-12.823Z" transform="translate(-207.111 -276.883)" fill="#001b82"/>
      <g id="Group_35840" data-name="Group 35840" transform="translate(48.75 151.665)" opacity="0.6">
        <path id="Path_44412" data-name="Path 44412" d="M263.285,442.429a1.1,1.1,0,0,0-1.139.917,1.05,1.05,0,0,0,.9,1.134,1.154,1.154,0,0,0,1.2-.986c0-.538-.533-1.154-1.065-1.08" transform="translate(-262.141 -442.408)" fill="#fff"/>
      </g>
      <path id="Path_44413" data-name="Path 44413" d="M249.75,454.147l.735-2.047,23.959,9.558s.947.893.533,1.637Z" transform="translate(-207.111 -295.655)" fill="#fff"/>
      <path id="Path_44414" data-name="Path 44414" d="M277.519,450.07c-.049.123-.686-.044-1.435.133s-1.263.577-1.356.493.345-.735,1.258-.932S277.583,449.967,277.519,450.07Z" transform="translate(-219.764 -294.444)" fill="#263238"/>
      <path id="Path_44415" data-name="Path 44415" d="M282.617,454.439c0,.128-.626.143-1.233.493s-.927.878-1.051.829.054-.774.819-1.223S282.617,454.321,282.617,454.439Z" transform="translate(-222.593 -296.756)" fill="#263238"/>
      <path id="Path_44416" data-name="Path 44416" d="M285.616,460.28c-.118,0-.069-.69.493-1.253s1.233-.617,1.248-.493-.469.35-.922.819S285.744,460.314,285.616,460.28Z" transform="translate(-225.262 -298.888)" fill="#263238"/>
      <path id="Path_44417" data-name="Path 44417" d="M279.388,443.183c-.094.094-.6-.281-1.307-.493s-1.337-.183-1.361-.311.651-.38,1.48-.123S279.486,443.109,279.388,443.183Z" transform="translate(-220.779 -290.61)" fill="#263238"/>
      <path id="Path_44418" data-name="Path 44418" d="M279.678,434.417a2.555,2.555,0,0,1-1.258-.464,5.788,5.788,0,0,1-1.174-.888,6.227,6.227,0,0,1-.587-.646,1.69,1.69,0,0,1-.276-.434.567.567,0,0,1,.182-.676.725.725,0,0,1,.641-.089,1.81,1.81,0,0,1,.449.237,4.932,4.932,0,0,1,.69.557,4.717,4.717,0,0,1,.888,1.184,2.244,2.244,0,0,1,.37,1.3c-.069,0-.217-.469-.646-1.134a5.515,5.515,0,0,0-.9-1.041,5.15,5.15,0,0,0-.646-.493c-.242-.168-.469-.252-.577-.158s-.054.054-.025.153a1.293,1.293,0,0,0,.2.321,6.024,6.024,0,0,0,.528.621,7.23,7.23,0,0,0,1.051.912C279.244,434.146,279.708,434.353,279.678,434.417Z" transform="translate(-220.587 -285.054)" fill="#263238"/>
      <path id="Path_44419" data-name="Path 44419" d="M282.6,434.219a2.17,2.17,0,0,1,.108-1.341,4.438,4.438,0,0,1,.676-1.322,4.858,4.858,0,0,1,.6-.651,1.129,1.129,0,0,1,1.041-.345.636.636,0,0,1,.4.547,1.834,1.834,0,0,1-.039.493,3.057,3.057,0,0,1-1.322,1.973c-.73.493-1.3.434-1.292.39a5.646,5.646,0,0,0,1.1-.651,3.117,3.117,0,0,0,.829-1.041,2.77,2.77,0,0,0,.242-.74c.059-.281.035-.538-.074-.543a.755.755,0,0,0-.592.252,4.38,4.38,0,0,0-.562.572,4.69,4.69,0,0,0-.7,1.169C282.707,433.726,282.673,434.219,282.6,434.219Z" transform="translate(-223.729 -284.728)" fill="#263238"/>
      <path id="Path_44420" data-name="Path 44420" d="M196.211,304.553c-3.827.089-7.457.626-10.1,3.4-3.5,3.684-7.817,8.927-8.064,12.562-.365,5.425,2.915,7.053,5.307,8.384a6.717,6.717,0,0,0,3.452.8l44.23-.335,1.386-7.492-28.605-7.053,1.189-10.766Z" transform="translate(-170.76 -220.628)" fill="#263238"/>
      <path id="Path_44421" data-name="Path 44421" d="M231.553,303.391l13.913-.641s24.038,1.337,29.163,6.037,4.488,10.041,2.777,15.166-16.769,37.917-16.769,37.917a5.673,5.673,0,0,1,.538,4.168,5.5,5.5,0,0,1-3.946,3.738l-13.375-4.932s-1.815-.641-.533-2.352a5.858,5.858,0,0,1,2.136-2.027v-3.418s4.7-8.547,5.124-9.721,4.932-18.564,4.932-18.564l2.994-5.144s-7.235-3.4-13.509-5.869l-14.648-3.61Z" transform="translate(-197.279 -219.964)" fill="#263238"/>
      <path id="Path_44422" data-name="Path 44422" d="M269.5,423.953a13.122,13.122,0,0,1-1.174-.769,15.888,15.888,0,0,0-6.244-2.372,13.755,13.755,0,0,1-1.391-.207,5.335,5.335,0,0,1,1.411.025,13.317,13.317,0,0,1,6.328,2.407A5.367,5.367,0,0,1,269.5,423.953Z" transform="translate(-212.656 -279.674)" fill="#455a64"/>
      <path id="Path_44423" data-name="Path 44423" d="M287.427,416.32a4.462,4.462,0,0,1-.774-.819c-.454-.528-1.055-1.277-1.682-2.136s-1.169-1.652-1.539-2.239a5.046,5.046,0,0,1-.552-.986,5.179,5.179,0,0,1,.7.883l1.6,2.19c.6.809,1.144,1.539,1.618,2.175a5.176,5.176,0,0,1,.631.932Z" transform="translate(-223.902 -274.389)" fill="#455a64"/>
      <path id="Path_44424" data-name="Path 44424" d="M294.246,335.58c0,.039-.493.148-1.268.4a13.315,13.315,0,0,0-5.356,3.344,13.274,13.274,0,0,1-.922.962,4.593,4.593,0,0,1,.789-1.085,11.259,11.259,0,0,1,2.466-2.086,11.126,11.126,0,0,1,2.959-1.307A4.484,4.484,0,0,1,294.246,335.58Z" transform="translate(-225.838 -236.602)" fill="#455a64"/>
      <path id="Path_44425" data-name="Path 44425" d="M274.3,356.261a1.175,1.175,0,0,1,.054-.291l.207-.814.8-2.984,2.737-9.82c.557-1.919,1.031-3.743,1.568-5.4a11.28,11.28,0,0,1,2.52-3.842,14.436,14.436,0,0,1,2.387-1.973c.311-.2.552-.345.725-.434a1.569,1.569,0,0,1,.261-.133s-.335.227-.927.646a16.023,16.023,0,0,0-2.318,2.017,11.28,11.28,0,0,0-2.427,3.8c-.493,1.632-.986,3.482-1.544,5.391l-2.806,9.795c-.365,1.228-.666,2.229-.883,2.959-.1.325-.182.592-.252.8a1.13,1.13,0,0,1-.1.286Z" transform="translate(-219.553 -234.063)" fill="#455a64"/>
      <path id="Path_44426" data-name="Path 44426" d="M248.245,319.9c-.074,0-.365-2.594-.656-5.81a54.917,54.917,0,0,1-.395-5.835,56.457,56.457,0,0,1,.651,5.81C248.136,317.286,248.314,319.9,248.245,319.9Z" transform="translate(-205.803 -222.756)" fill="#455a64"/>
      <path id="Path_44427" data-name="Path 44427" d="M195.8,340.851c-.039,0-.252-.4-.69-1.016a10.21,10.21,0,0,0-2.017-2.126,10.358,10.358,0,0,0-2.55-1.445c-.705-.276-1.164-.38-1.154-.424a3.946,3.946,0,0,1,1.213.252,8.754,8.754,0,0,1,4.661,3.64A3.8,3.8,0,0,1,195.8,340.851Z" transform="translate(-176.521 -236.734)" fill="#455a64"/>
      <path id="Path_44428" data-name="Path 44428" d="M207.35,324.312c0,.039-.612-.335-1.632-.8a15.407,15.407,0,0,0-8.562-1.223c-1.11.158-1.785.355-1.8.311a1.7,1.7,0,0,1,.459-.178,10.679,10.679,0,0,1,1.307-.316,14.066,14.066,0,0,1,8.661,1.243,10.435,10.435,0,0,1,1.164.671A1.791,1.791,0,0,1,207.35,324.312Z" transform="translate(-179.546 -229.664)" fill="#455a64"/>
      <path id="Path_44429" data-name="Path 44429" d="M252.478,333.293a1.516,1.516,0,0,1-.35-.059l-.986-.212-3.6-.794c-3.043-.681-7.255-1.6-11.925-2.52s-8.912-1.687-11.985-2.214l-3.645-.626-.986-.173a1.413,1.413,0,0,1-.34-.084,3.114,3.114,0,0,1,.35.03l.986.128c.863.118,2.111.306,3.655.547,3.082.493,7.334,1.213,12.009,2.14s8.878,1.869,11.916,2.594c1.514.365,2.742.671,3.586.893l.986.256A1.905,1.905,0,0,1,252.478,333.293Z" transform="translate(-191.355 -232.056)" fill="#455a64"/>
      <path id="Path_44430" data-name="Path 44430" d="M222.5,321.461a13.677,13.677,0,0,0-.612-1.411,6.083,6.083,0,0,0-.986-1.307,16.044,16.044,0,0,0-1.549-1.341,23.428,23.428,0,0,0-3.171-1.973,10.561,10.561,0,0,1-1.351-.769,8.326,8.326,0,0,1,1.435.607,18.528,18.528,0,0,1,3.245,1.928,14.531,14.531,0,0,1,1.559,1.376,5.717,5.717,0,0,1,.986,1.386,4.712,4.712,0,0,1,.4,1.085A1.144,1.144,0,0,1,222.5,321.461Z" transform="translate(-189.414 -226)" fill="#455a64"/>
      <path id="Path_44431" data-name="Path 44431" d="M328.111,342c.054.059-.686.8-1.263,1.943s-.764,2.165-.838,2.15a4.478,4.478,0,0,1,.612-2.269A4.533,4.533,0,0,1,328.111,342Z" transform="translate(-245.76 -239.856)" fill="#263238"/>
      <g id="Group_35841" data-name="Group 35841" transform="translate(50.693 51.611)" opacity="0.3">
        <path id="Path_44432" data-name="Path 44432" d="M266.08,239.54l3.166,22.3.158.355a47.84,47.84,0,0,0-3.324-22.657Z" transform="translate(-266.08 -239.54)"/>
      </g>
      <path id="Path_44433" data-name="Path 44433" d="M263.942,264.922l-10.293,17.992-25.365.552-.064,1.149,24.561-.182.779-.03,25.932.054,5.243-9.04,6.7-9.6a.947.947,0,0,0-.784-1.48l-25.888.1A.947.947,0,0,0,263.942,264.922Z" transform="translate(-196.2 -200.497)" fill="#e0e0e0"/>
      <path id="Path_44434" data-name="Path 44434" d="M334.159,286.83s1.332,1.223,1.124,2.259-.143,1.81-1.124,1.879a1.48,1.48,0,0,1-1.332,1.544,1.645,1.645,0,0,1-1.593,1.909s-.582,1.741-1.776,1.317a10.322,10.322,0,0,1-1.973-.912l-.35-.631s-1.761-.661-1.327-1.652c.266-.6,1.174-.76,1.174-.76a1.692,1.692,0,0,1,.113-1.539c.419-.567,1.79-.1,1.79-.1a1.943,1.943,0,0,1,.434-1.342c.493-.557,2.653.947,2.653.947l1.189-1.42Z" transform="translate(-245.624 -211.895)" fill="#ffbe9d"/>
      <path id="Path_44435" data-name="Path 44435" d="M332.522,299.509a12.335,12.335,0,0,1-2.19-1.208,12,12,0,0,1-2.052-1.43,12.581,12.581,0,0,1,2.19,1.213,12.41,12.41,0,0,1,2.052,1.425Z" transform="translate(-246.911 -216.984)" fill="#eb996e"/>
      <path id="Path_44436" data-name="Path 44436" d="M336.071,295.917a10.274,10.274,0,0,1-2.032-1.075,10.429,10.429,0,0,1-1.9-1.292,9.963,9.963,0,0,1,2.032,1.075A10.431,10.431,0,0,1,336.071,295.917Z" transform="translate(-248.867 -215.301)" fill="#eb996e"/>
      <path id="Path_44437" data-name="Path 44437" d="M335.71,291.1a6.785,6.785,0,0,1,1.8.957,16.12,16.12,0,0,1,1.692,1.124,5.468,5.468,0,0,1-1.83-.907A9.658,9.658,0,0,1,335.71,291.1Z" transform="translate(-250.676 -214.056)" fill="#eb996e"/>
      <path id="Path_44438" data-name="Path 44438" d="M318.633,265.559a.389.389,0,0,1-.123,0h-1.766l-5.149.039-16.991.039h-1.238a1.021,1.021,0,0,0-.942.444q-.592,1.055-1.154,2.081l-2.19,3.946-3.714,6.673c-1.055,1.884-1.919,3.413-2.525,4.493-.291.493-.528.917-.7,1.213l-.187.311-.069.1a.26.26,0,0,1,.044-.118l.168-.326.656-1.233,2.466-4.533,3.669-6.7c.69-1.258,1.42-2.579,2.17-3.946l1.159-2.1a1.282,1.282,0,0,1,1.159-.562h1.238l16.991.035,5.149.044,1.4.025h.365A.389.389,0,0,1,318.633,265.559Z" transform="translate(-223.4 -201.026)" fill="#263238"/>
      <path id="Path_44439" data-name="Path 44439" d="M319.191,283.638a1.095,1.095,0,1,0,1.632-.192A1.169,1.169,0,0,0,319.191,283.638Z" transform="translate(-242.206 -210.055)" fill="#fff"/>
      <g id="Group_35842" data-name="Group 35842" transform="translate(4.51 66.016)" opacity="0.3">
        <path id="Path_44440" data-name="Path 44440" d="M172.909,269.365c-.217.089-.469.237-.469.493a.424.424,0,0,0,.36.385,4.582,4.582,0,0,0,1.055-.281c2.668-.587,4.863-.025,7.4.986l.084-.084C180.331,268.679,175.779,268.2,172.909,269.365Z" transform="translate(-172.44 -268.747)"/>
      </g>
    </g>
    <g id="freepik--Floor--inject-2" transform="translate(47.94 271.011)">
      <path id="Path_44441" data-name="Path 44441" d="M247.251,472.868c0,.069-44.61.128-99.626.128S48,472.918,48,472.868s44.6-.128,99.626-.128S247.251,472.775,247.251,472.868Z" transform="translate(-48 -472.74)" fill="#263238"/>
    </g>
    <g id="freepik--Ribbon--inject-2" transform="translate(91.573 74.698)">
      <path id="Path_44442" data-name="Path 44442" d="M140.884,133.664c.084.084,16.463-5.544,16.463-5.544l-6.313-14.451-14.564,5.588,8.019,4.606Z" transform="translate(-136.47 -94.449)" fill="#455a64"/>
      <path id="Path_44443" data-name="Path 44443" d="M161,98.269V78.6s22.593-4.133,38.874-3.886a268.133,268.133,0,0,1,33.044,2.915V96.513S181.892,91.956,161,98.269Z" transform="translate(-148.902 -74.698)" fill="#455a64"/>
      <path id="Path_44444" data-name="Path 44444" d="M160.76,120.706l8.878,10.165V118.93S162.215,119.818,160.76,120.706Z" transform="translate(-148.78 -97.115)" fill="#263238"/>
      <path id="Path_44445" data-name="Path 44445" d="M160.8,82.59c.074,0,.1,4.439.074,9.864s-.118,9.864-.187,9.864-.1-4.409-.074-9.864S160.723,82.59,160.8,82.59Z" transform="translate(-148.698 -78.698)" fill="#263238"/>
      <path id="Path_44446" data-name="Path 44446" d="M305.4,130.6c-.084.084-16.463-5.544-16.463-5.544l6.3-14.456,14.579,5.578-8.024,4.606Z" transform="translate(-213.742 -92.894)" fill="#455a64"/>
      <path id="Path_44447" data-name="Path 44447" d="M297.878,118.532,289,128.7V117.62A65.473,65.473,0,0,1,297.878,118.532Z" transform="translate(-213.773 -96.451)" fill="#263238"/>
      <path id="Path_44448" data-name="Path 44448" d="M306.706,80.63c.069,0,.148,4.286.173,9.578s0,9.578-.084,9.578-.148-4.286-.173-9.578S306.632,80.63,306.706,80.63Z" transform="translate(-222.7 -77.705)" fill="#263238"/>
      <path id="Path_44449" data-name="Path 44449" d="M186.815,96.877a2.89,2.89,0,0,1,4.72-2.466l-.69.829a1.706,1.706,0,0,0-1.391-.429,1.683,1.683,0,1,0,1.687,2.535l.868.607a2.885,2.885,0,0,1-5.208-1.075Z" transform="translate(-161.977 -84.354)" fill="#fff"/>
      <path id="Path_44450" data-name="Path 44450" d="M197.7,95.159a2.88,2.88,0,1,1,3.137,2.407,2.722,2.722,0,0,1-3.137-2.407ZM202.2,94.7a1.642,1.642,0,1,0-1.48,1.84,1.6,1.6,0,0,0,1.48-1.84Z" transform="translate(-167.484 -83.376)" fill="#fff"/>
      <path id="Path_44451" data-name="Path 44451" d="M216.085,96.462l-.212-3.147L214.5,96.008l-.543.035-1.7-2.427.2,3.078-1.139.074L211,91.525l.986-.064,2.17,3.132,1.721-3.378.986-.064.355,5.238Z" transform="translate(-174.242 -83.036)" fill="#fff"/>
      <path id="Path_44452" data-name="Path 44452" d="M230.341,92.729c.03,1.174-.829,1.923-2.229,1.973l-1.06.03.044,1.45-1.218.035-.148-5.282L228,90.87C229.409,90.85,230.3,91.555,230.341,92.729Zm-1.233.035c0-.577-.4-.9-1.144-.883l-.986.03.054,1.825.986-.03C228.758,93.686,229.123,93.336,229.108,92.763Z" transform="translate(-181.707 -82.894)" fill="#fff"/>
      <path id="Path_44453" data-name="Path 44453" d="M237,90.77h1.213v4.261h2.634v.986H237Z" transform="translate(-187.419 -82.844)" fill="#fff"/>
      <path id="Path_44454" data-name="Path 44454" d="M250.169,95.215V96.2l-4.069-.118.153-5.253,3.946.118-.03.986-2.762-.084L247.377,93l2.436.069-.03.947-2.436-.074-.035,1.218Z" transform="translate(-192.031 -82.874)" fill="#fff"/>
      <path id="Path_44455" data-name="Path 44455" d="M257.187,92.185l-1.677-.1.059-.986,4.567.276-.059.986-1.677-.1-.256,4.256-1.213-.074Z" transform="translate(-196.8 -83.011)" fill="#fff"/>
      <path id="Path_44456" data-name="Path 44456" d="M269.6,96.436l-.089.986-4.054-.375.493-5.228,3.946.365-.089.986-2.752-.276-.1,1.139,2.427.222-.084.942-2.431-.222-.109,1.208Z" transform="translate(-201.843 -83.376)" fill="#fff"/>
      <path id="Path_44457" data-name="Path 44457" d="M276.225,92.79l2.362.316a2.626,2.626,0,1,1-.7,5.179l-2.362-.316Zm1.741,4.523a1.628,1.628,0,1,0,.429-3.226l-1.1-.148-.429,3.226Z" transform="translate(-206.946 -83.867)" fill="#fff"/>
    </g>
    <g id="freepik--speech-bubble--inject-2" transform="translate(156.162 116.746)">
      <path id="Path_44458" data-name="Path 44458" d="M267.43,166.322l6.964.769a16.325,16.325,0,1,1-2.466,5.312h0Z" transform="translate(-267.43 -160.07)" fill="#fafafa"/>
      <path id="Path_44459" data-name="Path 44459" d="M267.43,166.205c.271.365,1.682,2.229,4.562,6.052h-.1a.059.059,0,0,1,.089-.025.064.064,0,0,1,.03.069,16.211,16.211,0,0,0,.108,8.419,14.22,14.22,0,0,0,.9,2.4c.2.395.385.8.6,1.2l.735,1.169a16.32,16.32,0,0,0,9.933,6.673,16.128,16.128,0,0,0,6.786.03,16.438,16.438,0,0,0,6.5-3.008,15.822,15.822,0,0,0,4.71-5.785,16.128,16.128,0,0,0,1.618-7.437,16.443,16.443,0,0,0-1.825-7.063,15.891,15.891,0,0,0-4.409-5.317,16.369,16.369,0,0,0-11.664-3.334,17.7,17.7,0,0,0-5.1,1.411,16.276,16.276,0,0,0-6.446,5.356.049.049,0,0,1-.054.025l-6.959-.829,6.974.705-.059.03a16.191,16.191,0,0,1,6.471-5.425,17.5,17.5,0,0,1,5.144-1.47,16.547,16.547,0,0,1,11.837,3.344,16.043,16.043,0,0,1,4.483,5.391,16.567,16.567,0,0,1,1.859,7.171,16.38,16.38,0,0,1-1.637,7.556,16.088,16.088,0,0,1-4.789,5.874,16.7,16.7,0,0,1-6.6,3.048,16.276,16.276,0,0,1-6.9-.044,16.453,16.453,0,0,1-10.027-6.762l-.74-1.184c-.212-.4-.4-.819-.6-1.218a14.477,14.477,0,0,1-.9-2.426,16.241,16.241,0,0,1-.059-8.5l.118.044h0a.069.069,0,0,1-.089.025h0Z" transform="translate(-267.43 -159.953)" fill="#263238"/>
      <path id="Path_44460" data-name="Path 44460" d="M296.212,181.4a1.514,1.514,0,0,1,0,.227v.631c0,.572,0,1.366.03,2.372,0,2.047.035,4.932.059,8.384l-.113-.113h11.6c.03-.03-.242.242-.128.123h0v-11.6l.109.113-8.384-.059-2.372-.025h-.044l2.343-.03,8.448-.054h.113v11.654h0c.118-.113-.153.163-.128.133H296.03v-.133c0-3.482.039-6.387.054-8.448,0-.986,0-1.785.03-2.348v-.612A.875.875,0,0,1,296.212,181.4Z" transform="translate(-281.925 -170.807)" fill="#263238"/>
      <path id="Path_44461" data-name="Path 44461" d="M309.011,185.324c.168.133-1.391,2.382-3.487,5.026-.414.528-.824,1.031-1.2,1.48l-.247.3-.276-.252c-1.815-1.632-3.043-2.885-2.935-3.013s1.534.907,3.413,2.466l-.528.049c.36-.493.755-.986,1.174-1.509C307.013,187.228,308.848,185.2,309.011,185.324Z" transform="translate(-284.371 -172.808)" fill="#006ae1"/>
    </g>
  </g>
</svg>
