<svg id="contactus" xmlns="http://www.w3.org/2000/svg" width="19.956" height="19.919" viewBox="0 0 19.956 19.919">
  <path id="Path_31" data-name="Path 31" d="M16.992,8.73a.966.966,0,0,0-1.333,0L14.552,9.84,10.561,5.847l1.108-1.108a.943.943,0,0,0,0-1.333L8.781.518A.948.948,0,0,0,7.453.523,4.781,4.781,0,0,0,7,7.612l.661.661H1.447A1.256,1.256,0,0,0,.192,9.528v7.215A1.256,1.256,0,0,0,1.447,18H7.725l1.319,1.725a1.129,1.129,0,0,0,2-.431L11.34,18h1.09a1.261,1.261,0,0,0,1.255-1.248L13.7,14.1a4.691,4.691,0,0,0,2.405.667,4.979,4.979,0,0,0,3.77-1.824.949.949,0,0,0,0-1.333Zm-6.153,8.013a.627.627,0,0,0-.612.487L9.88,18.75,8.533,16.989a.627.627,0,0,0-.5-.246H1.447V9.528h7.47l3.533,3.533-.02,3.682Zm7.7-4.233a3.447,3.447,0,0,1-4.863,0L7.889,6.725A3.475,3.475,0,0,1,8.12,1.632l2.441,2.441-1.1,1.1a.939.939,0,0,0-.006,1.335l4.436,4.439h0a.942.942,0,0,0,1.33,0l1.109-1.112,2.441,2.441Z" transform="translate(-0.192 -0.25)" fill="#fff"/>
  <ellipse id="Ellipse_26" data-name="Ellipse 26" cx="0.627" cy="0.627" rx="0.627" ry="0.627" transform="translate(2.51 10.533)" fill="#fff"/>
</svg>
