<svg xmlns="http://www.w3.org/2000/svg" width="17.493" height="17.562" viewBox="0 0 17.493 17.562">
  <g id="Document" transform="translate(-1)">
    <path id="Path_50" data-name="Path 50" d="M18.343,3.581,14.913.151A.514.514,0,0,0,14.549,0H6.66A1.545,1.545,0,0,0,5.116,1.544V8.329a4.631,4.631,0,0,0,.515,9.232H16.95a1.545,1.545,0,0,0,1.544-1.544V3.945a.515.515,0,0,0-.151-.364ZM15.063,1.757l1.118,1.118.556.556H15.063ZM2.029,12.931a3.6,3.6,0,1,1,3.6,3.6A3.606,3.606,0,0,1,2.029,12.931Zm14.921,3.6H8.537a4.628,4.628,0,0,0,1.695-3.087h5.345a.515.515,0,1,0,0-1.029H10.232a4.6,4.6,0,0,0-.754-2.058h6.1a.515.515,0,1,0,0-1.029H8.537a4.609,4.609,0,0,0-2.392-1V1.544a.515.515,0,0,1,.515-.515h7.375V3.945a.515.515,0,0,0,.515.515h2.916V16.018A.515.515,0,0,1,16.95,16.533Z" fill="#fff"/>
    <path id="Path_51" data-name="Path 51" d="M199.061,182h-7.546a.515.515,0,1,0,0,1.029h7.546a.515.515,0,0,0,0-1.029Z" transform="translate(-183.483 -175.757)" fill="#fff"/>
    <path id="Path_52" data-name="Path 52" d="M74.308,335.152a.515.515,0,0,0-.728,0l-2.037,2.037-.665-.665a.515.515,0,0,0-.728.728l1.029,1.029a.514.514,0,0,0,.728,0l2.4-2.4A.514.514,0,0,0,74.308,335.152Z" transform="translate(-66.633 -323.511)" fill="#fff"/>
  </g>
</svg>
