<svg id="eye" xmlns="http://www.w3.org/2000/svg" width="21" height="11" viewBox="0 0 21 11">
  <path id="Path_11886" data-name="Path 11886" d="M2.561,11.1a1,1,0,0,1,1.337.46,10.66,10.66,0,0,0,1.4,2.17,1.012,1.012,0,0,1,.077.091,9.4,9.4,0,0,0,2.758,2.216q.041.016.081.036t.089.051a8.234,8.234,0,0,0,7.385,0q.043-.027.09-.051t.081-.036a9.4,9.4,0,0,0,2.756-2.213,1.007,1.007,0,0,1,.082-.1,10.661,10.661,0,0,0,1.4-2.167,1,1,0,1,1,1.8.878,12.756,12.756,0,0,1-1.143,1.9l1.451,1.451a1,1,0,1,1-1.414,1.414l-1.344-1.344a11.406,11.406,0,0,1-1.9,1.51l.842,1.68a1,1,0,1,1-1.788.9L15.77,18.28a10.213,10.213,0,0,1-2.77.671V21a1,1,0,0,1-2,0V18.951a10.213,10.213,0,0,1-2.77-.671l-.837,1.668a1,1,0,0,1-1.788-.9l.842-1.68a11.411,11.411,0,0,1-1.9-1.51L3.207,17.207a1,1,0,0,1-1.414-1.414l1.451-1.451a12.754,12.754,0,0,1-1.143-1.9,1,1,0,0,1,.46-1.337Z" transform="translate(-1.5 -11)" fill="#fef135" fill-rule="evenodd"/>
</svg>
