<svg id="home" xmlns="http://www.w3.org/2000/svg" width="15.424" height="15.424" viewBox="0 0 15.424 15.424">
  <path id="Path_18" data-name="Path 18" d="M19.31,8.011H13.7a.7.7,0,0,1-.7-.7V1.7a.7.7,0,0,1,.7-.7H19.31a.7.7,0,0,1,.7.7V7.31A.7.7,0,0,1,19.31,8.011ZM14.4,6.609h4.207V2.4H14.4Z" transform="translate(-4.587 -1)" fill="#fff"/>
  <path id="Path_19" data-name="Path 19" d="M16.506,20.011a3.506,3.506,0,1,1,3.506-3.506,3.506,3.506,0,0,1-3.506,3.506Zm0-5.609a2.1,2.1,0,1,0,2.1,2.1A2.1,2.1,0,0,0,16.506,14.4Z" transform="translate(-4.587 -4.587)" fill="#fff"/>
  <path id="Path_20" data-name="Path 20" d="M7.31,13H1.7a.7.7,0,0,0-.7.7V19.31a.7.7,0,0,0,.7.7H7.31a.7.7,0,0,0,.7-.7V13.7A.7.7,0,0,0,7.31,13Zm-.7,5.609H2.4V14.4H6.609Z" transform="translate(-1 -4.587)" fill="#fff"/>
  <path id="Path_21" data-name="Path 21" d="M7.31,8.011H1.7a.7.7,0,0,1-.7-.7V1.7A.7.7,0,0,1,1.7,1H7.31a.7.7,0,0,1,.7.7V7.31A.7.7,0,0,1,7.31,8.011ZM2.4,6.609H6.609V2.4H2.4Z" transform="translate(-1 -1)" fill="#fff"/>
</svg>
