<svg id="instructions" xmlns="http://www.w3.org/2000/svg" width="17.101" height="18.855" viewBox="0 0 17.101 18.855">
  <g id="Group_41" data-name="Group 41" transform="translate(0)">
    <g id="Group_40" data-name="Group 40">
      <path id="Path_25" data-name="Path 25" d="M3.25,2.785A1.535,1.535,0,0,1,4.785,1.25H17.062A1.535,1.535,0,0,1,18.6,2.785V7.344a.658.658,0,1,1-1.315,0V2.785a.219.219,0,0,0-.219-.219H4.785a.219.219,0,0,0-.219.219V18.57a.219.219,0,0,0,.219.219H9.17a.658.658,0,0,1,0,1.315H4.785A1.535,1.535,0,0,1,3.25,18.57Z" transform="translate(-3.25 -1.25)" fill="#fff" fill-rule="evenodd"/>
      <path id="Path_26" data-name="Path 26" d="M7.25,6.908a.658.658,0,0,1,.658-.658h5.7a.658.658,0,0,1,0,1.315h-5.7A.658.658,0,0,1,7.25,6.908Z" transform="translate(-3.742 -1.865)" fill="#fff" fill-rule="evenodd"/>
      <path id="Path_27" data-name="Path 27" d="M7.25,10.408a.658.658,0,0,1,.658-.658H10.1a.658.658,0,0,1,0,1.315H7.908A.658.658,0,0,1,7.25,10.408Z" transform="translate(-3.742 -2.296)" fill="#fff" fill-rule="evenodd"/>
      <path id="Path_28" data-name="Path 28" d="M20.02,16.293a3.727,3.727,0,1,0-3.727,3.727A3.727,3.727,0,0,0,20.02,16.293ZM16.293,11.25a5.043,5.043,0,1,1-5.043,5.043A5.043,5.043,0,0,1,16.293,11.25Z" transform="translate(-4.234 -2.48)" fill="#fff" fill-rule="evenodd"/>
      <path id="Path_29" data-name="Path 29" d="M16.908,17.25a.658.658,0,0,1,.658.658v1.315a.658.658,0,1,1-1.315,0V17.908A.658.658,0,0,1,16.908,17.25Z" transform="translate(-4.849 -3.219)" fill="#fff" fill-rule="evenodd"/>
    </g>
    <path id="Path_30" data-name="Path 30" d="M16.877,15.754A.877.877,0,1,0,16,14.877.877.877,0,0,0,16.877,15.754Z" transform="translate(-4.819 -2.819)" fill="#fff"/>
  </g>
</svg>
