<svg xmlns="http://www.w3.org/2000/svg" width="21.639" height="21.639" viewBox="0 0 21.639 21.639">
  <g id="myTeam" transform="translate(0 0)">
    <g id="Group_83" data-name="Group 83" transform="translate(0 0)">
      <path id="Path_64" data-name="Path 64" d="M19.742,17.258a2.746,2.746,0,1,0-4.482-3.145l-2.541-.789A1.905,1.905,0,0,0,11.453,11.6V8.875H14.2a.634.634,0,0,0,.634-.634V7.4a3.174,3.174,0,0,0-1.9-2.9,2.747,2.747,0,1,0-4.237,0A3.174,3.174,0,0,0,6.8,7.4v.845a.634.634,0,0,0,.634.634h2.747V11.6a1.905,1.905,0,0,0-1.266,1.719l-2.541.789A2.746,2.746,0,1,0,1.9,17.258a3.174,3.174,0,0,0-1.9,2.9V21a.634.634,0,0,0,.634.634H7.4A.634.634,0,0,0,8.03,21v-.845a3.174,3.174,0,0,0-1.9-2.9,2.735,2.735,0,0,0,.629-1.747c0-.063,0-.125-.007-.187L9.3,14.534a1.9,1.9,0,0,0,3.047,0l2.541.789c0,.062-.007.124-.007.187a2.735,2.735,0,0,0,.629,1.747,3.174,3.174,0,0,0-1.9,2.9V21a.634.634,0,0,0,.634.634H21A.634.634,0,0,0,21.639,21v-.845a3.174,3.174,0,0,0-1.9-2.9ZM10.819,1.268A1.479,1.479,0,1,1,9.34,2.747,1.481,1.481,0,0,1,10.819,1.268ZM8.072,7.4a1.9,1.9,0,0,1,1.9-1.9h1.691a1.9,1.9,0,0,1,1.9,1.9v.211H8.072ZM4.015,14.031a1.479,1.479,0,1,1-1.479,1.479A1.481,1.481,0,0,1,4.015,14.031Zm2.747,6.128v.211H1.268v-.211a1.9,1.9,0,0,1,1.9-1.9H4.86A1.9,1.9,0,0,1,6.762,20.159Zm4.057-6.128a.634.634,0,1,1,.634-.634A.635.635,0,0,1,10.819,14.031Zm6.8,0a1.479,1.479,0,1,1-1.479,1.479A1.481,1.481,0,0,1,17.624,14.031Zm2.747,6.339H14.877v-.211a1.9,1.9,0,0,1,1.9-1.9h1.691a1.9,1.9,0,0,1,1.9,1.9Z" transform="translate(0 0)" fill="#fff"/>
    </g>
  </g>
</svg>
