<svg id="PMS" xmlns="http://www.w3.org/2000/svg" width="15.343" height="20.351" viewBox="0 0 15.343 20.351">
  <path id="Path_86" data-name="Path 86" d="M7.51,2.027A2.282,2.282,0,0,0,5.123,0,2.282,2.282,0,0,0,2.737,2.027H0V20.351H15.343V2.027ZM5.123,1.192a1,1,0,0,1,1.038.835H4.085A1,1,0,0,1,5.123,1.192ZM14,19.158H1.346V3.22H2.734V6.628A2.268,2.268,0,0,0,5.123,8.744,2.268,2.268,0,0,0,7.512,6.628V4.372H6.166V6.628a.99.99,0,0,1-1.043.924A.99.99,0,0,1,4.08,6.628V3.22H14Zm0,0" fill="#0c55b8"/>
  <path id="Path_87" data-name="Path 87" d="M70.852,255.408l1.99,1.94-.47,2.74,2.46-1.293,2.46,1.293-.47-2.74,1.99-1.94-2.75-.4-1.23-2.492-1.23,2.492Zm3.981-.2.438.888.98.142-.709.691.167.976-.876-.461-.877.461.168-.976-.709-.691.98-.143Zm0,0" transform="translate(-65.035 -242.479)" fill="#0c55b8"/>
</svg>
