<svg xmlns="http://www.w3.org/2000/svg" width="15.381" height="12.343" viewBox="0 0 15.381 12.343">
  <g id="Group_37417" data-name="Group 37417" transform="translate(0 -3.24)">
    <path id="Path_45855" data-name="Path 45855" d="M13.466,3.24H2.143C1.147,3.24,0,4.125,0,4.978v6.862c0,.786.971,1.353,1.9,1.441l-.606,2.3L5.182,13.3h8.283c1,0,1.916-.6,1.916-1.456V4.978A1.955,1.955,0,0,0,13.466,3.24ZM3.87,9.033A1.023,1.023,0,1,1,4.893,8.01,1.023,1.023,0,0,1,3.87,9.033Zm3.82,0A1.023,1.023,0,1,1,8.714,8.01,1.023,1.023,0,0,1,7.691,9.033Zm3.821,0a1.023,1.023,0,1,1,1.023-1.023,1.023,1.023,0,0,1-1.023,1.023Z" fill="#0c51b0"/>
  </g>
</svg>
