<svg xmlns="http://www.w3.org/2000/svg" width="23.047" height="16.806" viewBox="0 0 23.047 16.806">
  <path id="refresh" d="M18.87-7.118l4.177,4.177H19.9a8.1,8.1,0,0,1-2.457,5.946,8.042,8.042,0,0,1-5.9,2.457A8.113,8.113,0,0,1,7.076,4.135L8.6,2.612a5.968,5.968,0,0,0,2.948.737A6.06,6.06,0,0,0,16,1.506a6.06,6.06,0,0,0,1.843-4.447H14.693ZM5.258-2.941H8.4L4.177,1.236,0-2.941H3.145A8.1,8.1,0,0,1,5.6-8.887a8.1,8.1,0,0,1,5.946-2.457,8.113,8.113,0,0,1,4.472,1.327L14.447-8.494a5.871,5.871,0,0,0-2.9-.737A6.06,6.06,0,0,0,7.1-7.388,6.06,6.06,0,0,0,5.258-2.941Z" transform="translate(0 11.344)" fill="#fff"/>
</svg>
