<svg id="Group_37280" data-name="Group 37280" xmlns="http://www.w3.org/2000/svg" width="197.997" height="197.329" viewBox="0 0 197.997 197.329">
  <g id="Floor" transform="translate(0 187.101)">
    <g id="Group_36193" data-name="Group 36193" transform="translate(0 0)">
      <path id="Path_44553" data-name="Path 44553" d="M227.717,463.564c0,.064-44.327.117-98.994.117-54.686,0-99-.052-99-.117s44.317-.117,99-.117C183.39,463.447,227.717,463.5,227.717,463.564Z" transform="translate(-29.72 -463.447)" fill="#263238"/>
    </g>
  </g>
  <g id="Plant" transform="translate(6.169 92.624)">
    <g id="Group_36199" data-name="Group 36199" transform="translate(0 0)">
      <path id="Path_44554" data-name="Path 44554" d="M123.352,257.8c-4.814,2.494-8.506,6.788-11.16,11.515s-4.366,9.915-6.06,15.066l-1.483,26.562c5.6-9.53,10.1-20.733,11.313-31.721l-3.727-.332a8.918,8.918,0,0,0,5.932-4.34,26.417,26.417,0,0,0,2.693-7.061l-4.548.676A16.855,16.855,0,0,0,123.352,257.8Z" transform="translate(-77.196 -255.596)" fill="#455a64"/>
      <g id="Group_36194" data-name="Group 36194" transform="translate(27.452 2.199)" opacity="0.3">
        <path id="Path_44555" data-name="Path 44555" d="M123.352,257.8c-4.814,2.494-8.506,6.788-11.16,11.515s-4.366,9.915-6.06,15.066l-1.483,26.562c5.6-9.53,10.1-20.733,11.313-31.721l-3.727-.332a8.918,8.918,0,0,0,5.932-4.34,26.417,26.417,0,0,0,2.693-7.061l-4.548.676A16.855,16.855,0,0,0,123.352,257.8Z" transform="translate(-104.648 -257.795)"/>
      </g>
      <path id="Path_44556" data-name="Path 44556" d="M88,314.46s-12.159-14.554-12.018-28.447H80.9s-5.335-3.508-4.913-5.473.563-9.4.563-9.4l4.49,1.123s-3.368-1.684-3.789-4.35.983-15.016.983-15.016,5.473,5.753,7.157,11.648,6.1,12.77,4.806,30.733S88,314.46,88,314.46Z" transform="translate(-61.381 -252.895)" fill="#455a64"/>
      <path id="Path_44557" data-name="Path 44557" d="M116.532,335.3s13.173-8.775,16.1-19.976l-3.949-1.075s5.057-1.653,5.148-3.325,1.6-7.682,1.6-7.682l-3.856-.08s3.076-.617,4-2.669,2.5-12.287,2.5-12.287-5.659,3.429-8.3,7.8-7.7,8.932-10.588,23.657S116.532,335.3,116.532,335.3Z" transform="translate(-83.745 -272.362)" fill="#455a64"/>
      <g id="Group_36195" data-name="Group 36195" transform="translate(20.17 12.689)">
        <path id="Path_44558" data-name="Path 44558" d="M88.421,281.173a.765.765,0,0,1,.044.151c.026.113.062.261.106.448.092.409.221.988.386,1.727s.365,1.669.577,2.739.469,2.287.716,3.639c.521,2.7,1.071,5.924,1.636,9.514.548,3.592,1.1,7.549,1.582,11.714s.847,8.146,1.133,11.769c.268,3.624.469,6.891.577,9.637.068,1.373.1,2.615.134,3.706s.056,2.031.062,2.8.014,1.351.018,1.769c0,.192,0,.345,0,.46a.774.774,0,0,1-.008.157.764.764,0,0,1-.016-.156c-.005-.116-.013-.268-.022-.46-.014-.419-.035-1.011-.061-1.768s-.053-1.707-.1-2.8-.089-2.332-.168-3.7c-.129-2.743-.347-6.007-.627-9.628-.3-3.619-.673-7.595-1.15-11.759s-1.027-8.117-1.563-11.708c-.554-3.588-1.086-6.815-1.586-9.516-.236-1.353-.477-2.572-.682-3.644s-.384-1.994-.538-2.747l-.343-1.736-.083-.453A.778.778,0,0,1,88.421,281.173Z" transform="translate(-88.42 -281.173)" fill="#263238"/>
      </g>
      <path id="Path_44559" data-name="Path 44559" d="M68.405,368.24s-11.127-12.625-14.582-20.257l2.608-1.114a6.76,6.76,0,0,1-5.293-1.735,20.019,20.019,0,0,1-3.6-4.456l3.436-.581a12.773,12.773,0,0,1-7.507-5.815,21.361,21.361,0,0,1,10.745,5.677,53.513,53.513,0,0,1,6.511,7.545,25.68,25.68,0,0,1,2.529,4.157C65.123,355.527,68.412,363.6,68.405,368.24Z" transform="translate(-43.469 -297.763)" fill="#455a64"/>
      <g id="Group_36196" data-name="Group 36196" transform="translate(29.835 23.193)">
        <path id="Path_44560" data-name="Path 44560" d="M129.186,304.584a.624.624,0,0,1-.051.129l-.171.367-.677,1.4c-.6,1.212-1.441,2.975-2.463,5.163s-2.206,4.809-3.474,7.74-2.6,6.18-3.93,9.615-2.517,6.742-3.561,9.76-1.925,5.756-2.637,8.064-1.277,4.179-1.651,5.477c-.188.636-.336,1.135-.442,1.492l-.12.387a.6.6,0,0,1-.049.129.606.606,0,0,1,.026-.136c.026-.1.058-.23.1-.392l.4-1.5c.347-1.306.884-3.186,1.58-5.5s1.568-5.057,2.591-8.085,2.221-6.332,3.548-9.775,2.681-6.684,3.95-9.616,2.476-5.546,3.522-7.725,1.91-3.933,2.532-5.133l.716-1.382.192-.356A.592.592,0,0,1,129.186,304.584Z" transform="translate(-109.959 -304.584)" fill="#263238"/>
      </g>
      <g id="Group_36197" data-name="Group 36197" transform="translate(17.731 54.305)">
        <path id="Path_44561" data-name="Path 44561" d="M91.133,395.5a.96.96,0,0,1-.054-.232c-.029-.179-.066-.4-.109-.67-.085-.582-.231-1.423-.434-2.455s-.486-2.254-.851-3.6-.838-2.8-1.4-4.3-1.189-2.9-1.792-4.154-1.205-2.353-1.738-3.261-.976-1.636-1.3-2.13l-.361-.575a.907.907,0,0,1-.113-.21.932.932,0,0,1,.152.183l.4.551c.345.479.814,1.194,1.363,2.1s1.162,2,1.789,3.25,1.242,2.658,1.817,4.166,1.023,2.978,1.39,4.326.626,2.581.805,3.621.3,1.886.362,2.474c.027.272.048.5.066.676A.9.9,0,0,1,91.133,395.5Z" transform="translate(-82.984 -373.919)" fill="#263238"/>
      </g>
      <rect id="Rectangle_7903" data-name="Rectangle 7903" width="24.353" height="4.968" transform="translate(16.209 72.917)" fill="#005bc3"/>
      <path id="Path_44562" data-name="Path 44562" d="M84.765,426.469,87.4,443.179h14.716l2.455-16.709Z" transform="translate(-66.235 -348.584)" fill="#005bc3"/>
      <g id="Group_36198" data-name="Group 36198" transform="translate(18.491 77.768)">
        <path id="Path_44563" data-name="Path 44563" d="M105.255,426.326c0,.065-4.607.117-10.289.117s-10.289-.052-10.289-.117,4.606-.117,10.289-.117S105.255,426.262,105.255,426.326Z" transform="translate(-84.677 -426.209)" fill="#263238"/>
      </g>
    </g>
  </g>
  <g id="Speech_Bubbles" data-name="Speech Bubbles" transform="translate(46.769 0)">
    <g id="Group_36910" data-name="Group 36910" transform="translate(75.968)">
      <g id="Group_36899" data-name="Group 36899">
        <g id="Group_36898" data-name="Group 36898">
          <g id="Group_36897" data-name="Group 36897">
            <g id="Group_36896" data-name="Group 36896">
              <g id="Group_36895" data-name="Group 36895">
                <g id="Group_36894" data-name="Group 36894">
                  <g id="Group_36893" data-name="Group 36893">
                    <g id="Group_36892" data-name="Group 36892">
                      <g id="Group_36891" data-name="Group 36891">
                        <g id="Group_36890" data-name="Group 36890">
                          <g id="Group_36889" data-name="Group 36889">
                            <g id="Group_36883" data-name="Group 36883" transform="translate(0.05 0.071)">
                              <g id="Group_36882" data-name="Group 36882">
                                <g id="Group_36881" data-name="Group 36881">
                                  <g id="Group_36880" data-name="Group 36880">
                                    <path id="Path_44650" data-name="Path 44650" d="M303.477,69.628l4.081-.239a13.155,13.155,0,1,0-2.818-3.777l0-.006Z" transform="translate(-303.363 -46.632)" fill="#fff"/>
                                  </g>
                                </g>
                              </g>
                            </g>
                            <g id="Group_36888" data-name="Group 36888">
                              <g id="Group_36887" data-name="Group 36887">
                                <g id="Group_36886" data-name="Group 36886">
                                  <g id="Group_36885" data-name="Group 36885">
                                    <g id="Group_36884" data-name="Group 36884">
                                      <path id="Path_44651" data-name="Path 44651" d="M303.416,69.54s.023-.084.074-.255l.231-.766.919-3.01.017-.057.04.044,0,.005-.056.038a13.154,13.154,0,0,1-1.389-6.308,12.882,12.882,0,0,1,.226-2.03,14.451,14.451,0,0,1,.6-2.107,13.114,13.114,0,0,1,6.607-7.287,13.283,13.283,0,0,1,5.512-1.33,13.088,13.088,0,0,1,5.883,1.272,12.95,12.95,0,0,1,4.886,3.975c.16.22.325.436.48.657l.417.695.208.346.175.363.345.725c.106.245.186.5.28.748a6.623,6.623,0,0,1,.249.753,11.967,11.967,0,0,1,.341,1.537,13.072,13.072,0,0,1-3.245,10.983,13.191,13.191,0,0,1-8.889,4.3,14.367,14.367,0,0,1-2.195-.027,17.3,17.3,0,0,1-2.013-.363,13.075,13.075,0,0,1-5.647-3.115l.024.009-3.049.158-.776.038c-.173.008-.258.01-.258.01s.094-.009.271-.022l.784-.053,3.023-.2h.014l.011.01a13.091,13.091,0,0,0,5.628,3.062,17.214,17.214,0,0,0,2,.352,14.368,14.368,0,0,0,2.175.02,13.117,13.117,0,0,0,11.588-9.168,13.255,13.255,0,0,0,.4-5.97,11.81,11.81,0,0,0-.337-1.518,6.338,6.338,0,0,0-.247-.744c-.093-.245-.172-.5-.276-.739l-.341-.716-.173-.358-.205-.342-.412-.687c-.153-.219-.317-.432-.475-.649a12.8,12.8,0,0,0-4.826-3.929,12.956,12.956,0,0,0-5.813-1.262,13.142,13.142,0,0,0-9.591,4.45,13,13,0,0,0-2.418,4.056,14.351,14.351,0,0,0-.6,2.086,12.786,12.786,0,0,0-.232,2.012,13.157,13.157,0,0,0,1.346,6.274l.108.221-.164-.183,0-.005.057-.013-.952,2.976c-.109.337-.192.593-.249.771S303.416,69.54,303.416,69.54Z" transform="translate(-303.252 -46.473)" fill="#263238"/>
                                    </g>
                                  </g>
                                </g>
                              </g>
                            </g>
                          </g>
                        </g>
                      </g>
                    </g>
                  </g>
                </g>
              </g>
            </g>
          </g>
        </g>
      </g>
      <g id="Group_37356" data-name="Group 37356" transform="translate(-62.92 -92.341)">
        <path id="Path_45746" data-name="Path 45746" d="M109.9,130.256a4.551,4.551,0,1,0-6.488,4.105v1.144H107.4s.023-.644.031-1.219A4.548,4.548,0,0,0,109.9,130.256Z" transform="translate(-29.238 -26.369)" fill="#0c51b0"/>
        <path id="Path_45747" data-name="Path 45747" d="M111.235,146.917v-.057a.55.55,0,0,1,.02-.163c.017-.146.043-.358.083-.629s.094-.606.18-.99a6.552,6.552,0,0,1,.415-1.264,4.1,4.1,0,0,1,.372-.681.858.858,0,0,1,.312-.286.472.472,0,0,1,.432,0,.3.3,0,0,1,.143.18.309.309,0,0,1-.017.232.644.644,0,0,1-.352.3,1.241,1.241,0,0,1-.947-.066,1.264,1.264,0,0,1-.641-.758.967.967,0,0,1-.029-.526.406.406,0,0,1,.415-.315.286.286,0,0,1,.232.16.415.415,0,0,1,.037.286.915.915,0,0,1-.32.452,1.347,1.347,0,0,1-1.061.306,1.179,1.179,0,0,1-.878-.655.687.687,0,0,1-.031-.552.332.332,0,0,1,.478-.174.469.469,0,0,1,.195.2.761.761,0,0,1,.069.263,1.367,1.367,0,0,1-.069.518,1.35,1.35,0,0,1-.641.764,1.376,1.376,0,0,1-.941.129.735.735,0,0,1-.412-.217.349.349,0,0,1-.023-.438.3.3,0,0,1,.2-.1.438.438,0,0,1,.217.043.649.649,0,0,1,.286.312c.114.246.206.486.286.715.363.918.621,1.673.8,2.2.086.26.149.466.192.6.02.069.037.12.049.157a.067.067,0,0,1,0,.054.432.432,0,0,1-.02-.051.793.793,0,0,0-.054-.157c-.046-.14-.114-.34-.2-.6-.177-.521-.441-1.273-.81-2.188-.094-.226-.189-.469-.3-.709a.618.618,0,0,0-.26-.286.286.286,0,0,0-.34.426.681.681,0,0,0,.383.2,1.327,1.327,0,0,0,.907-.126,1.3,1.3,0,0,0,.615-.735,1.273,1.273,0,0,0,.066-.5.5.5,0,0,0-.232-.418.3.3,0,0,0-.237-.023.286.286,0,0,0-.166.172.626.626,0,0,0,.029.506,1.127,1.127,0,0,0,.838.624,1.307,1.307,0,0,0,1.016-.286.858.858,0,0,0,.34-.426.372.372,0,0,0-.031-.243.235.235,0,0,0-.189-.132.312.312,0,0,0-.226.072.378.378,0,0,0-.129.2.884.884,0,0,0,.026.495,1.21,1.21,0,0,0,.612.729,1.2,1.2,0,0,0,.907.066.6.6,0,0,0,.326-.286.266.266,0,0,0-.106-.352.426.426,0,0,0-.389-.014.8.8,0,0,0-.286.266,4.323,4.323,0,0,0-.372.669,6.951,6.951,0,0,0-.418,1.259c-.089.38-.146.712-.192.984s-.072.481-.092.626l-.026.163Z" transform="translate(-34.514 -37.781)" fill="#263238"/>
        <path id="Path_45748" data-name="Path 45748" d="M113.59,161.342h-3.433a.255.255,0,0,1-.257-.255h0a.257.257,0,0,1,.257-.257h3.433a.257.257,0,0,1,.257.257h0a.255.255,0,0,1-.257.255Z" transform="translate(-35.737 -51.456)" fill="#263238"/>
        <path id="Path_45749" data-name="Path 45749" d="M113.523,163.406H110.09a.257.257,0,1,0,0,.512h.375l.5.95a.335.335,0,0,0,.286.177h1.221a.332.332,0,0,0,.286-.18l.483-.947h.255a.257.257,0,1,0,0-.512Z" transform="translate(-35.669 -53.295)" fill="#263238"/>
        <g id="Group_37343" data-name="Group 37343" transform="translate(72.077 100.17)" opacity="0.2">
          <path id="Path_45750" data-name="Path 45750" d="M103.72,129.473a3.359,3.359,0,0,1,.91-.6,2.42,2.42,0,0,1,.7-.206c.172-.017.269,0,.286.037.02.083-.326.2-.79.515a3.736,3.736,0,0,0-1.716,3.673c.063.555.192.9.114.935-.031.017-.109-.046-.206-.189a2.454,2.454,0,0,1-.286-.669,3.353,3.353,0,0,1-.126-1.084,3.573,3.573,0,0,1,.32-1.316" transform="translate(-102.607 -128.657)" fill="#fff"/>
        </g>
        <g id="Group_37344" data-name="Group 37344" transform="translate(75.602 99.851)" opacity="0.2">
          <path id="Path_45751" data-name="Path 45751" d="M115.5,128.1c-.286,0-.541-.08-.572-.235a.256.256,0,0,1,.146-.217.858.858,0,0,1,.429-.106.838.838,0,0,1,.429.109c.106.066.157.146.143.22" transform="translate(-114.93 -127.539)" fill="#fff"/>
        </g>
        <path id="Path_45752" data-name="Path 45752" d="M115.981,168.288a1.843,1.843,0,0,1-.237-.072,1.833,1.833,0,0,0-.572-.072,1.877,1.877,0,0,0-.572.106c-.143.049-.226.094-.229.086a.6.6,0,0,1,.215-.123,1.668,1.668,0,0,1,1.184-.034A.807.807,0,0,1,115.981,168.288Z" transform="translate(-38.928 -56.638)" fill="#455a64"/>
        <path id="Path_45753" data-name="Path 45753" d="M115.036,165.179c0,.014-.621.026-1.382.026a13.32,13.32,0,0,1-1.385-.026,12.779,12.779,0,0,1,1.385-.029C114.418,165.15,115.036,165.161,115.036,165.179Z" transform="translate(-37.428 -54.54)" fill="#455a64"/>
        <path id="Path_45754" data-name="Path 45754" d="M115.429,166.66a1.659,1.659,0,0,1-.338.034c-.209.014-.5.026-.815.031s-.609,0-.818,0a1.9,1.9,0,0,1-.338-.026,2.059,2.059,0,0,1,.338-.014h1.631A2.948,2.948,0,0,1,115.429,166.66Z" transform="translate(-38.035 -55.618)" fill="#455a64"/>
      </g>
    </g>
    <g id="freepik--speech-bubble--inject-2" transform="translate(-59.99 -88.756)">
      <circle id="Ellipse_3708" data-name="Ellipse 3708" cx="12.392" cy="12.392" r="12.392" transform="translate(59.845 98.496) rotate(-23.14)" fill="#fafafa"/>
      <circle id="Ellipse_3709" data-name="Ellipse 3709" cx="12.432" cy="12.432" r="12.432" transform="translate(61.186 114.333) rotate(-76.96)" fill="#fff"/>
      <path id="Path_45744" data-name="Path 45744" d="M158.384,167.174a1.7,1.7,0,0,0-.338.154,1.628,1.628,0,0,0-.661.729,1.531,1.531,0,0,0-.152.664,1.376,1.376,0,0,0,.229.735,1.485,1.485,0,0,0,2.735-.506,1.367,1.367,0,0,0-.051-.77,1.574,1.574,0,0,0-.378-.572,1.656,1.656,0,0,0-.881-.443c-.235-.034-.369,0-.372-.023l.1-.02a.68.68,0,0,1,.117,0,1.114,1.114,0,0,1,.163,0,1.659,1.659,0,0,1,1.342,1.018,1.43,1.43,0,0,1,.066.827,1.69,1.69,0,0,1-.421.81,1.49,1.49,0,0,1-1.822.338,1.716,1.716,0,0,1-.687-.606,1.43,1.43,0,0,1-.232-.792,1.593,1.593,0,0,1,.172-.7,1.625,1.625,0,0,1,.715-.732,1.038,1.038,0,0,1,.149-.066.685.685,0,0,1,.114-.034C158.35,167.174,158.384,167.168,158.384,167.174Z" transform="translate(-69.463 -55.946)" fill="#263238"/>
      <path id="Path_45745" data-name="Path 45745" d="M97.767,113.766a1.171,1.171,0,0,0-.026-.2c-.026-.132-.037-.335-.063-.589a4.172,4.172,0,0,0-.046-.435c-.017-.149-.066-.332-.1-.518s-.08-.389-.123-.6a2.745,2.745,0,0,0-.086-.326c-.037-.112-.072-.226-.109-.346a11.914,11.914,0,0,0-1.528-3.244,12.409,12.409,0,0,0-3.318-3.378l-.555-.378c-.195-.114-.4-.217-.6-.329l-.306-.169a2.468,2.468,0,0,0-.315-.154l-.658-.286c-.112-.046-.223-.1-.335-.14l-.352-.109-.709-.223c-.24-.069-.492-.109-.738-.163l-.386-.072a1.467,1.467,0,0,1-.189-.037l-.195-.02a11.424,11.424,0,0,0-1.576-.112h-.81l-.818.08c-.137.017-.286.023-.415.046l-.409.083c-.286.057-.555.1-.83.174a12.342,12.342,0,0,0-1.631.572l-.406.169-.2.086-.195.106-.781.423c-.257.154-.5.332-.752.5-.123.086-.255.16-.372.257l-.352.286a13.992,13.992,0,0,0-1.353,1.259l-.6.724-.152.183c-.046.063-.089.129-.134.195l-.266.392-.266.395-.232.421-.226.421-.114.212c-.034.074-.063.149-.1.223-.126.286-.252.6-.38.893a7.867,7.867,0,0,0-.286.935,12.275,12.275,0,0,0,.36,7.824l.378.9c.154.286.309.572.461.858l.117.212.134.2.269.4.266.4.3.369.306.363.149.183.169.166.661.667a14.049,14.049,0,0,0,1.462,1.13l.378.257c.126.086.263.149.395.226.266.14.526.286.8.423l.818.352.2.086c.069.026.14.046.209.069l.421.132a13,13,0,0,0,1.676.409c.286.043.572.063.838.1l.418.043H85.8c.286,0,.541-.049.807-.069a12.015,12.015,0,0,0,1.562-.255l.189-.037.186-.057.369-.112c.24-.077.486-.14.721-.229l.687-.286.338-.143.32-.169.632-.34a2.239,2.239,0,0,0,.286-.183l.286-.195c.189-.132.383-.252.572-.386l.518-.423a12.364,12.364,0,0,0,3.009-3.664c.086-.154.172-.3.249-.455l.2-.458c.063-.149.126-.286.189-.441.029-.072.063-.143.089-.215l.069-.217c.092-.286.177-.572.263-.824s.114-.521.172-.761c.026-.123.049-.24.074-.355a2.267,2.267,0,0,0,.054-.335q.037-.326.069-.609c.017-.189.046-.363.054-.523s0-.306,0-.438v.438c0,.152-.031.338-.049.526s-.04.395-.063.612a1.764,1.764,0,0,1-.054.338c-.023.114-.046.232-.072.355-.054.24-.094.5-.169.767s-.166.538-.257.827c-.023.072-.043.146-.069.22s-.057.143-.086.215q-.094.217-.189.446c-.066.149-.129.3-.2.461s-.16.3-.246.458a12.429,12.429,0,0,1-3,3.7l-.521.429c-.183.134-.378.257-.572.389l-.286.195a2.022,2.022,0,0,1-.3.186l-.632.343-.323.174-.34.143-.692.286c-.235.092-.483.154-.727.235l-.369.114-.186.054-.195.037a11.24,11.24,0,0,1-1.57.26c-.269.023-.541.06-.815.072H84.537l-.421-.043c-.286-.034-.572-.054-.858-.1a12.8,12.8,0,0,1-1.693-.412l-.421-.132c-.072-.023-.143-.043-.212-.069l-.206-.086-.827-.352c-.286-.132-.532-.286-.8-.429a4.018,4.018,0,0,1-.4-.226l-.38-.26a13.629,13.629,0,0,1-1.476-1.144l-.669-.672-.146-.154-.152-.183-.306-.389-.3-.372-.286-.4-.286-.4-.134-.2-.117-.215-.466-.858c-.129-.3-.255-.606-.383-.913a12.389,12.389,0,0,1-.36-7.9c.1-.318.2-.629.286-.944l.383-.9c.031-.074.063-.152.1-.223l.117-.215.232-.426.235-.423.269-.4.269-.395c.046-.066.089-.134.137-.2l.152-.183.6-.729a13.884,13.884,0,0,1,1.365-1.27l.358-.286c.117-.1.252-.174.375-.263.255-.166.5-.343.758-.5l.821-.426.195-.106c.069-.031.137-.057.206-.086l.406-.172a13.178,13.178,0,0,1,1.648-.572c.286-.069.558-.114.835-.172l.415-.083c.137-.026.286-.031.415-.046l.827-.08c.286-.017.546,0,.815,0a11.63,11.63,0,0,1,1.591.112l.195.023a1.191,1.191,0,0,1,.192.037l.378.08c.252.054.5.1.747.163l.712.226.355.112.335.143.664.286a2.522,2.522,0,0,1,.318.157l.306.169c.2.114.409.22.6.335l.558.38a12.447,12.447,0,0,1,3.327,3.41,11.866,11.866,0,0,1,1.516,3.27c.037.117.072.235.106.346a2.054,2.054,0,0,1,.083.329c.043.217.083.418.117.606s.077.358.1.518.029.306.04.438q.034.386.051.592A1.812,1.812,0,0,1,97.767,113.766Z" transform="translate(-9.217 -9.329)" fill="#263238"/>
      <g id="Group_37355" data-name="Group 37355">
        <path id="Path_45746-2" data-name="Path 45746" d="M109.9,130.256a4.551,4.551,0,1,0-6.488,4.105v1.144H107.4s.023-.644.031-1.219A4.548,4.548,0,0,0,109.9,130.256Z" transform="translate(-29.238 -26.369)" fill="#0c51b0"/>
        <path id="Path_45747-2" data-name="Path 45747" d="M111.235,146.917v-.057a.55.55,0,0,1,.02-.163c.017-.146.043-.358.083-.629s.094-.606.18-.99a6.552,6.552,0,0,1,.415-1.264,4.1,4.1,0,0,1,.372-.681.858.858,0,0,1,.312-.286.472.472,0,0,1,.432,0,.3.3,0,0,1,.143.18.309.309,0,0,1-.017.232.644.644,0,0,1-.352.3,1.241,1.241,0,0,1-.947-.066,1.264,1.264,0,0,1-.641-.758.967.967,0,0,1-.029-.526.406.406,0,0,1,.415-.315.286.286,0,0,1,.232.16.415.415,0,0,1,.037.286.915.915,0,0,1-.32.452,1.347,1.347,0,0,1-1.061.306,1.179,1.179,0,0,1-.878-.655.687.687,0,0,1-.031-.552.332.332,0,0,1,.478-.174.469.469,0,0,1,.195.2.761.761,0,0,1,.069.263,1.367,1.367,0,0,1-.069.518,1.35,1.35,0,0,1-.641.764,1.376,1.376,0,0,1-.941.129.735.735,0,0,1-.412-.217.349.349,0,0,1-.023-.438.3.3,0,0,1,.2-.1.438.438,0,0,1,.217.043.649.649,0,0,1,.286.312c.114.246.206.486.286.715.363.918.621,1.673.8,2.2.086.26.149.466.192.6.02.069.037.12.049.157a.067.067,0,0,1,0,.054.432.432,0,0,1-.02-.051.793.793,0,0,0-.054-.157c-.046-.14-.114-.34-.2-.6-.177-.521-.441-1.273-.81-2.188-.094-.226-.189-.469-.3-.709a.618.618,0,0,0-.26-.286.286.286,0,0,0-.34.426.681.681,0,0,0,.383.2,1.327,1.327,0,0,0,.907-.126,1.3,1.3,0,0,0,.615-.735,1.273,1.273,0,0,0,.066-.5.5.5,0,0,0-.232-.418.3.3,0,0,0-.237-.023.286.286,0,0,0-.166.172.626.626,0,0,0,.029.506,1.127,1.127,0,0,0,.838.624,1.307,1.307,0,0,0,1.016-.286.858.858,0,0,0,.34-.426.372.372,0,0,0-.031-.243.235.235,0,0,0-.189-.132.312.312,0,0,0-.226.072.378.378,0,0,0-.129.2.884.884,0,0,0,.026.495,1.21,1.21,0,0,0,.612.729,1.2,1.2,0,0,0,.907.066.6.6,0,0,0,.326-.286.266.266,0,0,0-.106-.352.426.426,0,0,0-.389-.014.8.8,0,0,0-.286.266,4.323,4.323,0,0,0-.372.669,6.951,6.951,0,0,0-.418,1.259c-.089.38-.146.712-.192.984s-.072.481-.092.626l-.026.163Z" transform="translate(-34.514 -37.781)" fill="#263238"/>
        <path id="Path_45748-2" data-name="Path 45748" d="M113.59,161.342h-3.433a.255.255,0,0,1-.257-.255h0a.257.257,0,0,1,.257-.257h3.433a.257.257,0,0,1,.257.257h0a.255.255,0,0,1-.257.255Z" transform="translate(-35.737 -51.456)" fill="#263238"/>
        <path id="Path_45749-2" data-name="Path 45749" d="M113.523,163.406H110.09a.257.257,0,1,0,0,.512h.375l.5.95a.335.335,0,0,0,.286.177h1.221a.332.332,0,0,0,.286-.18l.483-.947h.255a.257.257,0,1,0,0-.512Z" transform="translate(-35.669 -53.295)" fill="#263238"/>
        <g id="Group_37343-2" data-name="Group 37343" transform="translate(72.077 100.17)" opacity="0.2">
          <path id="Path_45750-2" data-name="Path 45750" d="M103.72,129.473a3.359,3.359,0,0,1,.91-.6,2.42,2.42,0,0,1,.7-.206c.172-.017.269,0,.286.037.02.083-.326.2-.79.515a3.736,3.736,0,0,0-1.716,3.673c.063.555.192.9.114.935-.031.017-.109-.046-.206-.189a2.454,2.454,0,0,1-.286-.669,3.353,3.353,0,0,1-.126-1.084,3.573,3.573,0,0,1,.32-1.316" transform="translate(-102.607 -128.657)" fill="#fff"/>
        </g>
        <g id="Group_37344-2" data-name="Group 37344" transform="translate(75.602 99.851)" opacity="0.2">
          <path id="Path_45751-2" data-name="Path 45751" d="M115.5,128.1c-.286,0-.541-.08-.572-.235a.256.256,0,0,1,.146-.217.858.858,0,0,1,.429-.106.838.838,0,0,1,.429.109c.106.066.157.146.143.22" transform="translate(-114.93 -127.539)" fill="#fff"/>
        </g>
        <path id="Path_45752-2" data-name="Path 45752" d="M115.981,168.288a1.843,1.843,0,0,1-.237-.072,1.833,1.833,0,0,0-.572-.072,1.877,1.877,0,0,0-.572.106c-.143.049-.226.094-.229.086a.6.6,0,0,1,.215-.123,1.668,1.668,0,0,1,1.184-.034A.807.807,0,0,1,115.981,168.288Z" transform="translate(-38.928 -56.638)" fill="#455a64"/>
        <path id="Path_45753-2" data-name="Path 45753" d="M115.036,165.179c0,.014-.621.026-1.382.026a13.32,13.32,0,0,1-1.385-.026,12.779,12.779,0,0,1,1.385-.029C114.418,165.15,115.036,165.161,115.036,165.179Z" transform="translate(-37.428 -54.54)" fill="#455a64"/>
        <path id="Path_45754-2" data-name="Path 45754" d="M115.429,166.66a1.659,1.659,0,0,1-.338.034c-.209.014-.5.026-.815.031s-.609,0-.818,0a1.9,1.9,0,0,1-.338-.026,2.059,2.059,0,0,1,.338-.014h1.631A2.948,2.948,0,0,1,115.429,166.66Z" transform="translate(-38.035 -55.618)" fill="#455a64"/>
      </g>
    </g>
  </g>
  <g id="Character" transform="translate(57.535 5.612)">
    <g id="Group_37279" data-name="Group 37279" transform="translate(0 0)">
      <g id="Group_37078" data-name="Group 37078" transform="translate(25.907 78.173)">
        <g id="Group_37001" data-name="Group 37001" transform="translate(1.135 87.504)">
          <g id="Group_37000" data-name="Group 37000">
            <g id="Group_36922" data-name="Group 36922" transform="translate(0.007)">
              <g id="Group_36921" data-name="Group 36921">
                <g id="Group_36920" data-name="Group 36920">
                  <g id="Group_36919" data-name="Group 36919">
                    <g id="Group_36918" data-name="Group 36918">
                      <g id="Group_36917" data-name="Group 36917">
                        <g id="Group_36916" data-name="Group 36916">
                          <g id="Group_36915" data-name="Group 36915">
                            <g id="Group_36914" data-name="Group 36914">
                              <g id="Group_36913" data-name="Group 36913">
                                <g id="Group_36912" data-name="Group 36912">
                                  <g id="Group_36911" data-name="Group 36911">
                                    <path id="Path_44653" data-name="Path 44653" d="M228.322,428.207l.315,10.223s-10.286,3.753-10.411,5.648l19.843.1.164-15.949Z" transform="translate(-218.225 -428.207)" fill="#263238"/>
                                  </g>
                                </g>
                              </g>
                            </g>
                          </g>
                        </g>
                      </g>
                    </g>
                  </g>
                </g>
              </g>
            </g>
            <g id="Group_36935" data-name="Group 36935" transform="translate(15.586 9.361)">
              <g id="Group_36934" data-name="Group 36934">
                <g id="Group_36933" data-name="Group 36933">
                  <g id="Group_36932" data-name="Group 36932">
                    <g id="Group_36931" data-name="Group 36931">
                      <g id="Group_36930" data-name="Group 36930">
                        <g id="Group_36929" data-name="Group 36929">
                          <g id="Group_36928" data-name="Group 36928">
                            <g id="Group_36927" data-name="Group 36927">
                              <g id="Group_36926" data-name="Group 36926">
                                <g id="Group_36925" data-name="Group 36925">
                                  <g id="Group_36924" data-name="Group 36924">
                                    <g id="Group_36923" data-name="Group 36923">
                                      <path id="Path_44654" data-name="Path 44654" d="M253.917,449.1a.81.81,0,0,1,.556.927.779.779,0,0,1-.915.559.855.855,0,0,1-.583-.985.808.808,0,0,1,1.016-.476" transform="translate(-252.944 -449.068)" fill="#e0e0e0"/>
                                    </g>
                                  </g>
                                </g>
                              </g>
                            </g>
                          </g>
                        </g>
                      </g>
                    </g>
                  </g>
                </g>
              </g>
            </g>
            <g id="Group_36947" data-name="Group 36947" transform="translate(0 14.365)">
              <g id="Group_36946" data-name="Group 36946">
                <g id="Group_36945" data-name="Group 36945">
                  <g id="Group_36944" data-name="Group 36944">
                    <g id="Group_36943" data-name="Group 36943">
                      <g id="Group_36942" data-name="Group 36942">
                        <g id="Group_36941" data-name="Group 36941">
                          <g id="Group_36940" data-name="Group 36940">
                            <g id="Group_36939" data-name="Group 36939">
                              <g id="Group_36938" data-name="Group 36938">
                                <g id="Group_36937" data-name="Group 36937">
                                  <g id="Group_36936" data-name="Group 36936">
                                    <path id="Path_44655" data-name="Path 44655" d="M238.059,461.829l-.047-1.608-19.008.5s-.886.38-.789,1Z" transform="translate(-218.208 -460.221)" fill="#455a64"/>
                                  </g>
                                </g>
                              </g>
                            </g>
                          </g>
                        </g>
                      </g>
                    </g>
                  </g>
                </g>
              </g>
            </g>
            <g id="Group_36960" data-name="Group 36960" transform="translate(10.097 10.032)">
              <g id="Group_36959" data-name="Group 36959">
                <g id="Group_36958" data-name="Group 36958">
                  <g id="Group_36957" data-name="Group 36957">
                    <g id="Group_36956" data-name="Group 36956">
                      <g id="Group_36955" data-name="Group 36955">
                        <g id="Group_36954" data-name="Group 36954">
                          <g id="Group_36953" data-name="Group 36953">
                            <g id="Group_36952" data-name="Group 36952">
                              <g id="Group_36951" data-name="Group 36951">
                                <g id="Group_36950" data-name="Group 36950">
                                  <g id="Group_36949" data-name="Group 36949">
                                    <g id="Group_36948" data-name="Group 36948">
                                      <path id="Path_44656" data-name="Path 44656" d="M240.711,450.653c0,.1.487.144.962.458s.727.722.816.684c.089-.018-.052-.6-.634-.968S240.691,450.564,240.711,450.653Z" transform="translate(-240.711 -450.565)" fill="#fff"/>
                                    </g>
                                  </g>
                                </g>
                              </g>
                            </g>
                          </g>
                        </g>
                      </g>
                    </g>
                  </g>
                </g>
              </g>
            </g>
            <g id="Group_36973" data-name="Group 36973" transform="translate(8.011 10.932)">
              <g id="Group_36972" data-name="Group 36972">
                <g id="Group_36971" data-name="Group 36971">
                  <g id="Group_36970" data-name="Group 36970">
                    <g id="Group_36969" data-name="Group 36969">
                      <g id="Group_36968" data-name="Group 36968">
                        <g id="Group_36967" data-name="Group 36967">
                          <g id="Group_36966" data-name="Group 36966">
                            <g id="Group_36965" data-name="Group 36965">
                              <g id="Group_36964" data-name="Group 36964">
                                <g id="Group_36963" data-name="Group 36963">
                                  <g id="Group_36962" data-name="Group 36962">
                                    <g id="Group_36961" data-name="Group 36961">
                                      <path id="Path_44657" data-name="Path 44657" d="M236.063,452.608c-.023.093.4.261.723.672s.42.845.516.841c.091.016.161-.551-.255-1.055S236.065,452.516,236.063,452.608Z" transform="translate(-236.062 -452.57)" fill="#fff"/>
                                    </g>
                                  </g>
                                </g>
                              </g>
                            </g>
                          </g>
                        </g>
                      </g>
                    </g>
                  </g>
                </g>
              </g>
            </g>
            <g id="Group_36986" data-name="Group 36986" transform="translate(6.05 11.78)">
              <g id="Group_36985" data-name="Group 36985">
                <g id="Group_36984" data-name="Group 36984">
                  <g id="Group_36983" data-name="Group 36983">
                    <g id="Group_36982" data-name="Group 36982">
                      <g id="Group_36981" data-name="Group 36981">
                        <g id="Group_36980" data-name="Group 36980">
                          <g id="Group_36979" data-name="Group 36979">
                            <g id="Group_36978" data-name="Group 36978">
                              <g id="Group_36977" data-name="Group 36977">
                                <g id="Group_36976" data-name="Group 36976">
                                  <g id="Group_36975" data-name="Group 36975">
                                    <g id="Group_36974" data-name="Group 36974">
                                      <path id="Path_44658" data-name="Path 44658" d="M232.458,456.135c.088.021.226-.463-.021-.994s-.7-.746-.739-.665.237.365.433.805S232.362,456.125,232.458,456.135Z" transform="translate(-231.691 -454.459)" fill="#fff"/>
                                    </g>
                                  </g>
                                </g>
                              </g>
                            </g>
                          </g>
                        </g>
                      </g>
                    </g>
                  </g>
                </g>
              </g>
            </g>
            <g id="Group_36999" data-name="Group 36999" transform="translate(10.281 7.439)">
              <g id="Group_36998" data-name="Group 36998">
                <g id="Group_36997" data-name="Group 36997">
                  <g id="Group_36996" data-name="Group 36996">
                    <g id="Group_36995" data-name="Group 36995">
                      <g id="Group_36994" data-name="Group 36994">
                        <g id="Group_36993" data-name="Group 36993">
                          <g id="Group_36992" data-name="Group 36992">
                            <g id="Group_36991" data-name="Group 36991">
                              <g id="Group_36990" data-name="Group 36990">
                                <g id="Group_36989" data-name="Group 36989">
                                  <g id="Group_36988" data-name="Group 36988">
                                    <g id="Group_36987" data-name="Group 36987">
                                      <path id="Path_44659" data-name="Path 44659" d="M241.124,445.129c.04.089.486-.043,1.033,0s.974.215,1.024.132-.358-.43-1-.469S241.077,445.053,241.124,445.129Z" transform="translate(-241.121 -444.786)" fill="#fff"/>
                                    </g>
                                  </g>
                                </g>
                              </g>
                            </g>
                          </g>
                        </g>
                      </g>
                    </g>
                  </g>
                </g>
              </g>
            </g>
          </g>
        </g>
        <g id="Group_37073" data-name="Group 37073" transform="translate(33.639 89.704)">
          <g id="Group_37072" data-name="Group 37072">
            <g id="Group_37008" data-name="Group 37008">
              <g id="Group_37007" data-name="Group 37007">
                <g id="Group_37006" data-name="Group 37006">
                  <g id="Group_37005" data-name="Group 37005">
                    <g id="Group_37004" data-name="Group 37004">
                      <g id="Group_37003" data-name="Group 37003">
                        <g id="Group_37002" data-name="Group 37002">
                          <path id="Path_44660" data-name="Path 44660" d="M291.558,433.112l1.075,12.327-1.962,10a1.268,1.268,0,0,0,1.085,1.5h0a1.261,1.261,0,0,0,1.09-.4c1.768-1.928,8.239-9.054,8.11-9.951-.15-1.04-.27-13.078-.27-13.078Z" transform="translate(-290.647 -433.112)" fill="#263238"/>
                        </g>
                      </g>
                    </g>
                  </g>
                </g>
              </g>
            </g>
            <g id="Group_37015" data-name="Group 37015" transform="translate(1.109 12.642)">
              <g id="Group_37014" data-name="Group 37014">
                <g id="Group_37013" data-name="Group 37013">
                  <g id="Group_37012" data-name="Group 37012">
                    <g id="Group_37011" data-name="Group 37011">
                      <g id="Group_37010" data-name="Group 37010">
                        <g id="Group_37009" data-name="Group 37009">
                          <path id="Path_44661" data-name="Path 44661" d="M293.119,472.468l9.147-11.183.034.524a1.909,1.909,0,0,1-.372,1.264c-.725.972-2.786,3.611-7.68,9a1.267,1.267,0,0,1-1.128.4Z" transform="translate(-293.119 -461.285)" fill="#455a64"/>
                        </g>
                      </g>
                    </g>
                  </g>
                </g>
              </g>
            </g>
            <g id="Group_37023" data-name="Group 37023" transform="translate(7.191 8.675)" opacity="0.6">
              <g id="Group_37022" data-name="Group 37022">
                <g id="Group_37021" data-name="Group 37021">
                  <g id="Group_37020" data-name="Group 37020">
                    <g id="Group_37019" data-name="Group 37019">
                      <g id="Group_37018" data-name="Group 37018">
                        <g id="Group_37017" data-name="Group 37017">
                          <g id="Group_37016" data-name="Group 37016">
                            <path id="Path_44662" data-name="Path 44662" d="M306.948,452.591a.767.767,0,0,0-.146,1.014.738.738,0,0,0,1,.153.809.809,0,0,0,.148-1.074.765.765,0,0,0-1.061-.043" transform="translate(-306.672 -452.446)" fill="#fff"/>
                          </g>
                        </g>
                      </g>
                    </g>
                  </g>
                </g>
              </g>
            </g>
            <g id="Group_37031" data-name="Group 37031" transform="translate(1.001 16.948)">
              <g id="Group_37030" data-name="Group 37030">
                <g id="Group_37029" data-name="Group 37029">
                  <g id="Group_37028" data-name="Group 37028">
                    <g id="Group_37027" data-name="Group 37027">
                      <g id="Group_37026" data-name="Group 37026">
                        <g id="Group_37025" data-name="Group 37025">
                          <g id="Group_37024" data-name="Group 37024">
                            <path id="Path_44663" data-name="Path 44663" d="M295.462,472.183a2.735,2.735,0,0,0-2.583-1.072c-.013-.029.137-.135.424-.195a2.021,2.021,0,0,1,2,.829C295.461,471.99,295.492,472.17,295.462,472.183Z" transform="translate(-292.878 -470.883)" fill="#fff"/>
                          </g>
                        </g>
                      </g>
                    </g>
                  </g>
                </g>
              </g>
            </g>
            <g id="Group_37039" data-name="Group 37039" transform="translate(0.466 19.179)">
              <g id="Group_37038" data-name="Group 37038">
                <g id="Group_37037" data-name="Group 37037">
                  <g id="Group_37036" data-name="Group 37036">
                    <g id="Group_37035" data-name="Group 37035">
                      <g id="Group_37034" data-name="Group 37034">
                        <g id="Group_37033" data-name="Group 37033">
                          <g id="Group_37032" data-name="Group 37032">
                            <path id="Path_44664" data-name="Path 44664" d="M294.031,476.633a3.777,3.777,0,0,0-2.344-.539,1.407,1.407,0,0,1,1.277-.187C293.705,476.073,294.094,476.595,294.031,476.633Z" transform="translate(-291.686 -475.853)" fill="#fff"/>
                          </g>
                        </g>
                      </g>
                    </g>
                  </g>
                </g>
              </g>
            </g>
            <g id="Group_37047" data-name="Group 37047" transform="translate(1.535 14.75)">
              <g id="Group_37046" data-name="Group 37046">
                <g id="Group_37045" data-name="Group 37045">
                  <g id="Group_37044" data-name="Group 37044">
                    <g id="Group_37043" data-name="Group 37043">
                      <g id="Group_37042" data-name="Group 37042">
                        <g id="Group_37041" data-name="Group 37041">
                          <g id="Group_37040" data-name="Group 37040">
                            <path id="Path_44665" data-name="Path 44665" d="M297.619,467.257a6.515,6.515,0,0,0-3.552-1.138,3.465,3.465,0,0,1,3.552,1.138Z" transform="translate(-294.067 -465.984)" fill="#fff"/>
                          </g>
                        </g>
                      </g>
                    </g>
                  </g>
                </g>
              </g>
            </g>
            <g id="Group_37055" data-name="Group 37055" transform="translate(1.842 11.835)">
              <g id="Group_37054" data-name="Group 37054">
                <g id="Group_37053" data-name="Group 37053">
                  <g id="Group_37052" data-name="Group 37052">
                    <g id="Group_37051" data-name="Group 37051">
                      <g id="Group_37050" data-name="Group 37050">
                        <g id="Group_37049" data-name="Group 37049">
                          <g id="Group_37048" data-name="Group 37048">
                            <path id="Path_44666" data-name="Path 44666" d="M297.983,459.9c-.028.076-.729-.166-1.618-.14s-1.58.284-1.611.208a3.146,3.146,0,0,1,3.23-.068Z" transform="translate(-294.752 -459.488)" fill="#fff"/>
                          </g>
                        </g>
                      </g>
                    </g>
                  </g>
                </g>
              </g>
            </g>
            <g id="Group_37063" data-name="Group 37063" transform="translate(1.555 8.148)">
              <g id="Group_37062" data-name="Group 37062">
                <g id="Group_37061" data-name="Group 37061">
                  <g id="Group_37060" data-name="Group 37060">
                    <g id="Group_37059" data-name="Group 37059">
                      <g id="Group_37058" data-name="Group 37058">
                        <g id="Group_37057" data-name="Group 37057">
                          <g id="Group_37056" data-name="Group 37056">
                            <path id="Path_44667" data-name="Path 44667" d="M297.407,451.745a4.029,4.029,0,0,0-3.292.325c-.022-.024.1-.188.377-.371a2.766,2.766,0,0,1,2.472-.245C297.269,451.58,297.423,451.716,297.407,451.745Z" transform="translate(-294.113 -451.271)" fill="#fff"/>
                          </g>
                        </g>
                      </g>
                    </g>
                  </g>
                </g>
              </g>
            </g>
            <g id="Group_37071" data-name="Group 37071" transform="translate(1.098 5.243)">
              <g id="Group_37070" data-name="Group 37070">
                <g id="Group_37069" data-name="Group 37069">
                  <g id="Group_37068" data-name="Group 37068">
                    <g id="Group_37067" data-name="Group 37067">
                      <g id="Group_37066" data-name="Group 37066">
                        <g id="Group_37065" data-name="Group 37065">
                          <g id="Group_37064" data-name="Group 37064">
                            <path id="Path_44668" data-name="Path 44668" d="M295.142,447.293a1.069,1.069,0,0,1-.047-.466,3.248,3.248,0,0,1,.293-1.247,1.445,1.445,0,0,1,.573-.727.51.51,0,0,1,.581.077.828.828,0,0,1,.231.545,1.791,1.791,0,0,1-1.461,1.755,2.078,2.078,0,0,1-2.107-.954.721.721,0,0,1-.072-.6.5.5,0,0,1,.5-.3,1.773,1.773,0,0,1,.841.37,3.633,3.633,0,0,1,.9.906,1.112,1.112,0,0,1,.217.415,5.763,5.763,0,0,0-1.228-1.16,1.648,1.648,0,0,0-.741-.305.265.265,0,0,0-.276.16.5.5,0,0,0,.07.389,1.855,1.855,0,0,0,1.837.806,1.556,1.556,0,0,0,1.262-1.472.6.6,0,0,0-.145-.387.275.275,0,0,0-.32-.047,1.3,1.3,0,0,0-.5.606A4.8,4.8,0,0,0,295.142,447.293Z" transform="translate(-293.094 -444.796)" fill="#fff"/>
                          </g>
                        </g>
                      </g>
                    </g>
                  </g>
                </g>
              </g>
            </g>
          </g>
        </g>
        <g id="Group_37077" data-name="Group 37077">
          <g id="Group_37076" data-name="Group 37076">
            <g id="Group_37075" data-name="Group 37075">
              <g id="Group_37074" data-name="Group 37074">
                <path id="Path_44669" data-name="Path 44669" d="M216.756,235.939a43.939,43.939,0,0,0-.959,12.923c.211,2.746,9.478,78.717,9.478,78.717h12.512l-3.517-71.4,1.024.222s6.83,30.453,7.387,35.384c.5,4.431,6.635,39.266,6.635,39.266l11.8-.131-4.392-44.963-4.252-40.863-1.6-11.895Z" transform="translate(-215.678 -233.197)" fill="#263238"/>
              </g>
            </g>
          </g>
        </g>
      </g>
      <g id="Group_37091" data-name="Group 37091" transform="translate(18.124 29.567)">
        <path id="Path_44670" data-name="Path 44670" d="M221.312,194.072c11.532,3.977,26.685,5.971,34.459-1.688l-2.519-58.054H223.883Z" transform="translate(-211.001 -130.088)" fill="#e0e0e0"/>
        <g id="Group_37079" data-name="Group 37079" transform="translate(23.273 34.449)">
          <path id="Path_44671" data-name="Path 44671" d="M259.425,201.649c.043.048-1.987,1.951-4.534,4.25s-4.648,4.125-4.691,4.077,1.986-1.951,4.534-4.251S259.382,201.6,259.425,201.649Z" transform="translate(-250.199 -201.648)" fill="#263238"/>
        </g>
        <path id="Path_44672" data-name="Path 44672" d="M240.976,210.953s.742-48.753-.239-51.129-4.473,50.422-4.169,50.422Z" transform="translate(-219.402 -144.099)" opacity="0.3"/>
        <path id="Path_44673" data-name="Path 44673" d="M214.768,142.257l-1.488,24.585-1.078,24.7c3.191,2.437,7.533,3.706,12.715,4.119l2.027-49.9v-19.14l-.361-.244-2.477,2.14-.567.06c-.4-.815-1.021-.513-1.021-.513a.823.823,0,0,0-.482-.393,1.084,1.084,0,0,0-.964.393l-.454-.483c-.737-.211-1.157.7-1.157.7-6.475.717-7.352,4.523-8.364,6.938Z" transform="translate(-205.37 -125.701)" fill="#006ae1"/>
        <path id="Path_44674" data-name="Path 44674" d="M209.629,153.6c-.069.207-.62,14.049-.62,14.049a4.128,4.128,0,0,1,.964,3.65c-.551,2.066-1.557,6.831-4.291,7.039-3.834.292-7.416-1.943-7.347-8.83S204,146.081,204,146.081l6.592,4.674Z" transform="translate(-198.334 -136.565)" fill="#006ae1"/>
        <path id="Path_44675" data-name="Path 44675" d="M270.914,124.874a12.792,12.792,0,0,1,2.953,2.568l1.655-.014c.291-.03.6-.363.974-.35.221.007.487.347.73.367.207.018.375-.349.594-.322a12.617,12.617,0,0,1,1.293.487,16.991,16.991,0,0,1,4.882,1.78,9.957,9.957,0,0,1,3.352,4.99s-6.777,7.311-6.3,7.656.215,18.665.215,18.665,2.507,27.927,1.84,28.843-7.4,5-13.731,4.638a113.371,113.371,0,0,1,.321-11.881c.791-12.534.7-17.041.924-21.553.358-7.277-.062-21.009.006-23.288C270.667,135.813,270.757,124.912,270.914,124.874Z" transform="translate(-237.472 -124.874)" fill="#006ae1"/>
        <g id="Group_37080" data-name="Group 37080" transform="translate(41.435 31.202)" opacity="0.3">
          <path id="Path_44676" data-name="Path 44676" d="M292.046,194.41a9.629,9.629,0,0,0,1.559,11.869v-2.845l-1.332-8.367Z" transform="translate(-290.677 -194.41)"/>
        </g>
        <path id="Path_44677" data-name="Path 44677" d="M299.812,146.059s2.369,17.871,3.6,19.52.827,3.978.508,6.244c-.349,2.48-1.591,8.373-6.3,7.968-2.473-.213-3.941-2-4.785-4.672-1.464-4.632.433-10.1.433-11.356s-1.491-10.632-1.317-11.124S299.812,146.059,299.812,146.059Z" transform="translate(-249.937 -136.553)" fill="#006ae1"/>
        <g id="Group_37081" data-name="Group 37081" transform="translate(16.335 2.814)">
          <path id="Path_44678" data-name="Path 44678" d="M239.9,140.974a2.253,2.253,0,0,1-.264-.381,6.521,6.521,0,0,0-.769-1,2.7,2.7,0,0,0-.683-.52,2.6,2.6,0,0,0-.953-.252,3.71,3.71,0,0,0-2.231.5l-.259.154.091-.289c.111-.354.223-.727.333-1.109l1.367-4.909.425-1.486a2.65,2.65,0,0,1,.185-.537,2.64,2.64,0,0,1-.1.56c-.078.357-.2.871-.353,1.5-.312,1.268-.754,3.015-1.3,4.933-.11.383-.223.757-.338,1.115l-.169-.135c1.54-.9,3.417-.556,4.1.369a5.433,5.433,0,0,1,.729,1.059A1.739,1.739,0,0,1,239.9,140.974Z" transform="translate(-234.739 -131.145)" fill="#263238"/>
        </g>
        <g id="Group_37082" data-name="Group 37082" transform="translate(33.272 10.623)" opacity="0.3">
          <path id="Path_44679" data-name="Path 44679" d="M273.954,148.81a3.4,3.4,0,0,1,2.336-.105l.009.037a8.708,8.708,0,0,1,.447,1.827,4.471,4.471,0,0,0-4.263-.376A3.335,3.335,0,0,1,273.954,148.81Z" transform="translate(-272.484 -148.549)"/>
        </g>
        <g id="Group_37083" data-name="Group 37083" transform="translate(33.139 2.568)">
          <path id="Path_44680" data-name="Path 44680" d="M272.189,140.386a1.416,1.416,0,0,1,.236-.371,4.758,4.758,0,0,1,.854-.866,3.425,3.425,0,0,1,.739-.445,2.492,2.492,0,0,1,.992-.186,3.271,3.271,0,0,1,2.162.831l-.189.1c-.072-.508-.166-1.043-.261-1.591l-.937-5.127c-.108-.621-.2-1.142-.271-1.557a2.757,2.757,0,0,1-.07-.577,2.763,2.763,0,0,1,.159.559c.087.363.205.89.344,1.543.278,1.306.648,3.112,1.006,5.118.1.55.187,1.085.257,1.6l.042.309-.231-.209a3.109,3.109,0,0,0-2.011-.8,2.562,2.562,0,0,0-1.642.55A8.887,8.887,0,0,0,272.189,140.386Z" transform="translate(-272.188 -130.597)" fill="#263238"/>
        </g>
        <g id="Group_37084" data-name="Group 37084" transform="translate(7.385 35.042)" opacity="0.3">
          <path id="Path_44681" data-name="Path 44681" d="M220.214,202.992a4.933,4.933,0,0,0-5.359,5.718c.075-.042.506-.21.506-.21l-.13,2.2a6.3,6.3,0,0,0,4.28-2.762A6.066,6.066,0,0,0,220.214,202.992Z" transform="translate(-214.791 -202.969)"/>
        </g>
        <g id="Group_37086" data-name="Group 37086" transform="translate(7.348 28.495)">
          <path id="Path_44682" data-name="Path 44682" d="M214.71,201.661a5.479,5.479,0,0,0,3.621-2.006,8.535,8.535,0,0,0,1.769-3.984,6.535,6.535,0,0,0-.751-4.807,7.049,7.049,0,0,0-3.81-2.482" transform="translate(-214.71 -188.38)" fill="#006ae1"/>
          <g id="Group_37085" data-name="Group 37085">
            <path id="Path_44683" data-name="Path 44683" d="M215.539,188.38a3.671,3.671,0,0,1,.689.208,8.491,8.491,0,0,1,1.778.845,4.965,4.965,0,0,1,1.892,2.22,6.961,6.961,0,0,1,.389,3.552,9.322,9.322,0,0,1-1.107,3.4,6.544,6.544,0,0,1-1.953,2.173,5.079,5.079,0,0,1-1.8.8,3.573,3.573,0,0,1-.53.079.566.566,0,0,1-.188,0c0-.021.254-.044.7-.165a5.387,5.387,0,0,0,1.727-.848,6.56,6.56,0,0,0,1.861-2.144,9.357,9.357,0,0,0,1.063-3.326,6.88,6.88,0,0,0-.356-3.44,4.891,4.891,0,0,0-1.785-2.165,9.734,9.734,0,0,0-1.719-.9A5,5,0,0,1,215.539,188.38Z" transform="translate(-214.71 -188.378)" fill="#263238"/>
          </g>
        </g>
        <g id="Group_37087" data-name="Group 37087" transform="translate(9.221 13.427)">
          <path id="Path_44684" data-name="Path 44684" d="M218.886,154.8a5.435,5.435,0,0,1,.3.839c.181.589.419,1.358.7,2.274l0,.012v.015c.013,1.324.028,2.939.044,4.687.02,2.174.037,4.14.051,5.625,0,.685.009,1.257.011,1.7a3.2,3.2,0,0,1-.023.626,3.193,3.193,0,0,1-.067-.623c-.028-.4-.058-.984-.086-1.7-.056-1.439-.1-3.429-.119-5.627-.015-1.76-.013-3.386,0-4.689l0,.026c-.251-.925-.462-1.7-.623-2.3A5.447,5.447,0,0,1,218.886,154.8Z" transform="translate(-218.884 -154.797)" fill="#263238"/>
        </g>
        <g id="Group_37088" data-name="Group 37088" transform="translate(43.27 13.965)">
          <path id="Path_44685" data-name="Path 44685" d="M296.946,156a4.356,4.356,0,0,1-.4.645l-1.169,1.7.017-.05c.006,1.413-.048,3.289-.151,5.338-.116,2.227-.22,4.24-.3,5.758-.033.7-.061,1.289-.082,1.745a3.4,3.4,0,0,1-.054.64,3.412,3.412,0,0,1-.037-.642c-.007-.413-.006-1.011.008-1.749.026-1.477.119-3.515.231-5.764.1-2.048.179-3.92.208-5.328v-.029l.016-.022,1.232-1.651A4.356,4.356,0,0,1,296.946,156Z" transform="translate(-294.764 -155.995)" fill="#263238"/>
        </g>
        <g id="Group_37089" data-name="Group 37089" transform="translate(42.14 27.977)">
          <path id="Path_44686" data-name="Path 44686" d="M298.759,202.477a4.635,4.635,0,0,1-.757.011,5.674,5.674,0,0,1-2-.54,5.611,5.611,0,0,1-2.213-2.112,12.18,12.18,0,0,1-1.458-7.267,11.3,11.3,0,0,1,.787-2.961,9.056,9.056,0,0,1,1.008-1.8,5.007,5.007,0,0,1,.347-.441c.083-.1.13-.145.136-.14a13.759,13.759,0,0,0-1.339,2.445,11.725,11.725,0,0,0-.726,2.924,12.347,12.347,0,0,0,1.428,7.13,5.556,5.556,0,0,0,2.1,2.077,6.056,6.056,0,0,0,1.929.6A4.725,4.725,0,0,1,298.759,202.477Z" transform="translate(-292.247 -187.224)" fill="#263238"/>
        </g>
        <g id="Group_37090" data-name="Group 37090" transform="translate(16.91 10.37)" opacity="0.3">
          <path id="Path_44687" data-name="Path 44687" d="M238.813,148.246a3.4,3.4,0,0,0-2.336-.105l-.009.037A8.767,8.767,0,0,0,236.02,150a4.515,4.515,0,0,1,4.3-.1A3.147,3.147,0,0,0,238.813,148.246Z" transform="translate(-236.02 -147.985)"/>
        </g>
      </g>
      <g id="Group_37267" data-name="Group 37267" transform="translate(26.964)">
        <g id="Group_37265" data-name="Group 37265">
          <g id="Group_37235" data-name="Group 37235" transform="translate(6.988 3.68)">
            <path id="Path_44688" data-name="Path 44688" d="M243.682,67.181l-.5.021a9.731,9.731,0,0,0-9.324,9.343c-.185,4.714-.328,9.316-.193,11.835.28,5.216,5.637,5.73,5.637,5.73s-.009,1.813-.012,3.346a6.71,6.71,0,0,0,11.122.718l.643-.807.792-19.98C252.086,71.948,249.125,67.274,243.682,67.181Z" transform="translate(-233.608 -67.181)" fill="#ffbf9d"/>
            <g id="Group_37102" data-name="Group 37102" transform="translate(5.69 24.687)">
              <g id="Group_37101" data-name="Group 37101">
                <g id="Group_37100" data-name="Group 37100">
                  <g id="Group_37099" data-name="Group 37099">
                    <g id="Group_37098" data-name="Group 37098">
                      <g id="Group_37097" data-name="Group 37097">
                        <g id="Group_37096" data-name="Group 37096">
                          <g id="Group_37095" data-name="Group 37095">
                            <g id="Group_37094" data-name="Group 37094">
                              <g id="Group_37093" data-name="Group 37093">
                                <g id="Group_37092" data-name="Group 37092">
                                  <path id="Path_44689" data-name="Path 44689" d="M246.289,124.488A12.615,12.615,0,0,0,253,122.2s-1.473,3.991-6.7,3.736Z" transform="translate(-246.289 -122.199)" fill="#ff9a6c"/>
                                </g>
                              </g>
                            </g>
                          </g>
                        </g>
                      </g>
                    </g>
                  </g>
                </g>
              </g>
            </g>
            <g id="Group_37119" data-name="Group 37119" transform="translate(2.649 12.657)">
              <g id="Group_37118" data-name="Group 37118">
                <g id="Group_37117" data-name="Group 37117">
                  <g id="Group_37116" data-name="Group 37116">
                    <g id="Group_37115" data-name="Group 37115">
                      <g id="Group_37114" data-name="Group 37114">
                        <g id="Group_37113" data-name="Group 37113">
                          <g id="Group_37112" data-name="Group 37112">
                            <g id="Group_37111" data-name="Group 37111">
                              <g id="Group_37110" data-name="Group 37110">
                                <g id="Group_37109" data-name="Group 37109">
                                  <g id="Group_37108" data-name="Group 37108">
                                    <g id="Group_37107" data-name="Group 37107">
                                      <g id="Group_37106" data-name="Group 37106">
                                        <g id="Group_37105" data-name="Group 37105">
                                          <g id="Group_37104" data-name="Group 37104">
                                            <g id="Group_37103" data-name="Group 37103">
                                              <path id="Path_44690" data-name="Path 44690" d="M239.511,96.093a.746.746,0,0,0,.75.722.714.714,0,0,0,.74-.7.746.746,0,0,0-.749-.723A.714.714,0,0,0,239.511,96.093Z" transform="translate(-239.511 -95.389)" fill="#263238"/>
                                            </g>
                                          </g>
                                        </g>
                                      </g>
                                    </g>
                                  </g>
                                </g>
                              </g>
                            </g>
                          </g>
                        </g>
                      </g>
                    </g>
                  </g>
                </g>
              </g>
            </g>
            <g id="Group_37137" data-name="Group 37137" transform="translate(1.438 10.775)">
              <g id="Group_37136" data-name="Group 37136">
                <g id="Group_37135" data-name="Group 37135">
                  <g id="Group_37134" data-name="Group 37134">
                    <g id="Group_37133" data-name="Group 37133">
                      <g id="Group_37132" data-name="Group 37132">
                        <g id="Group_37131" data-name="Group 37131">
                          <g id="Group_37130" data-name="Group 37130">
                            <g id="Group_37129" data-name="Group 37129">
                              <g id="Group_37128" data-name="Group 37128">
                                <g id="Group_37127" data-name="Group 37127">
                                  <g id="Group_37126" data-name="Group 37126">
                                    <g id="Group_37125" data-name="Group 37125">
                                      <g id="Group_37124" data-name="Group 37124">
                                        <g id="Group_37123" data-name="Group 37123">
                                          <g id="Group_37122" data-name="Group 37122">
                                            <g id="Group_37121" data-name="Group 37121">
                                              <g id="Group_37120" data-name="Group 37120">
                                                <path id="Path_44691" data-name="Path 44691" d="M236.826,92.038c.1.093.643-.348,1.446-.379s1.406.346,1.489.244c.041-.045-.061-.217-.324-.393a2.048,2.048,0,0,0-1.2-.315,1.968,1.968,0,0,0-1.146.423C236.855,91.818,236.779,92,236.826,92.038Z" transform="translate(-236.813 -91.193)" fill="#263238"/>
                                              </g>
                                            </g>
                                          </g>
                                        </g>
                                      </g>
                                    </g>
                                  </g>
                                </g>
                              </g>
                            </g>
                          </g>
                        </g>
                      </g>
                    </g>
                  </g>
                </g>
              </g>
            </g>
            <g id="Group_37154" data-name="Group 37154" transform="translate(10.041 12.568)">
              <g id="Group_37153" data-name="Group 37153">
                <g id="Group_37152" data-name="Group 37152">
                  <g id="Group_37151" data-name="Group 37151">
                    <g id="Group_37150" data-name="Group 37150">
                      <g id="Group_37149" data-name="Group 37149">
                        <g id="Group_37148" data-name="Group 37148">
                          <g id="Group_37147" data-name="Group 37147">
                            <g id="Group_37146" data-name="Group 37146">
                              <g id="Group_37145" data-name="Group 37145">
                                <g id="Group_37144" data-name="Group 37144">
                                  <g id="Group_37143" data-name="Group 37143">
                                    <g id="Group_37142" data-name="Group 37142">
                                      <g id="Group_37141" data-name="Group 37141">
                                        <g id="Group_37140" data-name="Group 37140">
                                          <g id="Group_37139" data-name="Group 37139">
                                            <g id="Group_37138" data-name="Group 37138">
                                              <path id="Path_44692" data-name="Path 44692" d="M255.985,95.9a.746.746,0,0,0,.75.722.713.713,0,0,0,.74-.7.746.746,0,0,0-.749-.723A.715.715,0,0,0,255.985,95.9Z" transform="translate(-255.985 -95.191)" fill="#263238"/>
                                            </g>
                                          </g>
                                        </g>
                                      </g>
                                    </g>
                                  </g>
                                </g>
                              </g>
                            </g>
                          </g>
                        </g>
                      </g>
                    </g>
                  </g>
                </g>
              </g>
            </g>
            <g id="Group_37172" data-name="Group 37172" transform="translate(9.307 10.636)">
              <g id="Group_37171" data-name="Group 37171">
                <g id="Group_37170" data-name="Group 37170">
                  <g id="Group_37169" data-name="Group 37169">
                    <g id="Group_37168" data-name="Group 37168">
                      <g id="Group_37167" data-name="Group 37167">
                        <g id="Group_37166" data-name="Group 37166">
                          <g id="Group_37165" data-name="Group 37165">
                            <g id="Group_37164" data-name="Group 37164">
                              <g id="Group_37163" data-name="Group 37163">
                                <g id="Group_37162" data-name="Group 37162">
                                  <g id="Group_37161" data-name="Group 37161">
                                    <g id="Group_37160" data-name="Group 37160">
                                      <g id="Group_37159" data-name="Group 37159">
                                        <g id="Group_37158" data-name="Group 37158">
                                          <g id="Group_37157" data-name="Group 37157">
                                            <g id="Group_37156" data-name="Group 37156">
                                              <g id="Group_37155" data-name="Group 37155">
                                                <path id="Path_44693" data-name="Path 44693" d="M254.364,91.729c.1.093.645-.348,1.446-.379s1.406.346,1.489.244c.041-.045-.06-.216-.325-.393a2.043,2.043,0,0,0-1.2-.315,1.967,1.967,0,0,0-1.146.423C254.393,91.509,254.317,91.688,254.364,91.729Z" transform="translate(-254.351 -90.884)" fill="#263238"/>
                                              </g>
                                            </g>
                                          </g>
                                        </g>
                                      </g>
                                    </g>
                                  </g>
                                </g>
                              </g>
                            </g>
                          </g>
                        </g>
                      </g>
                    </g>
                  </g>
                </g>
              </g>
            </g>
            <g id="Group_37189" data-name="Group 37189" transform="translate(4.63 11.065)">
              <g id="Group_37188" data-name="Group 37188">
                <g id="Group_37187" data-name="Group 37187">
                  <g id="Group_37186" data-name="Group 37186">
                    <g id="Group_37185" data-name="Group 37185">
                      <g id="Group_37184" data-name="Group 37184">
                        <g id="Group_37183" data-name="Group 37183">
                          <g id="Group_37182" data-name="Group 37182">
                            <g id="Group_37181" data-name="Group 37181">
                              <g id="Group_37180" data-name="Group 37180">
                                <g id="Group_37179" data-name="Group 37179">
                                  <g id="Group_37178" data-name="Group 37178">
                                    <g id="Group_37177" data-name="Group 37177">
                                      <g id="Group_37176" data-name="Group 37176">
                                        <g id="Group_37175" data-name="Group 37175">
                                          <g id="Group_37174" data-name="Group 37174">
                                            <g id="Group_37173" data-name="Group 37173">
                                              <path id="Path_44694" data-name="Path 44694" d="M246,98.538a5.332,5.332,0,0,0-1.312-.181c-.205-.013-.4-.045-.442-.184a1.045,1.045,0,0,1,.112-.612l.541-1.584a26.818,26.818,0,0,0,1.192-4.135,26.912,26.912,0,0,0-1.522,4.029q-.27.834-.516,1.593a1.185,1.185,0,0,0-.073.808.513.513,0,0,0,.349.285,1.393,1.393,0,0,0,.35.034A5.2,5.2,0,0,0,246,98.538Z" transform="translate(-243.927 -91.84)" fill="#263238"/>
                                            </g>
                                          </g>
                                        </g>
                                      </g>
                                    </g>
                                  </g>
                                </g>
                              </g>
                            </g>
                          </g>
                        </g>
                      </g>
                    </g>
                  </g>
                </g>
              </g>
            </g>
            <g id="Group_37202" data-name="Group 37202" transform="translate(9.52 6.829)">
              <g id="Group_37201" data-name="Group 37201">
                <g id="Group_37200" data-name="Group 37200">
                  <g id="Group_37199" data-name="Group 37199">
                    <g id="Group_37198" data-name="Group 37198">
                      <g id="Group_37197" data-name="Group 37197">
                        <g id="Group_37196" data-name="Group 37196">
                          <g id="Group_37195" data-name="Group 37195">
                            <g id="Group_37194" data-name="Group 37194">
                              <g id="Group_37193" data-name="Group 37193">
                                <g id="Group_37192" data-name="Group 37192">
                                  <g id="Group_37191" data-name="Group 37191">
                                    <g id="Group_37190" data-name="Group 37190">
                                      <path id="Path_44695" data-name="Path 44695" d="M254.83,83.065c.088.214.884.079,1.83.155.947.057,1.717.3,1.834.1.052-.1-.088-.3-.4-.495a3.194,3.194,0,0,0-2.791-.2C254.959,82.784,254.792,82.963,254.83,83.065Z" transform="translate(-254.825 -82.399)" fill="#263238"/>
                                    </g>
                                  </g>
                                </g>
                              </g>
                            </g>
                          </g>
                        </g>
                      </g>
                    </g>
                  </g>
                </g>
              </g>
            </g>
            <g id="Group_37215" data-name="Group 37215" transform="translate(1.707 7.019)">
              <g id="Group_37214" data-name="Group 37214">
                <g id="Group_37213" data-name="Group 37213">
                  <g id="Group_37212" data-name="Group 37212">
                    <g id="Group_37211" data-name="Group 37211">
                      <g id="Group_37210" data-name="Group 37210">
                        <g id="Group_37209" data-name="Group 37209">
                          <g id="Group_37208" data-name="Group 37208">
                            <g id="Group_37207" data-name="Group 37207">
                              <g id="Group_37206" data-name="Group 37206">
                                <g id="Group_37205" data-name="Group 37205">
                                  <g id="Group_37204" data-name="Group 37204">
                                    <g id="Group_37203" data-name="Group 37203">
                                      <path id="Path_44696" data-name="Path 44696" d="M237.439,83.723c.174.175.819-.039,1.6-.08.783-.063,1.455.065,1.6-.132.063-.1-.049-.273-.346-.434a2.53,2.53,0,0,0-1.317-.246,2.491,2.491,0,0,0-1.266.417C237.446,83.446,237.362,83.637,237.439,83.723Z" transform="translate(-237.412 -82.824)" fill="#263238"/>
                                    </g>
                                  </g>
                                </g>
                              </g>
                            </g>
                          </g>
                        </g>
                      </g>
                    </g>
                  </g>
                </g>
              </g>
            </g>
            <g id="Group_37224" data-name="Group 37224" transform="translate(17.69 13.872)">
              <g id="Group_37223" data-name="Group 37223">
                <g id="Group_37222" data-name="Group 37222">
                  <g id="Group_37221" data-name="Group 37221">
                    <g id="Group_37220" data-name="Group 37220">
                      <g id="Group_37219" data-name="Group 37219">
                        <g id="Group_37218" data-name="Group 37218">
                          <g id="Group_37217" data-name="Group 37217">
                            <g id="Group_37216" data-name="Group 37216">
                              <path id="Path_44697" data-name="Path 44697" d="M273.31,98.312c.087-.042,3.542-1.209,3.575,2.364s-3.847,2.993-3.854,2.89S273.31,98.312,273.31,98.312Z" transform="translate(-273.032 -98.097)" fill="#ffbf9d"/>
                            </g>
                          </g>
                        </g>
                      </g>
                    </g>
                  </g>
                </g>
              </g>
            </g>
            <g id="Group_37234" data-name="Group 37234" transform="translate(19.052 15.022)">
              <g id="Group_37233" data-name="Group 37233">
                <g id="Group_37232" data-name="Group 37232">
                  <g id="Group_37231" data-name="Group 37231">
                    <g id="Group_37230" data-name="Group 37230">
                      <g id="Group_37229" data-name="Group 37229">
                        <g id="Group_37228" data-name="Group 37228">
                          <g id="Group_37227" data-name="Group 37227">
                            <g id="Group_37226" data-name="Group 37226">
                              <g id="Group_37225" data-name="Group 37225">
                                <path id="Path_44698" data-name="Path 44698" d="M276.071,103.491c.015-.012.062.043.168.09a.624.624,0,0,0,.465,0,1.539,1.539,0,0,0,.7-1.388,2.058,2.058,0,0,0-.183-.889.72.72,0,0,0-.473-.473.316.316,0,0,0-.366.174c-.047.1-.024.171-.043.178s-.077-.059-.05-.207a.4.4,0,0,1,.139-.225.47.47,0,0,1,.343-.094.875.875,0,0,1,.655.548,2.113,2.113,0,0,1,.225.994,1.616,1.616,0,0,1-.893,1.551.667.667,0,0,1-.57-.089C276.078,103.577,276.058,103.5,276.071,103.491Z" transform="translate(-276.068 -100.658)" fill="#ff9a6c"/>
                              </g>
                            </g>
                          </g>
                        </g>
                      </g>
                    </g>
                  </g>
                </g>
              </g>
            </g>
          </g>
          <g id="Group_37264" data-name="Group 37264">
            <g id="Group_37242" data-name="Group 37242">
              <g id="Group_37241" data-name="Group 37241">
                <g id="Group_37240" data-name="Group 37240">
                  <g id="Group_37239" data-name="Group 37239">
                    <g id="Group_37238" data-name="Group 37238">
                      <g id="Group_37237" data-name="Group 37237">
                        <g id="Group_37236" data-name="Group 37236">
                          <path id="Path_44699" data-name="Path 44699" d="M218.059,67.321a.849.849,0,0,1,.392-.5,2.6,2.6,0,0,1,1.334-.232,7.521,7.521,0,0,0,3.26-.858,3.712,3.712,0,0,1-.969-.664,2.242,2.242,0,0,1-.671-2.222.5.5,0,0,1,.276-.345c.232-.074.437.152.6.331a1.931,1.931,0,0,0,1.826.749,3.165,3.165,0,0,0,1.353-.417c.015-.016.029-.034.044-.05.184-.194.363-.379.539-.558v0h0a11.822,11.822,0,0,1,3.659-2.778,12.143,12.143,0,0,1,6.474-.583,4.905,4.905,0,0,1,3.748,3.774,3.773,3.773,0,0,1,3.789-.4l.031-.014a4.743,4.743,0,0,1,2.616,3.336c.023.077.044.155.066.232a5.483,5.483,0,0,0,1.882,1.8c.135.076.289.17.307.324s-.109.28-.233.371a2.755,2.755,0,0,1-1.114.478,6.258,6.258,0,0,0,.47.967c.159.263.348.577.215.854a.583.583,0,0,1-.608.273,1.712,1.712,0,0,1-.647-.284l.476,1.1a3.271,3.271,0,0,1-1.506-.083c-.279,1.323-.472,3.768-.8,4.666a5.432,5.432,0,0,0-1.657.091c-.616.213-.368,1.3-1.176,1-.412-.154-1.059-1.7-1.2-2.116a20.4,20.4,0,0,1-.981-8.625,6.568,6.568,0,0,0-2.042-1.438l.063.055c-1.466-.491-3.125-.971-4.5-.27-1.069.544-1.688,1.667-2.482,2.566A7.481,7.481,0,0,1,225.4,70.6c-.187,1.579-.219,4.16-.279,5.632l-1.29-2.932v.012c-.1-.171-.189-.345-.272-.518l-.029-.053v-.006a9.2,9.2,0,0,0-.423-.833l-.014.013a.919.919,0,0,1-1.358-1.214,2.068,2.068,0,0,1,.44-.452,1.456,1.456,0,0,1-1.382.375,1.141,1.141,0,0,1-.82-1.12.972.972,0,0,1,.569-.785,3.278,3.278,0,0,1-1.869-.389C218.3,68.127,217.939,67.785,218.059,67.321Z" transform="translate(-218.036 -58.981)" fill="#263238"/>
                        </g>
                      </g>
                    </g>
                  </g>
                </g>
              </g>
            </g>
            <g id="Group_37249" data-name="Group 37249" transform="translate(20.253 4.605)">
              <g id="Group_37248" data-name="Group 37248">
                <g id="Group_37247" data-name="Group 37247">
                  <g id="Group_37246" data-name="Group 37246">
                    <g id="Group_37245" data-name="Group 37245">
                      <g id="Group_37244" data-name="Group 37244">
                        <g id="Group_37243" data-name="Group 37243">
                          <path id="Path_44700" data-name="Path 44700" d="M263.171,69.244a4.494,4.494,0,0,1,.53.474,3.747,3.747,0,0,1,.822,1.727,6.621,6.621,0,0,1,.148,1.327c.008.481-.025,1-.056,1.541a13.811,13.811,0,0,0-.019,1.715,6.039,6.039,0,0,0,.128.9,1.888,1.888,0,0,0,.379.873.788.788,0,0,0,.74.24,1.17,1.17,0,0,0,.66-.383,2.707,2.707,0,0,0,.489-1.335l-.109.014a4.364,4.364,0,0,0,.648,1.088,1.559,1.559,0,0,0,1.024.542,1.006,1.006,0,0,0,.538-.1.871.871,0,0,0,.362-.365.894.894,0,0,0,.106-.464.651.651,0,0,0-.173-.4l-.055.05a3.369,3.369,0,0,0,1.133.83,3.05,3.05,0,0,0,.35.131.6.6,0,0,0,.125.029.631.631,0,0,0-.118-.049c-.078-.031-.194-.076-.339-.148a3.475,3.475,0,0,1-1.094-.843l-.055.05a.67.67,0,0,1,.044.776.777.777,0,0,1-.328.323.908.908,0,0,1-.488.085,1.46,1.46,0,0,1-.95-.516,4.308,4.308,0,0,1-.625-1.065l-.077-.167-.033.182a2.618,2.618,0,0,1-.465,1.275,1.055,1.055,0,0,1-.59.342.666.666,0,0,1-.63-.2,1.788,1.788,0,0,1-.35-.817,5.987,5.987,0,0,1-.127-.884,13.989,13.989,0,0,1,.013-1.7c.028-.544.057-1.062.045-1.55a6.551,6.551,0,0,0-.166-1.344,3.691,3.691,0,0,0-.871-1.74A2.122,2.122,0,0,0,263.171,69.244Z" transform="translate(-263.17 -69.244)" fill="#455a64"/>
                        </g>
                      </g>
                    </g>
                  </g>
                </g>
              </g>
            </g>
            <g id="Group_37256" data-name="Group 37256" transform="translate(4.136 1.704)">
              <g id="Group_37255" data-name="Group 37255">
                <g id="Group_37254" data-name="Group 37254">
                  <g id="Group_37253" data-name="Group 37253">
                    <g id="Group_37252" data-name="Group 37252">
                      <g id="Group_37251" data-name="Group 37251">
                        <g id="Group_37250" data-name="Group 37250">
                          <path id="Path_44701" data-name="Path 44701" d="M227.253,70.951a.192.192,0,0,0,.042.035l.132.094a1.724,1.724,0,0,0,.223.14,2.8,2.8,0,0,0,.32.164,4.639,4.639,0,0,0,2.243.377,5.928,5.928,0,0,0,3.142-1.2A10.257,10.257,0,0,0,236.03,67.4c.373-.637.676-1.29,1.01-1.893a6.945,6.945,0,0,1,1.151-1.605,3.569,3.569,0,0,1,1.5-.932,2.557,2.557,0,0,1,.793-.1,2.811,2.811,0,0,1,.729.131,3.028,3.028,0,0,1,1.7,1.4,3.622,3.622,0,0,1,.279.781.174.174,0,0,0,0-.055c-.007-.044-.016-.1-.026-.16a2.646,2.646,0,0,0-.205-.588,2.986,2.986,0,0,0-.595-.787,3.07,3.07,0,0,0-1.117-.676,2.877,2.877,0,0,0-.753-.144,2.634,2.634,0,0,0-.826.1,3.656,3.656,0,0,0-1.547.949,6.974,6.974,0,0,0-1.176,1.627c-.339.608-.642,1.259-1.012,1.89a10.255,10.255,0,0,1-2.637,3.126,5.889,5.889,0,0,1-3.081,1.206,4.71,4.71,0,0,1-2.217-.335A7.49,7.49,0,0,1,227.253,70.951Z" transform="translate(-227.253 -62.778)" fill="#455a64"/>
                        </g>
                      </g>
                    </g>
                  </g>
                </g>
              </g>
            </g>
            <g id="Group_37263" data-name="Group 37263" transform="translate(3.634 7.583)">
              <g id="Group_37262" data-name="Group 37262">
                <g id="Group_37261" data-name="Group 37261">
                  <g id="Group_37260" data-name="Group 37260">
                    <g id="Group_37259" data-name="Group 37259">
                      <g id="Group_37258" data-name="Group 37258">
                        <g id="Group_37257" data-name="Group 37257">
                          <path id="Path_44702" data-name="Path 44702" d="M226.134,75.881a.81.81,0,0,0,.189.129,4.033,4.033,0,0,0,.559.276,5.38,5.38,0,0,0,.882.279,6.152,6.152,0,0,0,1.126.136,6.216,6.216,0,0,0,1.131-.09,5.416,5.416,0,0,0,.893-.242,4.045,4.045,0,0,0,.569-.253.836.836,0,0,0,.194-.12c-.01-.021-.3.131-.792.291A6.122,6.122,0,0,1,230,76.5a6.094,6.094,0,0,1-2.214-.046,6.2,6.2,0,0,1-.875-.249C226.425,76.025,226.145,75.861,226.134,75.881Z" transform="translate(-226.134 -75.879)" fill="#455a64"/>
                        </g>
                      </g>
                    </g>
                  </g>
                </g>
              </g>
            </g>
          </g>
        </g>
        <g id="Group_37266" data-name="Group 37266" transform="translate(13.102 22.755)">
          <path id="Path_44703" data-name="Path 44703" d="M250.744,110.274c-.039.026-.1-.225-.384-.346a1.02,1.02,0,0,0-.552,0c-.224.035-.47.079-.726.133-1.026.217-1.818.548-1.846.486a4.326,4.326,0,0,1,1.8-.714,6.853,6.853,0,0,1,.748-.118,1.077,1.077,0,0,1,.648.068.624.624,0,0,1,.294.337C250.758,110.212,250.757,110.269,250.744,110.274Z" transform="translate(-247.235 -109.691)" fill="#263238"/>
        </g>
      </g>
      <g id="Group_37273" data-name="Group 37273" transform="translate(0 37.289)">
        <path id="Path_44704" data-name="Path 44704" d="M178.7,154.031a5.108,5.108,0,0,1,.968,1.885c.153.866,2.092,12.12,2.6,13.683.632,1.954,1.937,5.933,7.131,4.44,3.6-1.033,3.718-6.509,1.273-9.514s-6.52-11.614-6.826-12.735-3.209-4.5-6.571-5.384-5.043-.916-6.265-2.529-2.751-2.428-3.464-1.205,3.464,4.891,3.464,4.891l5.858,5.6Z" transform="translate(-163.192 -142.082)" fill="#ffbf9d"/>
        <path id="Path_44705" data-name="Path 44705" d="M162.216,149.114s-2.587-3.163-4.273-1.833c0,0,2.188,2.926,2.927,3.725a7.506,7.506,0,0,0,2.66,1.36s1.922,2.217,2.957,2.513a2.606,2.606,0,0,0,1.685,0s.03.5,1.655.739a38.617,38.617,0,0,0,5.942-.207l2.665-2.233s-1.334-2.231-3.374-2.29a5.26,5.26,0,0,0-3.548,1.508l-1.774-.03-1.094-1.419s.209-3.728-2.01-3.311c0,0-.079-1.194-1.025-1.312a1.147,1.147,0,0,0-1.21.858s.2-1.468-.6-1.763a1.022,1.022,0,0,0-1.419.473A16,16,0,0,0,162.216,149.114Z" transform="translate(-157.943 -143.861)" fill="#ffbf9d"/>
        <g id="Group_37268" data-name="Group 37268" transform="translate(8.507 3.775)">
          <path id="Path_44706" data-name="Path 44706" d="M178.831,157.736a4.71,4.71,0,0,1-.743-.864c-.212-.281-.46-.619-.713-1.014a1.944,1.944,0,0,1-.308-.693,5.979,5.979,0,0,1-.116-.788,19.984,19.984,0,0,1,0-2.752,4.81,4.81,0,0,1,.136-1.131,6.437,6.437,0,0,1,.029,1.137c0,.7-.016,1.669.068,2.726a6.28,6.28,0,0,0,.106.757,1.765,1.765,0,0,0,.269.631c.237.394.47.739.663,1.031A6.686,6.686,0,0,1,178.831,157.736Z" transform="translate(-176.903 -150.494)" fill="#ff9a6c"/>
        </g>
        <g id="Group_37269" data-name="Group 37269" transform="translate(6.014 3.32)">
          <path id="Path_44707" data-name="Path 44707" d="M171.789,155.595a1.635,1.635,0,0,1-.327-.853,9.956,9.956,0,0,1-.1-2.2,12.332,12.332,0,0,1,.426-3.064c.064.01-.108,1.38-.193,3.075a14.451,14.451,0,0,0,.031,2.16C171.678,155.266,171.823,155.576,171.789,155.595Z" transform="translate(-171.345 -149.482)" fill="#ff9a6c"/>
        </g>
        <g id="Group_37270" data-name="Group 37270" transform="translate(4.199 2.75)">
          <path id="Path_44708" data-name="Path 44708" d="M168.828,154.122a3.07,3.07,0,0,1-.68-.643c-.1-.108-.2-.228-.307-.361a1.806,1.806,0,0,1-.309-.481,6.156,6.156,0,0,1-.184-1.246c-.058-.88-.052-1.675-.037-2.251a3.462,3.462,0,0,1,.085-.93c.07,0,.08,1.423.186,3.164a7.159,7.159,0,0,0,.155,1.2A1.8,1.8,0,0,0,168,153l.28.372A4.751,4.751,0,0,1,168.828,154.122Z" transform="translate(-167.3 -148.211)" fill="#ff9a6c"/>
        </g>
        <g id="Group_37271" data-name="Group 37271" transform="translate(4.372 1.497)">
          <path id="Path_44709" data-name="Path 44709" d="M176.884,152.456a2.035,2.035,0,0,1-.471.033l-1.3.013h-.035l-.024-.03a7.525,7.525,0,0,1-1.159-1.579l-.01-.022v-.024a6.1,6.1,0,0,0-.144-1.686,2.313,2.313,0,0,0-.395-.8,1.093,1.093,0,0,0-.744-.456,1.59,1.59,0,0,0-.581.045l-.136.034-.009-.14a1.675,1.675,0,0,0-.219-.792,1.1,1.1,0,0,0-.6-.463.751.751,0,0,0-.672.108,1.46,1.46,0,0,0-.48.5l-.168.292-.018-.334a2.133,2.133,0,0,0-.324-1.3,1.059,1.059,0,0,0-.937-.295,1.12,1.12,0,0,0-.6.285c-.114.109-.156.186-.168.179a.46.46,0,0,1,.124-.22,1.109,1.109,0,0,1,.623-.357,1.172,1.172,0,0,1,1.076.3,2.232,2.232,0,0,1,.4,1.394l-.185-.042a1.644,1.644,0,0,1,.539-.582.967.967,0,0,1,.857-.139,1.326,1.326,0,0,1,.721.551,1.884,1.884,0,0,1,.258.9l-.145-.106a1.791,1.791,0,0,1,.668-.051,1.324,1.324,0,0,1,.9.545,2.513,2.513,0,0,1,.43.887,6.084,6.084,0,0,1,.13,1.75l-.01-.046a7.972,7.972,0,0,0,1.1,1.575l-.058-.03,1.3.057A2.048,2.048,0,0,1,176.884,152.456Z" transform="translate(-167.687 -145.419)" fill="#ff9a6c"/>
        </g>
        <g id="Group_37272" data-name="Group 37272" transform="translate(13.975 6.821)">
          <path id="Path_44710" data-name="Path 44710" d="M193.336,157.578a5.393,5.393,0,0,0-4.247.967c-.019-.019.14-.227.477-.481a4.07,4.07,0,0,1,3.13-.713A1.4,1.4,0,0,1,193.336,157.578Z" transform="translate(-189.088 -157.283)" fill="#ff9a6c"/>
        </g>
      </g>
      <g id="Group_37278" data-name="Group 37278" transform="translate(61.933 39.38)">
        <path id="Path_44711" data-name="Path 44711" d="M334.216,150.792a1.1,1.1,0,0,0-.78.024,11.247,11.247,0,0,0-3.28,1.655l.867,2.985c.336-.648,1.9-1.492,2.452-1.973a2.889,2.889,0,0,0,1.142-1.8A.881.881,0,0,0,334.216,150.792Z" transform="translate(-314.815 -148.941)" fill="#ff9a6c"/>
        <path id="Path_44712" data-name="Path 44712" d="M296.178,179.574a32.178,32.178,0,0,1-.057-6.648c.246-1.984,1.891-7.851,2.006-9.685s.172-2.694,1.318-3.553,1.146-.459,2.751-1.433,1.949-1.662,4.356-1.776,4.3,5.043,4.3,5.043-.114,1.089-.573,1.375a4.259,4.259,0,0,1-2.464.287c-1.433-.057-2.865.286-2.98,1.146a22.344,22.344,0,0,0,.63,6.132c.573,2.121.115,4.585-.286,6.648s-1.228,6.567-4.527,6.934C296.775,184.475,296.178,179.574,296.178,179.574Z" transform="translate(-295.966 -152.109)" fill="#ffbf9d"/>
        <path id="Path_44713" data-name="Path 44713" d="M309.513,155.2s1.78-.18,2.082-.529,1.289-3.784,1.85-4.567.94-.941,1.549-.813a1.667,1.667,0,0,1,1.308-1.761s.868-.134,1.007,1.951c0,0-.149-1.984,1.326-2.661a.731.731,0,0,1,.971.316.966.966,0,0,1,.084.252c.089.477.207,2.682.207,2.682s.162,3.006.2,2.876,1.852-4.177,2.111-4.568a1.152,1.152,0,0,1,1.278-.663.685.685,0,0,1,.606.475,2.669,2.669,0,0,1-.077.643,45.843,45.843,0,0,1-1.352,4.886c-.3.522-3.071,3.439-4.2,3.534a9.114,9.114,0,0,1-1.78.007Z" transform="translate(-303.434 -146.744)" fill="#ffbf9d"/>
        <g id="Group_37274" data-name="Group 37274" transform="translate(9.759 2.544)">
          <path id="Path_44714" data-name="Path 44714" d="M317.717,159.832c-.026-.023.262-.356.633-.952a5.56,5.56,0,0,0,.536-1.095,2.9,2.9,0,0,0,.152-.69q.029-.383.059-.787c.084-1.078.173-2.052.249-2.757a5.678,5.678,0,0,1,.171-1.137,5.6,5.6,0,0,1-.007,1.15c-.034.709-.1,1.688-.181,2.767q-.033.4-.064.787a2.983,2.983,0,0,1-.177.739,4.986,4.986,0,0,1-.6,1.114A3.181,3.181,0,0,1,317.717,159.832Z" transform="translate(-317.715 -152.413)" fill="#ff9a6c"/>
        </g>
        <g id="Group_37275" data-name="Group 37275" transform="translate(12.811 2.535)">
          <path id="Path_44715" data-name="Path 44715" d="M325.565,152.393a5.47,5.47,0,0,1,.1,1.128c.035.7.066,1.661.086,2.725q.006.4.012.777a3.45,3.45,0,0,1-.031.748,4.005,4.005,0,0,1-.52,1.14,3.524,3.524,0,0,1-.7.9c-.028-.021.22-.376.554-.982a4.323,4.323,0,0,0,.452-1.1,3.448,3.448,0,0,0,.013-.7q-.008-.379-.017-.778c-.02-1.065-.026-2.03-.018-2.729A5.44,5.44,0,0,1,325.565,152.393Z" transform="translate(-324.517 -152.393)" fill="#ff9a6c"/>
        </g>
        <g id="Group_37276" data-name="Group 37276" transform="translate(15.14 5.912)">
          <path id="Path_44716" data-name="Path 44716" d="M331.187,159.919c.028-.014.148.2.158.569a1.823,1.823,0,0,1-.1.646,4.753,4.753,0,0,1-.352.7,6.348,6.348,0,0,1-1.18,1.576,12.119,12.119,0,0,1,.978-1.695,6.624,6.624,0,0,0,.353-.656,2.032,2.032,0,0,0,.136-.572C331.212,160.142,331.156,159.93,331.187,159.919Z" transform="translate(-329.708 -159.919)" fill="#ff9a6c"/>
        </g>
        <g id="Group_37277" data-name="Group 37277" transform="translate(4.352 4.483)">
          <path id="Path_44717" data-name="Path 44717" d="M305.666,160.685a10.571,10.571,0,0,0,3.678-.588l.093-.031-.071.069c.366-.955.707-1.81.964-2.423a5.026,5.026,0,0,1,.46-.975,5.017,5.017,0,0,1-.307,1.033c-.218.629-.534,1.494-.9,2.449l-.019.052-.052.018-.1.032a13.193,13.193,0,0,1-1.429.4,4.907,4.907,0,0,1-1.216.1A3.766,3.766,0,0,1,305.666,160.685Z" transform="translate(-305.666 -156.735)" fill="#ff9a6c"/>
        </g>
      </g>
    </g>
  </g>
</svg>
