<svg id="RoleClarity" xmlns="http://www.w3.org/2000/svg" width="20" height="20" viewBox="0 0 20 20">
  <g id="Group_147" data-name="Group 147">
    <path id="Path_82" data-name="Path 82" d="M18.242,2.344h-2.93V1.758a1.758,1.758,0,1,0-3.516,0v.586H4.18A1.76,1.76,0,0,0,2.433,3.906H1.758A1.76,1.76,0,0,0,0,5.664v13.75A.586.586,0,0,0,.586,20H17.07a.586.586,0,0,0,.586-.586V7.422h1.758A.586.586,0,0,0,20,6.836V4.1A1.76,1.76,0,0,0,18.242,2.344ZM2.422,18.828H1.172V5.664a.587.587,0,0,1,.586-.586h.664ZM12.969,1.758a.586.586,0,0,1,1.172,0v.586H12.969ZM16.484,4.1V18.828H3.594V4.1a.587.587,0,0,1,.586-.586H11.8V5.273a1.758,1.758,0,1,0,3.516,0,.586.586,0,1,0-1.172,0,.586.586,0,0,1-1.172,0V3.516h3.616a1.75,1.75,0,0,0-.1.586ZM18.828,6.25H17.656V4.1a.586.586,0,0,1,1.172,0Z" fill="#0c55b8"/>
    <path id="Path_83" data-name="Path 83" d="M122.56,128.834h6.715a.56.56,0,0,0,.56-.56V127.9a3.176,3.176,0,0,0-2.029-2.957,2.425,2.425,0,1,0-3.776,0A3.176,3.176,0,0,0,122,127.9v.373A.56.56,0,0,0,122.56,128.834Zm3.358-6.715a1.306,1.306,0,1,1-1.306,1.306A1.307,1.307,0,0,1,125.917,122.119Zm-.746,3.731h1.492a2.055,2.055,0,0,1,2.043,1.865h-5.579A2.055,2.055,0,0,1,125.171,125.85Z" transform="translate(-117.085 -116.126)" fill="#0c55b8"/>
    <path id="Path_84" data-name="Path 84" d="M131.513,361H122.56a.56.56,0,1,0,0,1.119h8.953a.56.56,0,1,0,0-1.119Z" transform="translate(-116.995 -346.859)" fill="#0c55b8"/>
    <path id="Path_85" data-name="Path 85" d="M131.513,421H122.56a.56.56,0,1,0,0,1.119h8.953a.56.56,0,1,0,0-1.119Z" transform="translate(-116.995 -404.395)" fill="#0c55b8"/>
  </g>
</svg>
