<svg id="targetsetting" xmlns="http://www.w3.org/2000/svg" width="21.184" height="21.184" viewBox="0 0 21.184 21.184">
  <g id="Group_166" data-name="Group 166">
    <path id="Path_103" data-name="Path 103" d="M63.022,150.664l-.782.782-.182-.182a.621.621,0,1,0-.878.878l.621.621a.621.621,0,0,0,.878,0l1.221-1.22a.621.621,0,1,0-.878-.877Z" transform="translate(-58.476 -144.256)" fill="#0c55b8"/>
    <path id="Path_104" data-name="Path 104" d="M151.621,167.223h3.724a.621.621,0,1,0,0-1.241h-3.724a.621.621,0,1,0,0,1.241Z" transform="translate(-144.753 -159.115)" fill="#0c55b8"/>
    <path id="Path_105" data-name="Path 105" d="M63.022,241.654l-.782.782-.182-.182a.621.621,0,1,0-.878.878l.621.621a.621.621,0,0,0,.878,0l1.221-1.22a.621.621,0,1,0-.878-.878Z" transform="translate(-58.476 -231.482)" fill="#0c55b8"/>
    <path id="Path_106" data-name="Path 106" d="M63.022,331.235l-.782.782-.182-.182a.621.621,0,1,0-.878.878l.621.621a.621.621,0,0,0,.878,0l1.221-1.22a.621.621,0,1,0-.878-.878Z" transform="translate(-58.476 -317.356)" fill="#0c55b8"/>
    <path id="Path_107" data-name="Path 107" d="M20.759,10.085,19.3,9.6l-.487-1.461A.621.621,0,0,0,17.784,7.9L16.029,9.649a5.922,5.922,0,0,0-2.334-.465V3.765h1.241a.621.621,0,0,0,.621-.621V2.193A2.2,2.2,0,0,0,13.364,0H2.193A2.2,2.2,0,0,0,0,2.193V19.32a.621.621,0,0,0,.621.621h9.443a6,6,0,0,0,9.649-4.757,5.931,5.931,0,0,0-.465-2.316L21,11.113a.621.621,0,0,0-.243-1.027Zm-7.046,7.166a2.068,2.068,0,1,1,.956-3.9l-1.395,1.395a.621.621,0,0,0,.878.878l1.395-1.395a2.071,2.071,0,0,1-1.834,3.024Zm-.35-16.01a.953.953,0,0,1,.952.951v.331H4.386a2.651,2.651,0,0,0-.217-1.282ZM1.241,2.193a.952.952,0,0,1,1.9,0v.951a.621.621,0,0,0,.621.621h8.689V9.318a5.983,5.983,0,0,0-2.6,1.273H6.868a.621.621,0,1,0,0,1.241H8.74A5.963,5.963,0,0,0,7.78,14.3H6.868a.621.621,0,1,0,0,1.241h.857A5.964,5.964,0,0,0,8.856,18.7H1.241ZM13.713,19.94a4.758,4.758,0,1,1,1.736-9.187l.454,1.363-.331.331a3.309,3.309,0,1,0,.878.878l.331-.331,1.362.454a4.762,4.762,0,0,1-4.43,6.493ZM18.2,12.158l-1.1-.366-.366-1.1,1.213-1.213.268.8a.621.621,0,0,0,.393.392l.8.268Z" fill="#0c55b8"/>
  </g>
</svg>
