<svg xmlns="http://www.w3.org/2000/svg" width="16.084" height="16.078" viewBox="0 0 16.084 16.078">
  <g id="tools" transform="translate(-0.248 -0.25)">
    <g id="Group_33" data-name="Group 33" transform="translate(0)">
      <path id="Subtraction_31" data-name="Subtraction 31" d="M23810.514,12378.289a2.76,2.76,0,0,1-.766-.113h0a.02.02,0,0,1-.018-.019c0-.011,0-.018,0-.021l.006,0,1.041-1.034v-1.729h-1.734l-1.035,1.035a.022.022,0,0,1-.018.006c-.006,0-.018,0-.023-.019a2.654,2.654,0,0,1,.664-2.654,2.688,2.688,0,0,1,1.889-.783,2.975,2.975,0,0,1,.6.066l.012,0,.014,0,.221.036,7.348-7.343-.07-.383a2.672,2.672,0,0,1,.74-2.35,2.708,2.708,0,0,1,2.654-.67.039.039,0,0,1,.02.019v.008s0,.006,0,.008a.015.015,0,0,0,0,.008l-1.035,1.035v1.728h1.729l1.033-1.034c.006-.006.006-.006.02-.006a.026.026,0,0,1,.023.018,2.664,2.664,0,0,1-2.561,3.432h-.006a2.769,2.769,0,0,1-.621-.071l-.215-.036-7.35,7.349.066.377a2.668,2.668,0,0,1-2.625,3.139Z" transform="translate(-23807.604 -12361.961)" fill="#fff"/>
    </g>
  </g>
</svg>
