<svg xmlns="http://www.w3.org/2000/svg" width="16.084" height="16.082" viewBox="0 0 16.084 16.082">
  <g id="tools" transform="translate(-0.248 -0.246)">
    <g id="Group_33" data-name="Group 33" transform="translate(0)">
      <path id="Subtraction_31" data-name="Subtraction 31" d="M23810.514,12378.289a2.76,2.76,0,0,1-.766-.113h0a.02.02,0,0,1-.018-.019c0-.011,0-.018,0-.021l.006,0,1.041-1.034v-1.729h-1.734l-1.035,1.035a.022.022,0,0,1-.018.006c-.006,0-.018,0-.023-.019a2.654,2.654,0,0,1,.664-2.654,2.688,2.688,0,0,1,1.889-.783,2.975,2.975,0,0,1,.6.066l.012,0,.014,0,.221.036,7.348-7.343-.07-.383a2.672,2.672,0,0,1,.74-2.35,2.708,2.708,0,0,1,2.654-.67.039.039,0,0,1,.02.019v.008s0,.006,0,.008a.015.015,0,0,0,0,.008l-1.035,1.035v1.728h1.729l1.033-1.034c.006-.006.006-.006.02-.006a.026.026,0,0,1,.023.018,2.664,2.664,0,0,1-2.561,3.432h-.006a2.769,2.769,0,0,1-.621-.071l-.215-.036-7.35,7.349.066.377a2.668,2.668,0,0,1-2.625,3.139Z" transform="translate(-23807.604 -12361.961)" fill="#fff"/>
    </g>
    <g id="Group_36" data-name="Group 36" transform="translate(8.501 8.527)">
      <g id="Group_35" data-name="Group 35">
        <path id="Subtraction_32" data-name="Subtraction 32" d="M23804.8,12361.275a2.172,2.172,0,0,1-1.543-.639l-3.4-3.37a2.085,2.085,0,0,1-.406-.592l2.9-2.9a2.122,2.122,0,0,1,.586.406l3.406,3.37a2.19,2.19,0,0,1,0,3.083A2.164,2.164,0,0,1,23804.8,12361.275Zm-2.4-5.275a.722.722,0,0,0-.52.209.73.73,0,0,0,0,1.046l2.383,2.354a.737.737,0,0,0,1.041-1.045l-2.385-2.354A.731.731,0,0,0,23802.4,12356Z" transform="translate(-23799.145 -12353.478)" fill="#fff"/>
      </g>
    </g>
    <g id="Group_38" data-name="Group 38" transform="translate(0 -0.006)">
      <g id="Group_37" data-name="Group 37" transform="translate(0 0)">
        <path id="Subtraction_33" data-name="Subtraction 33" d="M23813.49,12368.871h0l-3.107-3.1-.615.609s0,.012-.018.012-.014-.006-.025-.018l-1.84-2.965a.233.233,0,0,1,.035-.287l.838-.837a.247.247,0,0,1,.166-.065.257.257,0,0,1,.119.03l2.971,1.847a.024.024,0,0,1,.012.018.024.024,0,0,1-.006.019l-.441.441.137.216-.137.138,2.934,2.928-1.021,1.017Z" transform="translate(-23807.602 -12361.967)" fill="#fff"/>
      </g>
    </g>
  </g>
</svg>
