<svg xmlns="http://www.w3.org/2000/svg" width="158" height="50" viewBox="0 0 158 50">
  <g id="UCO_bank_logo" data-name="UCO bank logo" transform="translate(-47 98)">
    <rect id="Rectangle_7937" data-name="Rectangle 7937" width="158" height="50" transform="translate(47 -98)" fill="#fef100"/>
    <rect id="Rectangle_7938" data-name="Rectangle 7938" width="158" height="9" transform="translate(47 -57)" fill="#01609d"/>
    <path id="Path_44732" data-name="Path 44732" d="M4.12-1.469a1.71,1.71,0,0,0,.668-.124,1.352,1.352,0,0,0,.5-.355A1.568,1.568,0,0,0,5.6-2.511,2.462,2.462,0,0,0,5.7-3.267V-8.014H7.563v4.747a3.707,3.707,0,0,1-.239,1.353A3.035,3.035,0,0,1,6.639-.853,3.09,3.09,0,0,1,5.555-.16,3.943,3.943,0,0,1,4.12.088,3.959,3.959,0,0,1,2.679-.16,3.09,3.09,0,0,1,1.6-.853,3,3,0,0,1,.913-1.914,3.745,3.745,0,0,1,.677-3.267V-8.014H2.536v4.741a2.462,2.462,0,0,0,.107.756,1.6,1.6,0,0,0,.311.566,1.337,1.337,0,0,0,.5.358A1.71,1.71,0,0,0,4.12-1.469Zm10.538-.6a.374.374,0,0,1,.132.025.359.359,0,0,1,.127.085l.737.776a3.06,3.06,0,0,1-1.213.954,4.244,4.244,0,0,1-1.724.322A4.108,4.108,0,0,1,11.08-.223a3.541,3.541,0,0,1-1.226-.858,3.778,3.778,0,0,1-.773-1.3A4.793,4.793,0,0,1,8.811-4.01,4.514,4.514,0,0,1,9.1-5.657a3.825,3.825,0,0,1,.819-1.3A3.69,3.69,0,0,1,11.187-7.8a4.234,4.234,0,0,1,1.622-.3,4.329,4.329,0,0,1,.85.08,4.153,4.153,0,0,1,.745.22,3.4,3.4,0,0,1,.638.338,3.348,3.348,0,0,1,.517.429l-.627.841a.8.8,0,0,1-.143.14.372.372,0,0,1-.231.063.413.413,0,0,1-.187-.044,2.068,2.068,0,0,1-.187-.107l-.217-.137a1.667,1.667,0,0,0-.281-.138,2.318,2.318,0,0,0-.38-.107,2.59,2.59,0,0,0-.509-.044,2.049,2.049,0,0,0-.844.17,1.84,1.84,0,0,0-.66.5,2.3,2.3,0,0,0-.429.8,3.583,3.583,0,0,0-.151,1.086,3.3,3.3,0,0,0,.168,1.094,2.4,2.4,0,0,0,.457.806,1.937,1.937,0,0,0,.674.5,2.014,2.014,0,0,0,.825.17,3.949,3.949,0,0,0,.462-.025,2.1,2.1,0,0,0,.391-.082,1.591,1.591,0,0,0,.341-.154,2.151,2.151,0,0,0,.325-.245.65.65,0,0,1,.143-.091A.375.375,0,0,1,14.658-2.073Zm9.73-1.936a4.307,4.307,0,0,1-.3,1.617,3.9,3.9,0,0,1-.844,1.3,3.872,3.872,0,0,1-1.312.866,4.461,4.461,0,0,1-1.7.314,4.482,4.482,0,0,1-1.7-.314,3.9,3.9,0,0,1-1.317-.866,3.876,3.876,0,0,1-.847-1.3,4.307,4.307,0,0,1-.3-1.617,4.307,4.307,0,0,1,.3-1.617,3.846,3.846,0,0,1,.847-1.3,3.916,3.916,0,0,1,1.317-.863,4.482,4.482,0,0,1,1.7-.314,4.427,4.427,0,0,1,1.7.316,3.926,3.926,0,0,1,1.312.866,3.867,3.867,0,0,1,.844,1.3A4.292,4.292,0,0,1,24.387-4.01Zm-1.9,0a3.465,3.465,0,0,0-.154-1.07,2.266,2.266,0,0,0-.443-.806,1.909,1.909,0,0,0-.707-.506,2.432,2.432,0,0,0-.951-.176,2.468,2.468,0,0,0-.96.176,1.9,1.9,0,0,0-.71.506,2.266,2.266,0,0,0-.443.806,3.465,3.465,0,0,0-.154,1.07,3.484,3.484,0,0,0,.154,1.075,2.266,2.266,0,0,0,.443.806,1.878,1.878,0,0,0,.71.5,2.5,2.5,0,0,0,.96.173,2.466,2.466,0,0,0,.951-.173,1.882,1.882,0,0,0,.707-.5,2.266,2.266,0,0,0,.443-.806A3.484,3.484,0,0,0,22.484-4.01ZM31.674-1.4a1.641,1.641,0,0,0,.6-.093.952.952,0,0,0,.366-.242.812.812,0,0,0,.181-.335,1.477,1.477,0,0,0,.05-.38,1.267,1.267,0,0,0-.058-.4.655.655,0,0,0-.2-.3.967.967,0,0,0-.371-.187,2.163,2.163,0,0,0-.583-.066h-1.3v2Zm-1.309-5.22v1.98h.968a3.19,3.19,0,0,0,.556-.044,1.155,1.155,0,0,0,.421-.154.707.707,0,0,0,.264-.3,1.135,1.135,0,0,0,.091-.484,1.362,1.362,0,0,0-.071-.476.682.682,0,0,0-.22-.305A.924.924,0,0,0,32-6.573a2.587,2.587,0,0,0-.542-.05Zm1.089-1.391a5.605,5.605,0,0,1,1.414.154,2.693,2.693,0,0,1,.951.434,1.647,1.647,0,0,1,.536.682,2.3,2.3,0,0,1,.168.9,1.757,1.757,0,0,1-.077.52,1.5,1.5,0,0,1-.242.468,1.886,1.886,0,0,1-.424.4,2.659,2.659,0,0,1-.621.314,2.217,2.217,0,0,1,1.172.621,1.615,1.615,0,0,1,.379,1.111,2.292,2.292,0,0,1-.2.951,2.179,2.179,0,0,1-.58.767,2.751,2.751,0,0,1-.943.512A4.1,4.1,0,0,1,31.707,0h-3.2V-8.014Zm8.756,4.95-.743-2.195q-.083-.209-.176-.492T39.1-6.364q-.082.336-.176.622t-.176.495l-.737,2.184ZM43.164,0H41.723a.629.629,0,0,1-.391-.113A.716.716,0,0,1,41.107-.4l-.473-1.4H37.587L37.114-.4a.668.668,0,0,1-.217.278A.606.606,0,0,1,36.509,0H35.057l3.1-8.014h1.9Zm7.87-8.014V0h-.968a.842.842,0,0,1-.36-.069.882.882,0,0,1-.289-.239l-3.778-4.78q.022.215.03.415t.008.377V0H44.038V-8.014h.979a1.578,1.578,0,0,1,.2.011.519.519,0,0,1,.148.041.5.5,0,0,1,.127.085,1.446,1.446,0,0,1,.137.148l3.812,4.813q-.028-.231-.038-.448t-.011-.41v-4.24Zm3.652,3.245h.3a.675.675,0,0,0,.594-.259l1.8-2.618a.887.887,0,0,1,.344-.289,1.159,1.159,0,0,1,.459-.08H59.8l-2.376,3.24a1.619,1.619,0,0,1-.545.484,1.336,1.336,0,0,1,.38.214,1.614,1.614,0,0,1,.319.358L60,0H58.338a1.445,1.445,0,0,1-.272-.022.7.7,0,0,1-.2-.066A.562.562,0,0,1,57.728-.2a1.064,1.064,0,0,1-.116-.146L55.8-3.129a.547.547,0,0,0-.25-.217,1.085,1.085,0,0,0-.41-.063h-.451V0H52.827V-8.014h1.859Z" transform="translate(143 -73)" fill="#0044a8" stroke="#0044a8" stroke-width="0.2"/>
    <path id="Path_44731" data-name="Path 44731" d="M-.239-8.654v-1.538H9.577v1.538H8.087V0H6.3V-2.536l-.021-.007q-.157.116-.345.229a2.79,2.79,0,0,1-.414.2,2.928,2.928,0,0,1-.5.144,3.112,3.112,0,0,1-.608.055,3.223,3.223,0,0,1-1.528-.345,3.48,3.48,0,0,1-1.1-.909,4.623,4.623,0,0,1-.718-1.275A6.768,6.768,0,0,1,.7-5.893a2.514,2.514,0,0,0,.735-.191,1.5,1.5,0,0,0,.479-.332,1.174,1.174,0,0,0,.26-.431,1.535,1.535,0,0,0,.079-.489,1.945,1.945,0,0,0-.109-.629,3.168,3.168,0,0,0-.349-.69Zm4.3,1.6a2.022,2.022,0,0,1-.342,1.166,2.3,2.3,0,0,1-1.012.8,2.386,2.386,0,0,0,.27.69,1.77,1.77,0,0,0,.4.468,1.524,1.524,0,0,0,.492.267,1.8,1.8,0,0,0,.554.085A1.914,1.914,0,0,0,5.53-3.9,2.475,2.475,0,0,0,6.3-4.785V-8.654H3.562a3.354,3.354,0,0,1,.379.824A2.75,2.75,0,0,1,4.061-7.055Zm6.528,10.7q-.314-.608-.636-1.107a4.833,4.833,0,0,0-.687-.854,2.808,2.808,0,0,0-.793-.55,2.289,2.289,0,0,0-.96-.195,1.515,1.515,0,0,0-.824.188.585.585,0,0,0-.291.516.567.567,0,0,0,.246.485,1.085,1.085,0,0,0,.649.178,2.129,2.129,0,0,0,.841-.191l.239,1.114A3.121,3.121,0,0,1,7.055,3.5a3.294,3.294,0,0,1-.909-.123,2.307,2.307,0,0,1-.755-.366,1.82,1.82,0,0,1-.516-.595,1.669,1.669,0,0,1-.191-.81A1.65,1.65,0,0,1,4.908.735a1.937,1.937,0,0,1,.6-.619A2.737,2.737,0,0,1,6.354-.25a3.946,3.946,0,0,1,.967-.12,4.079,4.079,0,0,1,1.217.174A4.805,4.805,0,0,1,9.57.26,5.03,5.03,0,0,1,10.428.9a7.816,7.816,0,0,1,.69.725,8.248,8.248,0,0,1,.533.711q.229.345.393.6ZM18.006-2.8a4.292,4.292,0,0,0,.752-.492,3.37,3.37,0,0,0,.537-.55,2.242,2.242,0,0,0,.321-.567,1.552,1.552,0,0,0,.106-.543,1.579,1.579,0,0,0-.048-.369,1.082,1.082,0,0,0-.161-.362.954.954,0,0,0-.291-.273.82.82,0,0,0-.437-.109,1.1,1.1,0,0,0-.52.133,1.916,1.916,0,0,0-.472.355,3.081,3.081,0,0,0-.4.506,3.956,3.956,0,0,0-.311.591V0H15.3V-2.249l-.014-.007q-.082.055-.215.133a2.447,2.447,0,0,1-.318.154,2.754,2.754,0,0,1-.424.13,2.363,2.363,0,0,1-.526.055,2.742,2.742,0,0,1-1.159-.256,3.252,3.252,0,0,1-.984-.7,3.414,3.414,0,0,1-.684-1.036,3.161,3.161,0,0,1-.256-1.265A3.036,3.036,0,0,1,10.907-6.1a2.674,2.674,0,0,1,.54-.889A2.573,2.573,0,0,1,12.3-7.6a2.792,2.792,0,0,1,1.148-.226,2.792,2.792,0,0,1,.889.144,3.531,3.531,0,0,1,.943.52l.014-.007V-8.654H9.673v-1.538H22.832v1.538H17.083v1.613l.014.007a2.481,2.481,0,0,1,.492-.355,2.728,2.728,0,0,1,.5-.212,2.775,2.775,0,0,1,.465-.1,3.223,3.223,0,0,1,.4-.027,2.339,2.339,0,0,1,1.073.239,2.549,2.549,0,0,1,.8.625,2.774,2.774,0,0,1,.5.878,2.99,2.99,0,0,1,.174,1,3.1,3.1,0,0,1-.185,1.049,3.943,3.943,0,0,1-.526.988,5.092,5.092,0,0,1-.827.885,6.679,6.679,0,0,1-1.087.749ZM15.34-5.5q-.137-.137-.294-.28a2.23,2.23,0,0,0-.342-.256,1.915,1.915,0,0,0-.4-.185,1.527,1.527,0,0,0-.479-.072,1.319,1.319,0,0,0-.554.109,1.2,1.2,0,0,0-.4.294,1.222,1.222,0,0,0-.246.431,1.632,1.632,0,0,0-.082.52,1.661,1.661,0,0,0,.1.588,1.4,1.4,0,0,0,.3.479,1.392,1.392,0,0,0,.465.321,1.534,1.534,0,0,0,.612.116,1.309,1.309,0,0,0,.646-.144,1.147,1.147,0,0,0,.407-.373,1.508,1.508,0,0,0,.212-.509,2.577,2.577,0,0,0,.062-.554Zm11.8-3.158h-1.49V0H23.864V-8.654H22.353v-1.538h4.785ZM24.042-10l-.2-.369q-.355-.67-.625-1.142t-.492-.783a3.371,3.371,0,0,0-.407-.485,1.383,1.383,0,0,0-.373-.26,1.246,1.246,0,0,0-.4-.106q-.208-.021-.468-.021H19.687V-14.7h1.271q.54,0,.926.034a2.007,2.007,0,0,1,.694.181,1.986,1.986,0,0,1,.584.441,5.245,5.245,0,0,1,.6.817q.325.523.742,1.309t1,1.914ZM40.735-8.654h-1.49V0H37.461V-1.941l-.041-.007a3.766,3.766,0,0,1-.906.393,3.391,3.391,0,0,1-.913.126,3.409,3.409,0,0,1-1.323-.263,3.654,3.654,0,0,1-1.114-.718A3.441,3.441,0,0,1,32.4-3.476a3.074,3.074,0,0,1-.284-1.309,2.953,2.953,0,0,1,.229-1.159,2.87,2.87,0,0,1,.646-.95,3.058,3.058,0,0,1,1-.643,3.387,3.387,0,0,1,1.285-.236q.13,0,.352.017a3.255,3.255,0,0,1,.506.085,4.005,4.005,0,0,1,.615.208,4.1,4.1,0,0,1,.687.379l.027-.007V-8.654H31.042v-1.538h9.693ZM33.872-4.724a1.652,1.652,0,0,0,.116.591,1.744,1.744,0,0,0,.338.55,1.793,1.793,0,0,0,.55.407,1.689,1.689,0,0,0,.752.161,2.094,2.094,0,0,0,.7-.116l-1.866-2.8a1.544,1.544,0,0,0-.441.54A1.49,1.49,0,0,0,33.872-4.724Zm3.616-.793a2.6,2.6,0,0,0-.913-.632,2.519,2.519,0,0,0-.892-.174,1.96,1.96,0,0,0-.236.014q-.113.014-.222.034l1.8,2.7a1.639,1.639,0,0,0,.338-.482,1.241,1.241,0,0,0,.12-.516Zm.431-4.437-.28-.3a7.921,7.921,0,0,0-.622-.6,3.6,3.6,0,0,0-.656-.448,3.1,3.1,0,0,0-.772-.28,4.432,4.432,0,0,0-.971-.1H33.25v-1.36h1.06q.4,0,.714.014a2.834,2.834,0,0,1,.588.085,2.473,2.473,0,0,1,.55.219,3.5,3.5,0,0,1,.595.42,9.687,9.687,0,0,1,.721.694q.4.42.933,1.029l.068-.027q-.458-.7-.8-1.213t-.619-.854a4.912,4.912,0,0,0-.506-.554,1.833,1.833,0,0,0-.468-.318,1.742,1.742,0,0,0-.506-.144,4.893,4.893,0,0,0-.615-.034H33.66v-1.388h1.224a5,5,0,0,1,1.278.137,2.437,2.437,0,0,1,.854.4,2.6,2.6,0,0,1,.6.656q.253.39.52.889l1.62,3.069Zm1.627-2.427a1.013,1.013,0,0,1,.072-.383.913.913,0,0,1,.2-.308.948.948,0,0,1,.311-.205,1.033,1.033,0,0,1,.4-.075,1.041,1.041,0,0,1,.4.075.951.951,0,0,1,.318.208,1.006,1.006,0,0,1,.212.314.977.977,0,0,1,.079.393,1.031,1.031,0,0,1-.072.39.855.855,0,0,1-.205.3.971.971,0,0,1-.314.2,1.058,1.058,0,0,1-.393.072,1.084,1.084,0,0,1-.4-.072.91.91,0,0,1-.318-.205,1.017,1.017,0,0,1-.212-.311A.97.97,0,0,1,39.546-12.38ZM49.164-2.8a4.292,4.292,0,0,0,.752-.492,3.37,3.37,0,0,0,.537-.55,2.242,2.242,0,0,0,.321-.567,1.552,1.552,0,0,0,.106-.543,1.579,1.579,0,0,0-.048-.369,1.082,1.082,0,0,0-.161-.362.954.954,0,0,0-.291-.273.82.82,0,0,0-.437-.109,1.1,1.1,0,0,0-.52.133,1.916,1.916,0,0,0-.472.355,3.081,3.081,0,0,0-.4.506,3.956,3.956,0,0,0-.311.591V0H46.457V-2.249l-.014-.007q-.082.055-.215.133a2.447,2.447,0,0,1-.318.154,2.754,2.754,0,0,1-.424.13,2.363,2.363,0,0,1-.526.055A2.742,2.742,0,0,1,43.8-2.041a3.252,3.252,0,0,1-.984-.7,3.414,3.414,0,0,1-.684-1.036,3.161,3.161,0,0,1-.256-1.265A3.036,3.036,0,0,1,42.065-6.1a2.674,2.674,0,0,1,.54-.889,2.573,2.573,0,0,1,.858-.608,2.792,2.792,0,0,1,1.148-.226,2.792,2.792,0,0,1,.889.144,3.531,3.531,0,0,1,.943.52l.014-.007V-8.654H40.831v-1.538H53.99v1.538H48.241v1.613l.014.007a2.481,2.481,0,0,1,.492-.355,2.729,2.729,0,0,1,.5-.212,2.775,2.775,0,0,1,.465-.1,3.223,3.223,0,0,1,.4-.027,2.339,2.339,0,0,1,1.073.239,2.55,2.55,0,0,1,.8.625,2.774,2.774,0,0,1,.5.878,2.99,2.99,0,0,1,.174,1,3.1,3.1,0,0,1-.185,1.049,3.943,3.943,0,0,1-.526.988,5.092,5.092,0,0,1-.827.885,6.679,6.679,0,0,1-1.087.749ZM46.5-5.5q-.137-.137-.294-.28a2.23,2.23,0,0,0-.342-.256,1.915,1.915,0,0,0-.4-.185,1.527,1.527,0,0,0-.479-.072,1.319,1.319,0,0,0-.554.109,1.2,1.2,0,0,0-.4.294,1.222,1.222,0,0,0-.246.431,1.632,1.632,0,0,0-.082.52,1.661,1.661,0,0,0,.1.588,1.4,1.4,0,0,0,.3.479,1.392,1.392,0,0,0,.465.321,1.534,1.534,0,0,0,.612.116,1.309,1.309,0,0,0,.646-.144,1.147,1.147,0,0,0,.407-.373,1.508,1.508,0,0,0,.212-.509,2.577,2.577,0,0,0,.062-.554Z" transform="translate(51 -72)" fill="#0044a8"/>
    <path id="Path_44730" data-name="Path 44730" d="M.652-1.252a3.481,3.481,0,0,0,.023.4A3.524,3.524,0,0,0,.743-.46a3.929,3.929,0,0,0,.108.379A3.032,3.032,0,0,0,1,.272a.238.238,0,0,1,.03.085.136.136,0,0,1-.007.065A.132.132,0,0,1,.987.47.283.283,0,0,1,.94.506L.664.666A3.329,3.329,0,0,1,.414.21a3.294,3.294,0,0,1-.17-.471,3.421,3.421,0,0,1-.1-.487,4.06,4.06,0,0,1-.031-.5,4.06,4.06,0,0,1,.031-.5,3.421,3.421,0,0,1,.1-.487,3.294,3.294,0,0,1,.17-.471,3.43,3.43,0,0,1,.25-.458l.276.16a.283.283,0,0,1,.047.036.132.132,0,0,1,.032.048.136.136,0,0,1,.007.065A.238.238,0,0,1,1-2.778a3.032,3.032,0,0,0-.145.353,3.9,3.9,0,0,0-.108.38,3.568,3.568,0,0,0-.068.395A3.481,3.481,0,0,0,.652-1.252Zm3.874-1.66h.936v.439H5.036V0h-.51V-1.012H3.7v.279q0,.039,0,.081a.243.243,0,0,1-.018.077.142.142,0,0,1-.045.059.132.132,0,0,1-.083.023A.355.355,0,0,1,3.4-.534a.958.958,0,0,1-.171-.11A1.383,1.383,0,0,1,3.061-.8a1.7,1.7,0,0,1-.143-.181,1.075,1.075,0,0,1-.1-.181.411.411,0,0,1-.038-.159.193.193,0,0,1,.006-.047.079.079,0,0,1,.026-.041.165.165,0,0,1,.057-.029.331.331,0,0,1,.1-.012h.238V-2.4a.213.213,0,0,0-.053-.154.166.166,0,0,0-.123-.055.15.15,0,0,0-.073.018A.177.177,0,0,0,2.9-2.54a.21.21,0,0,0-.035.07.3.3,0,0,0-.012.085.275.275,0,0,0,.141.242l-.246.311A.749.749,0,0,1,2.48-2.09.6.6,0,0,1,2.4-2.4a.554.554,0,0,1,.047-.226.569.569,0,0,1,.132-.187.613.613,0,0,1,.206-.126.749.749,0,0,1,.268-.046.741.741,0,0,1,.27.047.609.609,0,0,1,.206.129.577.577,0,0,1,.132.193.618.618,0,0,1,.047.242v.918h.824Zm2.166.439H6.266V0h-.51V-2.473H5.325v-.439H6.692Zm2.2,0H8.241a1.971,1.971,0,0,1,.118.3,1.071,1.071,0,0,1,.044.308.914.914,0,0,1-.038.268.674.674,0,0,1-.118.226.7.7,0,0,1-.2.171.936.936,0,0,1-.3.1l0,.008q.082.117.167.227t.179.215q.094.105.2.209t.23.209L8.2.125a3.065,3.065,0,0,1-.3-.267q-.143-.146-.271-.3t-.242-.32q-.113-.162-.208-.316t-.17-.294q-.075-.14-.128-.251l.432-.221a.674.674,0,0,0,.143.248.231.231,0,0,0,.16.072.221.221,0,0,0,.1-.025A.253.253,0,0,0,7.8-1.628a.4.4,0,0,0,.06-.121.55.55,0,0,0,.022-.165A.948.948,0,0,0,7.839-2.2.984.984,0,0,0,7.7-2.473H6.631v-.439H8.9Zm2.691,0h-.426V0h-.51V-1.564h-.539a1.131,1.131,0,0,0-.194.015.353.353,0,0,0-.137.051.218.218,0,0,0-.08.1.4.4,0,0,0-.026.156A.734.734,0,0,0,9.717-1a1.138,1.138,0,0,0,.121.242,1.786,1.786,0,0,0,.188.238,3.079,3.079,0,0,0,.242.233L9.959.061a1.066,1.066,0,0,1-.121-.085,1.847,1.847,0,0,1-.165-.148,2.278,2.278,0,0,1-.181-.206A1.651,1.651,0,0,1,9.327-.64a1.623,1.623,0,0,1-.121-.312,1.343,1.343,0,0,1-.047-.36A.842.842,0,0,1,9.22-1.66a.5.5,0,0,1,.173-.211.682.682,0,0,1,.265-.1A1.871,1.871,0,0,1,10-2h.654v-.469H8.834v-.439h2.752Zm.939-.439h3.328v.439h-.426V0h-.51V-1.209H13.912a.762.762,0,0,1-.271.109l0,.008a2.144,2.144,0,0,0,.127.227,2.258,2.258,0,0,0,.157.215,2.7,2.7,0,0,0,.192.209q.105.1.23.209l-.322.357a3.205,3.205,0,0,1-.27-.271q-.133-.149-.257-.312t-.235-.33q-.111-.168-.207-.327t-.172-.3q-.076-.143-.129-.254l.432-.221a.859.859,0,0,0,.157.276.239.239,0,0,0,.171.087.148.148,0,0,0,.089-.027.205.205,0,0,0,.063-.075.407.407,0,0,0,.036-.114.845.845,0,0,0,.012-.146,1.008,1.008,0,0,0-.045-.3,1.046,1.046,0,0,0-.139-.281h-1Zm2.393,1.268v-.828h-.861a1.83,1.83,0,0,1,.116.3,1.118,1.118,0,0,1,.042.308,1.044,1.044,0,0,1-.006.111q-.006.055-.016.109Zm3.139-.828H17.4a1.971,1.971,0,0,1,.118.3,1.071,1.071,0,0,1,.044.308.914.914,0,0,1-.038.268.674.674,0,0,1-.118.226.7.7,0,0,1-.2.171.937.937,0,0,1-.3.1l0,.008q.082.117.167.227t.179.215q.094.105.2.209t.23.209l-.322.357a3.065,3.065,0,0,1-.3-.267q-.143-.146-.271-.3t-.242-.32q-.113-.162-.208-.316t-.17-.294q-.075-.14-.128-.251l.432-.221a.674.674,0,0,0,.143.248.231.231,0,0,0,.16.072.221.221,0,0,0,.1-.025.253.253,0,0,0,.086-.075.4.4,0,0,0,.06-.121.55.55,0,0,0,.022-.165A.948.948,0,0,0,17-2.2a.984.984,0,0,0-.137-.277h-1.07v-.439h2.264ZM20.377-.8a1.226,1.226,0,0,0,.215-.141.963.963,0,0,0,.153-.157.64.64,0,0,0,.092-.162.443.443,0,0,0,.03-.155.451.451,0,0,0-.014-.105.309.309,0,0,0-.046-.1.273.273,0,0,0-.083-.078.234.234,0,0,0-.125-.031.315.315,0,0,0-.148.038.547.547,0,0,0-.135.1.88.88,0,0,0-.114.145,1.13,1.13,0,0,0-.089.169V0H19.6V-.643l0,0-.062.038a.7.7,0,0,1-.091.044.787.787,0,0,1-.121.037.675.675,0,0,1-.15.016.783.783,0,0,1-.331-.073.929.929,0,0,1-.281-.2.975.975,0,0,1-.2-.3.9.9,0,0,1-.073-.361.868.868,0,0,1,.054-.3A.764.764,0,0,1,18.5-2a.735.735,0,0,1,.245-.174.8.8,0,0,1,.328-.064.8.8,0,0,1,.254.041,1.009,1.009,0,0,1,.27.148l0,0v-.424H18v-.439h3.76v.439H20.113v.461l0,0a.709.709,0,0,1,.141-.1.78.78,0,0,1,.143-.061.793.793,0,0,1,.133-.029.921.921,0,0,1,.113-.008.668.668,0,0,1,.307.068.728.728,0,0,1,.229.179.793.793,0,0,1,.144.251.854.854,0,0,1,.05.287.884.884,0,0,1-.053.3,1.126,1.126,0,0,1-.15.282,1.455,1.455,0,0,1-.236.253,1.908,1.908,0,0,1-.311.214Zm-.762-.77q-.039-.039-.084-.08a.637.637,0,0,0-.1-.073.547.547,0,0,0-.115-.053.436.436,0,0,0-.137-.021.377.377,0,0,0-.158.031.342.342,0,0,0-.115.084.349.349,0,0,0-.07.123.466.466,0,0,0-.023.148.474.474,0,0,0,.029.168.4.4,0,0,0,.085.137.4.4,0,0,0,.133.092.438.438,0,0,0,.175.033.374.374,0,0,0,.185-.041.328.328,0,0,0,.116-.106.431.431,0,0,0,.061-.146.736.736,0,0,0,.018-.158Zm3.371-.9H22.56V0h-.51V-2.473h-.432v-.439h1.367Zm2.2,0h-.654a1.971,1.971,0,0,1,.118.3,1.071,1.071,0,0,1,.044.308.914.914,0,0,1-.038.268.674.674,0,0,1-.118.226.7.7,0,0,1-.2.171.936.936,0,0,1-.3.1l0,.008q.082.117.167.227t.179.215q.094.105.2.209t.23.209L24.49.125a3.065,3.065,0,0,1-.3-.267q-.143-.146-.271-.3t-.242-.32q-.113-.162-.208-.316t-.17-.294q-.075-.14-.128-.251l.432-.221a.674.674,0,0,0,.143.248.231.231,0,0,0,.16.072.221.221,0,0,0,.1-.025.253.253,0,0,0,.086-.075.4.4,0,0,0,.06-.121.55.55,0,0,0,.022-.165.948.948,0,0,0-.047-.281A.984.984,0,0,0,24-2.473h-1.07v-.439h2.264ZM28.509-.8a1.226,1.226,0,0,0,.215-.141.963.963,0,0,0,.153-.157.64.64,0,0,0,.092-.162A.443.443,0,0,0,29-1.416a.451.451,0,0,0-.014-.105.309.309,0,0,0-.046-.1.273.273,0,0,0-.083-.078.234.234,0,0,0-.125-.031.315.315,0,0,0-.148.038.547.547,0,0,0-.135.1.88.88,0,0,0-.114.145,1.13,1.13,0,0,0-.089.169V0h-.51V-.643l0,0-.062.038a.7.7,0,0,1-.091.044.787.787,0,0,1-.121.037.675.675,0,0,1-.15.016.783.783,0,0,1-.331-.073.929.929,0,0,1-.281-.2.975.975,0,0,1-.2-.3.9.9,0,0,1-.073-.361.868.868,0,0,1,.054-.3A.764.764,0,0,1,26.635-2a.735.735,0,0,1,.245-.174.8.8,0,0,1,.328-.064.8.8,0,0,1,.254.041,1.009,1.009,0,0,1,.27.148l0,0v-.424H26.128v-.439h3.76v.439H28.246v.461l0,0a.709.709,0,0,1,.141-.1.78.78,0,0,1,.143-.061.793.793,0,0,1,.133-.029.921.921,0,0,1,.113-.008.668.668,0,0,1,.307.068.728.728,0,0,1,.229.179.793.793,0,0,1,.144.251.854.854,0,0,1,.05.287.884.884,0,0,1-.053.3,1.126,1.126,0,0,1-.15.282,1.455,1.455,0,0,1-.236.253,1.908,1.908,0,0,1-.311.214Zm-.762-.77q-.039-.039-.084-.08a.637.637,0,0,0-.1-.073.547.547,0,0,0-.115-.053.436.436,0,0,0-.137-.021.377.377,0,0,0-.158.031.342.342,0,0,0-.115.084.349.349,0,0,0-.07.123.466.466,0,0,0-.023.148.474.474,0,0,0,.029.168.4.4,0,0,0,.085.137.4.4,0,0,0,.133.092.438.438,0,0,0,.175.033.374.374,0,0,0,.185-.041.328.328,0,0,0,.116-.106.431.431,0,0,0,.061-.146.736.736,0,0,0,.018-.158Zm3.371-.9h-.426V0h-.51V-2.473h-.432v-.439h1.367Zm3.92,0H34.46a.693.693,0,0,1,.083.176.609.609,0,0,1,.026.176.58.58,0,0,1-.094.322.7.7,0,0,1-.266.236v.018a.806.806,0,0,1,.352.313.874.874,0,0,1,.121.458.965.965,0,0,1-.056.326.764.764,0,0,1-.17.275.829.829,0,0,1-.287.19,1.064,1.064,0,0,1-.407.071,1.206,1.206,0,0,1-.455-.082,1.321,1.321,0,0,1-.361-.216,1.519,1.519,0,0,1-.275-.306,2.351,2.351,0,0,1-.2-.353,2.447,2.447,0,0,1-.131-.356,2.747,2.747,0,0,1-.07-.316l.438-.2a2.374,2.374,0,0,0,.07.309,2.328,2.328,0,0,0,.115.308,2.011,2.011,0,0,0,.157.282,1.327,1.327,0,0,0,.2.232.892.892,0,0,0,.231.158.614.614,0,0,0,.264.059A.483.483,0,0,0,33.92-.42a.368.368,0,0,0,.134-.089.381.381,0,0,0,.083-.139.551.551,0,0,0,.028-.183A.439.439,0,0,0,34-1.2a.72.72,0,0,0-.45-.126,1.48,1.48,0,0,0-.184.012v-.437l.068.006.064,0a.667.667,0,0,0,.413-.11.358.358,0,0,0,.144-.3.528.528,0,0,0-.027-.168.642.642,0,0,0-.072-.15h-1.9v-.439h2.98Zm2.627,0h-.426V0h-.51V-.752l-.008,0a.883.883,0,0,1-.48.146q-.043,0-.121-.008a.739.739,0,0,1-.17-.04.852.852,0,0,1-.187-.1.655.655,0,0,1-.173-.174.964.964,0,0,1-.127-.276,1.414,1.414,0,0,1-.05-.4v-.869h-.436v-.439h2.688Zm-.936,0h-.807v.9a.868.868,0,0,0,.028.243.4.4,0,0,0,.076.149.247.247,0,0,0,.112.075.448.448,0,0,0,.137.021.448.448,0,0,0,.262-.073.71.71,0,0,0,.191-.21ZM38.444-.6a.814.814,0,0,1-.223-.137.9.9,0,0,1-.17-.2.941.941,0,0,1-.109-.239.927.927,0,0,1-.039-.269.868.868,0,0,1,.054-.3A.764.764,0,0,1,38.111-2a.735.735,0,0,1,.245-.174.8.8,0,0,1,.328-.064.8.8,0,0,1,.254.041,1.009,1.009,0,0,1,.27.148l0,0v-.424H37.6v-.439h3.76v.439H39.722v.461l0,0a.709.709,0,0,1,.141-.1.78.78,0,0,1,.143-.061.793.793,0,0,1,.133-.029.921.921,0,0,1,.113-.008.668.668,0,0,1,.307.068.728.728,0,0,1,.229.179.793.793,0,0,1,.144.251.854.854,0,0,1,.05.287.884.884,0,0,1-.053.3,1.126,1.126,0,0,1-.15.282,1.455,1.455,0,0,1-.236.253,1.908,1.908,0,0,1-.311.214L39.985-.8A1.226,1.226,0,0,0,40.2-.941a.963.963,0,0,0,.153-.157.641.641,0,0,0,.092-.162.443.443,0,0,0,.03-.155.451.451,0,0,0-.014-.105.309.309,0,0,0-.046-.1.273.273,0,0,0-.083-.078.234.234,0,0,0-.125-.031.315.315,0,0,0-.148.038.547.547,0,0,0-.135.1.88.88,0,0,0-.114.145,1.13,1.13,0,0,0-.089.169V0h-.51V-.637l-.01,0-.934.762-.3-.354.479-.357Zm.779-.971q-.039-.039-.084-.08a.637.637,0,0,0-.1-.073.547.547,0,0,0-.115-.053A.436.436,0,0,0,38.79-1.8a.377.377,0,0,0-.158.031.342.342,0,0,0-.115.084.349.349,0,0,0-.07.123.466.466,0,0,0-.023.148.474.474,0,0,0,.029.168.4.4,0,0,0,.085.137.4.4,0,0,0,.133.092.438.438,0,0,0,.175.033.374.374,0,0,0,.185-.041.328.328,0,0,0,.116-.106.431.431,0,0,0,.061-.146.736.736,0,0,0,.018-.158Zm5.086-.9h-.426V0h-.51V-1.012H42.5v.279q0,.039,0,.081a.243.243,0,0,1-.018.077.145.145,0,0,1-.044.059.128.128,0,0,1-.082.023.352.352,0,0,1-.156-.042.976.976,0,0,1-.17-.11A1.33,1.33,0,0,1,41.859-.8a1.584,1.584,0,0,1-.14-.181,1.1,1.1,0,0,1-.1-.181.42.42,0,0,1-.037-.159.193.193,0,0,1,.006-.047.079.079,0,0,1,.026-.041.164.164,0,0,1,.057-.029.331.331,0,0,1,.1-.012h.215V-2.473H41.3v-.439h3.006Zm-1.812,0v1.021h.877V-2.473Zm3.292,1.221a3.482,3.482,0,0,0-.023-.4,3.569,3.569,0,0,0-.068-.395,3.72,3.72,0,0,0-.109-.38,3.424,3.424,0,0,0-.144-.353.238.238,0,0,1-.03-.085.136.136,0,0,1,.007-.065.132.132,0,0,1,.032-.048.283.283,0,0,1,.047-.036l.276-.16a3.322,3.322,0,0,1,.419.93,3.783,3.783,0,0,1,.129.99,3.779,3.779,0,0,1-.129.991,3.3,3.3,0,0,1-.419.927L45.5.506A.283.283,0,0,1,45.454.47a.132.132,0,0,1-.032-.048.136.136,0,0,1-.007-.065.238.238,0,0,1,.03-.085,3.424,3.424,0,0,0,.144-.353A3.751,3.751,0,0,0,45.7-.46a3.525,3.525,0,0,0,.068-.394A3.482,3.482,0,0,0,45.789-1.252Z" transform="translate(58 -62)" fill="#392e00"/>
    <path id="Path_44729" data-name="Path 44729" d="M-.068-2.912H3.26v.439H2.834V0h-.51V-1.209H1.318a.762.762,0,0,1-.271.109l0,.008a2.144,2.144,0,0,0,.127.227,2.258,2.258,0,0,0,.157.215,2.7,2.7,0,0,0,.192.209q.105.1.23.209L1.428.125a3.205,3.205,0,0,1-.27-.271Q1.025-.295.9-.457T.666-.787Q.555-.955.459-1.114t-.172-.3Q.211-1.559.158-1.67L.59-1.891a.859.859,0,0,0,.157.276.239.239,0,0,0,.171.087.148.148,0,0,0,.089-.027.205.205,0,0,0,.063-.075.407.407,0,0,0,.036-.114.845.845,0,0,0,.012-.146,1.008,1.008,0,0,0-.045-.3,1.046,1.046,0,0,0-.139-.281h-1ZM2.324-1.645v-.828H1.463a1.83,1.83,0,0,1,.116.3,1.118,1.118,0,0,1,.042.308,1.044,1.044,0,0,1-.006.111q-.006.055-.016.109Zm3.185.633H4.48v.279q0,.039,0,.081a.243.243,0,0,1-.018.077.145.145,0,0,1-.044.059.128.128,0,0,1-.082.023.352.352,0,0,1-.156-.042.976.976,0,0,1-.17-.11A1.33,1.33,0,0,1,3.843-.8,1.584,1.584,0,0,1,3.7-.982a1.1,1.1,0,0,1-.1-.181.42.42,0,0,1-.037-.159.193.193,0,0,1,.006-.047A.079.079,0,0,1,3.6-1.41a.165.165,0,0,1,.057-.029.331.331,0,0,1,.1-.012h.215V-2.473H3.287v-.439H5.318v.439H4.48v1.021H5.51ZM7.668-2.473H7.242V0h-.51V-1.012H5.855v.279q0,.039,0,.081a.243.243,0,0,1-.018.077.145.145,0,0,1-.044.059.128.128,0,0,1-.082.023.352.352,0,0,1-.156-.042.976.976,0,0,1-.17-.11A1.33,1.33,0,0,1,5.218-.8a1.584,1.584,0,0,1-.14-.181,1.1,1.1,0,0,1-.1-.181.42.42,0,0,1-.037-.159.193.193,0,0,1,.006-.047.079.079,0,0,1,.026-.041.164.164,0,0,1,.057-.029.331.331,0,0,1,.1-.012h.215V-2.473H4.662v-.439H7.668Zm-1.812,0v1.021h.877V-2.473Zm3.043,0H8.473V0h-.51V-2.473H7.531v-.439H8.9Zm2.934,0h-.426V0h-.547V-1.381h-.846q0,.133,0,.226A.619.619,0,0,1,9.988-1a.154.154,0,0,1-.055.084.176.176,0,0,1-.1.026.413.413,0,0,1-.161-.033.619.619,0,0,1-.148-.089.794.794,0,0,1-.127-.129,1,1,0,0,1-.1-.153.863.863,0,0,1-.065-.161A.553.553,0,0,1,9.2-1.613a.244.244,0,0,1,.022-.114.138.138,0,0,1,.063-.062.287.287,0,0,1,.1-.024q.059,0,.133,0h1.336v-.654H8.926v-.439h2.906Zm3.158.865.064.007q.029,0,.066,0a1.055,1.055,0,0,0,.247-.029.963.963,0,0,0,.2-.07V-2.912h.936v.439h-.426V0h-.51V-1.262a.424.424,0,0,1-.061.023q-.037.012-.081.021T15.34-1.2a.725.725,0,0,1-.09.006q.01.049.016.088a.612.612,0,0,1,.006.09.726.726,0,0,1-.066.315.687.687,0,0,1-.183.236.827.827,0,0,1-.273.148,1.071,1.071,0,0,1-.337.052,1.028,1.028,0,0,1-.338-.053A1.057,1.057,0,0,1,13.8-.462a1.207,1.207,0,0,1-.226-.214A1.94,1.94,0,0,1,13.39-.94a2.578,2.578,0,0,1-.145-.295q-.063-.153-.114-.3l.436-.176q.035.111.079.229a2.291,2.291,0,0,0,.1.228,1.7,1.7,0,0,0,.123.207.993.993,0,0,0,.148.17.661.661,0,0,0,.176.115.5.5,0,0,0,.206.042.338.338,0,0,0,.263-.1.382.382,0,0,0,.091-.268.433.433,0,0,0-.033-.178.336.336,0,0,0-.092-.123.369.369,0,0,0-.139-.071.642.642,0,0,0-.174-.022h-.047l-.057,0-.059,0-.051,0v-.439l.036,0h.036a1.083,1.083,0,0,0,.189-.016.453.453,0,0,0,.152-.054.279.279,0,0,0,.1-.1.317.317,0,0,0,.037-.16.252.252,0,0,0-.086-.213.371.371,0,0,0-.232-.066.775.775,0,0,0-.215.03,1.7,1.7,0,0,0-.205.073L13.8-2.846a1.321,1.321,0,0,1,.288-.1,1.285,1.285,0,0,1,.282-.033.96.96,0,0,1,.325.053.781.781,0,0,1,.253.145.654.654,0,0,1,.164.216.616.616,0,0,1,.059.267.618.618,0,0,1-.087.319.791.791,0,0,1-.259.259l0,.01a.7.7,0,0,1,.086.049Q14.953-1.637,14.99-1.607Zm2.748-.865h-.426V0H16.8V-2.473h-.432v-.439h1.367Zm2.715,0h-.426V0h-.51V-.752l-.008,0a.883.883,0,0,1-.48.146q-.043,0-.121-.008a.739.739,0,0,1-.17-.04.852.852,0,0,1-.187-.1.655.655,0,0,1-.173-.174.964.964,0,0,1-.127-.276,1.414,1.414,0,0,1-.05-.4v-.869h-.436v-.439h2.688Zm-.936,0h-.807v.9a.868.868,0,0,0,.028.243.4.4,0,0,0,.076.149.247.247,0,0,0,.112.075.448.448,0,0,0,.137.021.448.448,0,0,0,.262-.073.71.71,0,0,0,.191-.21ZM22.861-.8a1.226,1.226,0,0,0,.215-.141.963.963,0,0,0,.153-.157.64.64,0,0,0,.092-.162.443.443,0,0,0,.03-.155.451.451,0,0,0-.014-.105.309.309,0,0,0-.046-.1.273.273,0,0,0-.083-.078.234.234,0,0,0-.125-.031.315.315,0,0,0-.148.038.547.547,0,0,0-.135.1.88.88,0,0,0-.114.145,1.13,1.13,0,0,0-.089.169V0h-.51V-.643l0,0-.062.038a.7.7,0,0,1-.091.044.787.787,0,0,1-.121.037.675.675,0,0,1-.15.016.783.783,0,0,1-.331-.073.929.929,0,0,1-.281-.2.975.975,0,0,1-.2-.3.9.9,0,0,1-.073-.361.868.868,0,0,1,.054-.3A.764.764,0,0,1,20.987-2a.735.735,0,0,1,.245-.174.8.8,0,0,1,.328-.064.8.8,0,0,1,.254.041,1.009,1.009,0,0,1,.27.148l0,0v-.424H20.48v-.439h3.76v.439H22.6v.461l0,0a.709.709,0,0,1,.141-.1.78.78,0,0,1,.143-.061.793.793,0,0,1,.133-.029.921.921,0,0,1,.113-.008.668.668,0,0,1,.307.068.728.728,0,0,1,.229.179.793.793,0,0,1,.144.251.854.854,0,0,1,.05.287.884.884,0,0,1-.053.3,1.126,1.126,0,0,1-.15.282,1.455,1.455,0,0,1-.236.253,1.908,1.908,0,0,1-.311.214ZM22.1-1.57q-.039-.039-.084-.08a.637.637,0,0,0-.1-.073.547.547,0,0,0-.115-.053.436.436,0,0,0-.137-.021.377.377,0,0,0-.158.031.342.342,0,0,0-.115.084.349.349,0,0,0-.07.123.466.466,0,0,0-.023.148.474.474,0,0,0,.029.168.4.4,0,0,0,.085.137.4.4,0,0,0,.133.092.438.438,0,0,0,.175.033.374.374,0,0,0,.185-.041.328.328,0,0,0,.116-.106.431.431,0,0,0,.061-.146.736.736,0,0,0,.018-.158Zm1.367-1.287-.057-.105q-.1-.191-.179-.326t-.141-.224a.963.963,0,0,0-.116-.139.4.4,0,0,0-.106-.074.356.356,0,0,0-.113-.03q-.06-.006-.134-.006h-.4V-4.2h.363q.154,0,.265.01a.574.574,0,0,1,.2.052.567.567,0,0,1,.167.126,1.5,1.5,0,0,1,.172.233q.093.149.212.374t.287.547Zm3.256.385H26.3V0h-.51V-2.473h-.432v-.439h.439a1.1,1.1,0,0,1-.109-.449.772.772,0,0,1,.057-.295.642.642,0,0,1,.175-.242.849.849,0,0,1,.3-.163,1.441,1.441,0,0,1,.44-.06,1.875,1.875,0,0,1,.579.088,2.111,2.111,0,0,1,.517.249,2.789,2.789,0,0,1,.465.389,4.78,4.78,0,0,1,.424.5h-.469q-.068-.068-.159-.154t-.2-.174q-.111-.088-.239-.171a2.19,2.19,0,0,0-.269-.148,1.685,1.685,0,0,0-.293-.1,1.245,1.245,0,0,0-.311-.039.821.821,0,0,0-.24.031.467.467,0,0,0-.168.088.344.344,0,0,0-.1.134.451.451,0,0,0-.031.171.6.6,0,0,0,.024.167.9.9,0,0,0,.075.179h.457Zm2.545,0h-.426V0h-.51V-.574l-.012,0a.908.908,0,0,1-.241.112.88.88,0,0,1-.247.036.875.875,0,0,1-.35-.073,1,1,0,0,1-.3-.2,1.009,1.009,0,0,1-.212-.3.852.852,0,0,1-.08-.366.822.822,0,0,1,.068-.335.863.863,0,0,1,.186-.271.854.854,0,0,1,.275-.181.875.875,0,0,1,.338-.065q.031,0,.09,0a.807.807,0,0,1,.134.024,1.163,1.163,0,0,1,.164.058.946.946,0,0,1,.181.1l.008,0v-.443H26.586v-.439h2.682Zm-.928.906a.62.62,0,0,0-.23-.18.59.59,0,0,0-.223-.049.486.486,0,0,0-.188.036.476.476,0,0,0-.15.1.458.458,0,0,0-.1.142.4.4,0,0,0-.036.168.446.446,0,0,0,.033.167.5.5,0,0,0,.093.149.474.474,0,0,0,.145.108.424.424,0,0,0,.19.042.434.434,0,0,0,.189-.041.5.5,0,0,0,.147-.105.486.486,0,0,0,.1-.144.39.39,0,0,0,.034-.155Zm2.955.289H31.2a2.35,2.35,0,0,1-.372-.026,1.62,1.62,0,0,1-.317-.085,4.216,4.216,0,0,1-.705.467l-.268-.389q.158-.088.295-.167a2.917,2.917,0,0,0,.25-.161,1.022,1.022,0,0,1-.25-.32.813.813,0,0,1-.084-.357.721.721,0,0,1,.046-.258.646.646,0,0,1,.13-.212.614.614,0,0,1,.2-.144.626.626,0,0,1,.26-.053.651.651,0,0,1,.268.055.655.655,0,0,1,.212.148.681.681,0,0,1,.139.219.716.716,0,0,1,.05.268A.775.775,0,0,1,31-2.007a1.222,1.222,0,0,1-.153.274q.049.012.094.02l.09.014q.045.006.094.008l.105,0h.021l.041,0V-2.912h.936v.439H31.8v3h-.51V.271a.63.63,0,0,1-.151.066.687.687,0,0,1-.2.025A.772.772,0,0,1,30.638.3.756.756,0,0,1,30.4.141a.749.749,0,0,1-.157-.233.693.693,0,0,1-.057-.276.641.641,0,0,1,.058-.271A.7.7,0,0,1,30.4-.858.715.715,0,0,1,30.627-1a.752.752,0,0,1,.279-.052,1.008,1.008,0,0,1,.164.018.78.78,0,0,1,.225.082Zm.008.8a.454.454,0,0,0-.328-.16.3.3,0,0,0-.132.027.278.278,0,0,0-.092.07.292.292,0,0,0-.054.095.312.312,0,0,0-.018.1.3.3,0,0,0,.019.1.267.267,0,0,0,.056.091.293.293,0,0,0,.091.065.287.287,0,0,0,.124.025A.329.329,0,0,0,31.1-.085a.38.38,0,0,0,.105-.067.31.31,0,0,0,.07-.093.235.235,0,0,0,.025-.1Zm-.748-1.8a.482.482,0,0,0-.01-.1.3.3,0,0,0-.029-.084.181.181,0,0,0-.049-.059.106.106,0,0,0-.066-.022.108.108,0,0,0-.064.02.156.156,0,0,0-.046.054.277.277,0,0,0-.027.078.472.472,0,0,0-.009.093.485.485,0,0,0,.041.2.4.4,0,0,0,.129.159.725.725,0,0,0,.1-.165A.457.457,0,0,0,30.554-2.275Zm2.906-.2h-.426V0h-.51V-2.473h-.432v-.439h1.367Zm.027-.439h3.328v.439H36.39V0h-.51V-1.209H34.875A.762.762,0,0,1,34.6-1.1l0,.008a2.144,2.144,0,0,0,.127.227,2.258,2.258,0,0,0,.157.215,2.7,2.7,0,0,0,.192.209q.105.1.23.209l-.322.357a3.206,3.206,0,0,1-.27-.271q-.133-.149-.257-.312t-.235-.33q-.111-.168-.207-.327t-.172-.3q-.076-.143-.129-.254l.432-.221a.859.859,0,0,0,.157.276.239.239,0,0,0,.171.087.148.148,0,0,0,.089-.027.205.205,0,0,0,.063-.075.407.407,0,0,0,.036-.114.845.845,0,0,0,.012-.146,1.007,1.007,0,0,0-.045-.3,1.046,1.046,0,0,0-.139-.281h-1Zm2.393,1.268v-.828h-.861a1.83,1.83,0,0,1,.116.3,1.118,1.118,0,0,1,.042.308,1.044,1.044,0,0,1-.006.111q-.006.055-.016.109ZM40.312-.8a1.226,1.226,0,0,0,.215-.141A.963.963,0,0,0,40.68-1.1a.641.641,0,0,0,.092-.162.443.443,0,0,0,.03-.155.451.451,0,0,0-.014-.105.309.309,0,0,0-.046-.1A.273.273,0,0,0,40.66-1.7a.234.234,0,0,0-.125-.031.315.315,0,0,0-.148.038.547.547,0,0,0-.135.1.88.88,0,0,0-.114.145,1.13,1.13,0,0,0-.089.169V0h-.51V-.643l0,0-.062.038a.7.7,0,0,1-.091.044.787.787,0,0,1-.121.037.675.675,0,0,1-.15.016.783.783,0,0,1-.331-.073.929.929,0,0,1-.281-.2.976.976,0,0,1-.2-.3.9.9,0,0,1-.073-.361.868.868,0,0,1,.054-.3A.764.764,0,0,1,38.438-2a.735.735,0,0,1,.245-.174.8.8,0,0,1,.328-.064.8.8,0,0,1,.254.041,1.009,1.009,0,0,1,.27.148l0,0v-.424H37.931v-.439h3.76v.439H40.049v.461l0,0a.709.709,0,0,1,.141-.1.78.78,0,0,1,.143-.061.793.793,0,0,1,.133-.029.921.921,0,0,1,.113-.008.668.668,0,0,1,.307.068.728.728,0,0,1,.229.179.793.793,0,0,1,.144.251.854.854,0,0,1,.05.287.884.884,0,0,1-.053.3,1.126,1.126,0,0,1-.15.282,1.455,1.455,0,0,1-.236.253,1.908,1.908,0,0,1-.311.214Zm-.762-.77q-.039-.039-.084-.08a.637.637,0,0,0-.1-.073.547.547,0,0,0-.115-.053.436.436,0,0,0-.137-.021.377.377,0,0,0-.158.031.342.342,0,0,0-.115.084.349.349,0,0,0-.07.123.466.466,0,0,0-.023.148.474.474,0,0,0,.029.168.4.4,0,0,0,.085.137A.4.4,0,0,0,39-1.014a.438.438,0,0,0,.175.033.374.374,0,0,0,.185-.041.328.328,0,0,0,.116-.106.431.431,0,0,0,.061-.146.736.736,0,0,0,.018-.158Zm3.371-.9H42.5V0h-.51V-2.473h-.432v-.439h1.367Z" transform="translate(58 -51)" fill="#ecffff" stroke="#ecffff" stroke-width="0.1"/>
    <path id="Path_44734" data-name="Path 44734" d="M3.533-3.642V0h-.85V-1.54H1.2V0H.353V-3.642H1.2V-2.12h1.48V-3.642Zm2.062,1.01a1.5,1.5,0,0,1,.537.093,1.179,1.179,0,0,1,.416.265,1.194,1.194,0,0,1,.27.419,1.511,1.511,0,0,1,.1.554,1.538,1.538,0,0,1-.1.559,1.2,1.2,0,0,1-.27.423,1.185,1.185,0,0,1-.416.267A1.479,1.479,0,0,1,5.595.04a1.5,1.5,0,0,1-.541-.094,1.208,1.208,0,0,1-.42-.267,1.185,1.185,0,0,1-.273-.423,1.538,1.538,0,0,1-.1-.559,1.511,1.511,0,0,1,.1-.554,1.176,1.176,0,0,1,.273-.419,1.2,1.2,0,0,1,.42-.265A1.515,1.515,0,0,1,5.595-2.633Zm0,2.1a.44.44,0,0,0,.394-.189A1.044,1.044,0,0,0,6.115-1.3a1.037,1.037,0,0,0-.126-.572.441.441,0,0,0-.394-.188.452.452,0,0,0-.4.188,1.029,1.029,0,0,0-.128.572,1.036,1.036,0,0,0,.128.574A.451.451,0,0,0,5.595-.535ZM8.35-2.313a1.883,1.883,0,0,1,.155-.13.908.908,0,0,1,.171-.1,1.016,1.016,0,0,1,.2-.065A1.06,1.06,0,0,1,9.1-2.633a.908.908,0,0,1,.376.074.781.781,0,0,1,.276.2.885.885,0,0,1,.17.313,1.3,1.3,0,0,1,.057.394V0H9.21V-1.648a.453.453,0,0,0-.087-.3.314.314,0,0,0-.257-.106A.542.542,0,0,0,8.626-2a.961.961,0,0,0-.216.146V0H7.635V-2.593h.48a.182.182,0,0,1,.19.13Zm3.66-.32a1.5,1.5,0,0,1,.537.093,1.179,1.179,0,0,1,.416.265,1.194,1.194,0,0,1,.27.419,1.511,1.511,0,0,1,.1.554,1.538,1.538,0,0,1-.1.559,1.2,1.2,0,0,1-.27.423,1.185,1.185,0,0,1-.416.267A1.479,1.479,0,0,1,12.01.04a1.5,1.5,0,0,1-.541-.094,1.208,1.208,0,0,1-.42-.267,1.185,1.185,0,0,1-.273-.423,1.538,1.538,0,0,1-.1-.559,1.511,1.511,0,0,1,.1-.554,1.176,1.176,0,0,1,.273-.419,1.2,1.2,0,0,1,.42-.265A1.515,1.515,0,0,1,12.01-2.633Zm0,2.1A.44.44,0,0,0,12.4-.724,1.044,1.044,0,0,0,12.53-1.3,1.037,1.037,0,0,0,12.4-1.87a.441.441,0,0,0-.394-.188.452.452,0,0,0-.4.188,1.029,1.029,0,0,0-.128.572,1.036,1.036,0,0,0,.128.574A.451.451,0,0,0,12.01-.535Zm4.365-2.058V0h-.48a.182.182,0,0,1-.19-.13L15.66-.28a1.5,1.5,0,0,1-.155.131.949.949,0,0,1-.171.1,1.016,1.016,0,0,1-.2.065A1.06,1.06,0,0,1,14.9.04a.908.908,0,0,1-.376-.074.774.774,0,0,1-.276-.206.9.9,0,0,1-.17-.312,1.293,1.293,0,0,1-.057-.395V-2.593H14.8V-.947a.452.452,0,0,0,.088.3.316.316,0,0,0,.257.105A.542.542,0,0,0,15.384-.6.961.961,0,0,0,15.6-.745V-2.593Zm1.58.4a1.09,1.09,0,0,1,.276-.33.573.573,0,0,1,.359-.12.463.463,0,0,1,.285.082l-.05.57a.12.12,0,0,1-.041.075.136.136,0,0,1-.079.02l-.052,0L18.585-1.9l-.071-.007a.648.648,0,0,0-.066,0,.393.393,0,0,0-.271.09.708.708,0,0,0-.171.25V0H17.23V-2.593h.46a.392.392,0,0,1,.1.01.169.169,0,0,1,.065.031.133.133,0,0,1,.04.056.507.507,0,0,1,.024.085Zm3.16.168a.2.2,0,0,1-.064.067.167.167,0,0,1-.086.02.276.276,0,0,1-.11-.024l-.119-.051a1.294,1.294,0,0,0-.144-.051.642.642,0,0,0-.183-.024.386.386,0,0,0-.226.056.181.181,0,0,0-.079.156.157.157,0,0,0,.051.12.47.47,0,0,0,.136.084,1.879,1.879,0,0,0,.193.069q.108.032.22.072a1.959,1.959,0,0,1,.22.094.823.823,0,0,1,.193.132.591.591,0,0,1,.136.191.648.648,0,0,1,.051.27.888.888,0,0,1-.07.355.754.754,0,0,1-.209.28.987.987,0,0,1-.343.183,1.543,1.543,0,0,1-.469.065A1.426,1.426,0,0,1,19.95.015a1.835,1.835,0,0,1-.256-.068,1.4,1.4,0,0,1-.229-.1.992.992,0,0,1-.18-.126l.18-.285a.23.23,0,0,1,.076-.079.222.222,0,0,1,.119-.029.244.244,0,0,1,.121.03l.116.065a.969.969,0,0,0,.146.065.634.634,0,0,0,.211.03A.537.537,0,0,0,20.407-.5a.269.269,0,0,0,.1-.051.2.2,0,0,0,.055-.072.2.2,0,0,0,.017-.083.168.168,0,0,0-.052-.127.457.457,0,0,0-.138-.086A1.676,1.676,0,0,0,20.2-.989q-.109-.031-.221-.071a1.777,1.777,0,0,1-.221-.1A.761.761,0,0,1,19.56-1.3a.662.662,0,0,1-.137-.211.78.78,0,0,1-.052-.3.788.788,0,0,1,.064-.314.728.728,0,0,1,.191-.261.939.939,0,0,1,.32-.179,1.384,1.384,0,0,1,.45-.066,1.447,1.447,0,0,1,.271.025,1.386,1.386,0,0,1,.246.07,1.179,1.179,0,0,1,.21.106,1.008,1.008,0,0,1,.167.134Zm4.02.64V0H24.29V-1.385L22.97-3.642h.745a.27.27,0,0,1,.174.051.416.416,0,0,1,.106.131L24.51-2.4q.065.125.118.234t.093.214q.037-.107.086-.216T24.92-2.4l.51-1.06a.481.481,0,0,1,.042-.065.327.327,0,0,1,.059-.059.289.289,0,0,1,.078-.042.274.274,0,0,1,.1-.016h.75Zm2.458-1.248a1.5,1.5,0,0,1,.538.093,1.179,1.179,0,0,1,.416.265,1.194,1.194,0,0,1,.27.419,1.511,1.511,0,0,1,.1.554,1.538,1.538,0,0,1-.1.559,1.2,1.2,0,0,1-.27.423,1.185,1.185,0,0,1-.416.267,1.479,1.479,0,0,1-.538.094,1.5,1.5,0,0,1-.541-.094,1.208,1.208,0,0,1-.42-.267,1.185,1.185,0,0,1-.273-.423,1.538,1.538,0,0,1-.1-.559,1.511,1.511,0,0,1,.1-.554,1.176,1.176,0,0,1,.273-.419,1.2,1.2,0,0,1,.42-.265A1.515,1.515,0,0,1,27.592-2.633Zm0,2.1a.44.44,0,0,0,.394-.189,1.044,1.044,0,0,0,.126-.574,1.037,1.037,0,0,0-.126-.572.441.441,0,0,0-.394-.188.452.452,0,0,0-.4.188,1.029,1.029,0,0,0-.128.572,1.036,1.036,0,0,0,.128.574A.451.451,0,0,0,27.592-.535Zm4.365-2.058V0h-.48a.182.182,0,0,1-.19-.13l-.045-.15a1.5,1.5,0,0,1-.155.131.949.949,0,0,1-.171.1,1.016,1.016,0,0,1-.2.065,1.06,1.06,0,0,1-.231.024.908.908,0,0,1-.376-.074.774.774,0,0,1-.276-.206.9.9,0,0,1-.17-.312,1.292,1.292,0,0,1-.058-.395V-2.593h.775V-.947a.452.452,0,0,0,.087.3.316.316,0,0,0,.257.105A.542.542,0,0,0,30.966-.6a.961.961,0,0,0,.216-.146V-2.593Zm1.58.4a1.09,1.09,0,0,1,.276-.33.573.573,0,0,1,.359-.12.463.463,0,0,1,.285.082l-.05.57a.12.12,0,0,1-.041.075.136.136,0,0,1-.079.02l-.052,0L34.167-1.9,34.1-1.911a.648.648,0,0,0-.066,0,.393.393,0,0,0-.271.09.708.708,0,0,0-.171.25V0h-.775V-2.593h.46a.392.392,0,0,1,.1.01.169.169,0,0,1,.065.031.133.133,0,0,1,.04.056.507.507,0,0,1,.024.085Zm5.45-.78H37.962V0h-.845V-2.973H36.092v-.67h2.9Zm.93.78a1.09,1.09,0,0,1,.276-.33.573.573,0,0,1,.359-.12.463.463,0,0,1,.285.082l-.05.57a.12.12,0,0,1-.041.075.136.136,0,0,1-.079.02l-.052,0L40.547-1.9l-.071-.007a.648.648,0,0,0-.066,0,.393.393,0,0,0-.271.09.708.708,0,0,0-.171.25V0h-.775V-2.593h.46a.392.392,0,0,1,.1.01.169.169,0,0,1,.065.031.133.133,0,0,1,.04.056.507.507,0,0,1,.024.085Zm3.838-.4V0h-.48a.182.182,0,0,1-.19-.13L43.04-.28a1.5,1.5,0,0,1-.155.131.949.949,0,0,1-.171.1,1.016,1.016,0,0,1-.2.065,1.06,1.06,0,0,1-.231.024.908.908,0,0,1-.376-.074.774.774,0,0,1-.276-.206.9.9,0,0,1-.17-.312A1.292,1.292,0,0,1,41.4-.947V-2.593h.775V-.947a.452.452,0,0,0,.087.3.316.316,0,0,0,.258.105A.542.542,0,0,0,42.764-.6a.961.961,0,0,0,.216-.146V-2.593Zm2.5.568a.2.2,0,0,1-.064.067.167.167,0,0,1-.086.02A.276.276,0,0,1,46-1.961l-.119-.051a1.294,1.294,0,0,0-.144-.051.642.642,0,0,0-.182-.024.386.386,0,0,0-.226.056.181.181,0,0,0-.079.156.157.157,0,0,0,.051.12.47.47,0,0,0,.136.084,1.879,1.879,0,0,0,.192.069q.108.032.22.072a1.959,1.959,0,0,1,.22.094.823.823,0,0,1,.192.132.591.591,0,0,1,.136.191.648.648,0,0,1,.051.27.888.888,0,0,1-.07.355.754.754,0,0,1-.209.28.987.987,0,0,1-.343.183,1.543,1.543,0,0,1-.469.065,1.426,1.426,0,0,1-.265-.025,1.836,1.836,0,0,1-.256-.068,1.4,1.4,0,0,1-.229-.1.992.992,0,0,1-.18-.126l.18-.285a.23.23,0,0,1,.076-.079A.222.222,0,0,1,44.8-.673a.244.244,0,0,1,.121.03l.116.065a.969.969,0,0,0,.146.065.634.634,0,0,0,.211.03A.537.537,0,0,0,45.55-.5a.269.269,0,0,0,.1-.051A.2.2,0,0,0,45.7-.625a.2.2,0,0,0,.017-.083.168.168,0,0,0-.053-.127.457.457,0,0,0-.137-.086,1.677,1.677,0,0,0-.194-.067q-.109-.031-.221-.071a1.777,1.777,0,0,1-.221-.1A.761.761,0,0,1,44.7-1.3a.662.662,0,0,1-.138-.211.78.78,0,0,1-.052-.3.788.788,0,0,1,.064-.314.728.728,0,0,1,.191-.261.939.939,0,0,1,.32-.179,1.383,1.383,0,0,1,.45-.066,1.447,1.447,0,0,1,.271.025,1.386,1.386,0,0,1,.246.07,1.18,1.18,0,0,1,.21.106,1.008,1.008,0,0,1,.167.134ZM48.095.04a.914.914,0,0,1-.326-.054.648.648,0,0,1-.237-.153.65.65,0,0,1-.146-.239.924.924,0,0,1-.05-.312v-1.34h-.22a.147.147,0,0,1-.1-.039.146.146,0,0,1-.042-.114v-.3l.413-.08.153-.632a.154.154,0,0,1,.17-.12h.405v.758h.642v.53H48.11V-.77a.242.242,0,0,0,.044.149.148.148,0,0,0,.126.059.248.248,0,0,0,.071-.009.284.284,0,0,0,.05-.02l.04-.02a.1.1,0,0,1,.044-.009.09.09,0,0,1,.056.016.2.2,0,0,1,.044.051l.235.368a1.07,1.07,0,0,1-.338.169A1.341,1.341,0,0,1,48.095.04Z" transform="translate(145 -51)" fill="#ecffff"/>
    <path id="Path_44733" data-name="Path 44733" d="M.652-1.252a3.481,3.481,0,0,0,.023.4A3.524,3.524,0,0,0,.743-.46a3.929,3.929,0,0,0,.108.379A3.032,3.032,0,0,0,1,.272a.238.238,0,0,1,.03.085.136.136,0,0,1-.007.065A.132.132,0,0,1,.987.47.283.283,0,0,1,.94.506L.664.666A3.329,3.329,0,0,1,.414.21a3.294,3.294,0,0,1-.17-.471,3.421,3.421,0,0,1-.1-.487,4.06,4.06,0,0,1-.031-.5,4.06,4.06,0,0,1,.031-.5,3.421,3.421,0,0,1,.1-.487,3.294,3.294,0,0,1,.17-.471,3.43,3.43,0,0,1,.25-.458l.276.16a.283.283,0,0,1,.047.036.132.132,0,0,1,.032.048.136.136,0,0,1,.007.065A.238.238,0,0,1,1-2.778a3.032,3.032,0,0,0-.145.353,3.9,3.9,0,0,0-.108.38,3.568,3.568,0,0,0-.068.395A3.481,3.481,0,0,0,.652-1.252Zm2.37.138-.27-.8q-.03-.076-.064-.179T2.62-2.314q-.03.122-.064.226t-.064.18l-.268.794ZM4.1,0H3.572A.229.229,0,0,1,3.43-.041a.26.26,0,0,1-.082-.105L3.176-.654H2.068L1.9-.146a.243.243,0,0,1-.079.1A.22.22,0,0,1,1.676,0H1.148L2.276-2.914h.692Zm2.57-1.51H7.7V-.28a1.531,1.531,0,0,1-.477.238A1.875,1.875,0,0,1,6.7.032a1.818,1.818,0,0,1-.655-.113,1.509,1.509,0,0,1-.505-.312,1.369,1.369,0,0,1-.324-.472A1.523,1.523,0,0,1,5.1-1.458a1.614,1.614,0,0,1,.108-.6,1.349,1.349,0,0,1,.309-.471A1.4,1.4,0,0,1,6-2.836a1.757,1.757,0,0,1,.637-.11,1.855,1.855,0,0,1,.342.03,1.683,1.683,0,0,1,.3.082,1.358,1.358,0,0,1,.247.124,1.33,1.33,0,0,1,.2.156l-.2.3a.188.188,0,0,1-.119.086.21.21,0,0,1-.157-.036q-.08-.048-.151-.083a.921.921,0,0,0-.145-.057A.95.95,0,0,0,6.8-2.378a1.531,1.531,0,0,0-.184-.01.839.839,0,0,0-.342.067.733.733,0,0,0-.259.189.855.855,0,0,0-.165.293,1.181,1.181,0,0,0-.058.381,1.226,1.226,0,0,0,.064.412.852.852,0,0,0,.181.3.774.774,0,0,0,.28.189.967.967,0,0,0,.361.065A.939.939,0,0,0,6.9-.512,1.235,1.235,0,0,0,7.09-.576v-.442H6.8a.14.14,0,0,1-.1-.034.113.113,0,0,1-.036-.086Zm2.426-.6a1.2,1.2,0,0,1,.43.074.943.943,0,0,1,.333.212.955.955,0,0,1,.216.335,1.209,1.209,0,0,1,.077.443,1.23,1.23,0,0,1-.077.447.962.962,0,0,1-.216.338.948.948,0,0,1-.333.214,1.184,1.184,0,0,1-.43.075,1.2,1.2,0,0,1-.433-.075.966.966,0,0,1-.336-.214A.948.948,0,0,1,8.105-.6a1.23,1.23,0,0,1-.077-.447,1.209,1.209,0,0,1,.077-.443.941.941,0,0,1,.218-.335.962.962,0,0,1,.336-.212A1.212,1.212,0,0,1,9.092-2.106Zm0,1.678a.352.352,0,0,0,.315-.151.835.835,0,0,0,.1-.459.83.83,0,0,0-.1-.458.353.353,0,0,0-.315-.15.362.362,0,0,0-.322.15.823.823,0,0,0-.1.458.829.829,0,0,0,.1.459A.361.361,0,0,0,9.092-.428ZM12.42-2.074,11.616,0h-.564l-.8-2.074h.516a.191.191,0,0,1,.111.031.154.154,0,0,1,.061.077l.288.93q.038.114.067.222t.051.216a3.322,3.322,0,0,1,.122-.438l.3-.93a.156.156,0,0,1,.06-.077.176.176,0,0,1,.1-.031ZM13.44.032a.731.731,0,0,1-.261-.043.518.518,0,0,1-.19-.122.52.52,0,0,1-.117-.191.739.739,0,0,1-.04-.25V-1.646h-.176a.117.117,0,0,1-.082-.031.117.117,0,0,1-.034-.091V-2.01l.33-.064.122-.506a.123.123,0,0,1,.136-.1h.324v.606h.514v.424h-.514v1.03a.194.194,0,0,0,.035.119.118.118,0,0,0,.1.047.2.2,0,0,0,.057-.007.227.227,0,0,0,.04-.016l.032-.016A.082.082,0,0,1,13.752-.5a.072.072,0,0,1,.045.013.161.161,0,0,1,.035.041l.188.294a.856.856,0,0,1-.27.135A1.073,1.073,0,0,1,13.44.032Zm.786-.346a.332.332,0,0,1,.027-.134.339.339,0,0,1,.074-.108.353.353,0,0,1,.111-.073.357.357,0,0,1,.14-.027.351.351,0,0,1,.138.027.366.366,0,0,1,.112.073.331.331,0,0,1,.075.108.332.332,0,0,1,.027.134.339.339,0,0,1-.027.135.328.328,0,0,1-.075.109A.351.351,0,0,1,14.716,0a.363.363,0,0,1-.138.026A.369.369,0,0,1,14.438,0a.339.339,0,0,1-.111-.072.336.336,0,0,1-.074-.109A.339.339,0,0,1,14.226-.314ZM17.3-2.106a1.2,1.2,0,0,1,.43.074.943.943,0,0,1,.333.212.955.955,0,0,1,.216.335,1.209,1.209,0,0,1,.077.443,1.23,1.23,0,0,1-.077.447.962.962,0,0,1-.216.338.948.948,0,0,1-.333.214,1.184,1.184,0,0,1-.43.075,1.2,1.2,0,0,1-.433-.075.966.966,0,0,1-.336-.214A.948.948,0,0,1,16.311-.6a1.23,1.23,0,0,1-.077-.447,1.209,1.209,0,0,1,.077-.443.941.941,0,0,1,.218-.335.962.962,0,0,1,.336-.212A1.212,1.212,0,0,1,17.3-2.106Zm0,1.678a.352.352,0,0,0,.315-.151.835.835,0,0,0,.1-.459.83.83,0,0,0-.1-.458.353.353,0,0,0-.315-.15.362.362,0,0,0-.322.15.823.823,0,0,0-.1.458.829.829,0,0,0,.1.459A.361.361,0,0,0,17.3-.428ZM18.838,0V-1.648L18.7-1.676a.281.281,0,0,1-.113-.05.12.12,0,0,1-.043-.1V-2.07h.292v-.118a.868.868,0,0,1,.057-.322.681.681,0,0,1,.164-.246.738.738,0,0,1,.261-.158,1.02,1.02,0,0,1,.35-.056,1.009,1.009,0,0,1,.14.009.992.992,0,0,1,.134.029l-.012.3a.106.106,0,0,1-.016.053.107.107,0,0,1-.037.034.182.182,0,0,1-.049.019.231.231,0,0,1-.052.006.6.6,0,0,0-.146.016.234.234,0,0,0-.107.057.256.256,0,0,0-.065.108.55.55,0,0,0-.022.169v.1h.486v.424h-.466V0ZM21.9,0h-.68V-2.914h.68Zm1.11-1.85a1.506,1.506,0,0,1,.124-.1.726.726,0,0,1,.137-.081.813.813,0,0,1,.158-.052.848.848,0,0,1,.185-.019.726.726,0,0,1,.3.059.625.625,0,0,1,.221.164.708.708,0,0,1,.136.25,1.037,1.037,0,0,1,.046.315V0h-.62V-1.318a.363.363,0,0,0-.07-.237.251.251,0,0,0-.206-.085.433.433,0,0,0-.191.043.769.769,0,0,0-.173.117V0h-.62V-2.074h.384a.146.146,0,0,1,.152.1Zm3.042.332a.392.392,0,0,0-.152-.109.482.482,0,0,0-.172-.031.365.365,0,0,0-.158.034.322.322,0,0,0-.125.109.581.581,0,0,0-.083.2,1.211,1.211,0,0,0-.03.29,1.343,1.343,0,0,0,.024.276.569.569,0,0,0,.067.181.26.26,0,0,0,.1.1.3.3,0,0,0,.134.03.536.536,0,0,0,.123-.013.432.432,0,0,0,.1-.037.419.419,0,0,0,.087-.061.829.829,0,0,0,.081-.085Zm.62-1.476V0h-.384a.146.146,0,0,1-.152-.1l-.048-.158a1.216,1.216,0,0,1-.13.12.818.818,0,0,1-.147.093.777.777,0,0,1-.17.06.875.875,0,0,1-.2.021.639.639,0,0,1-.3-.072A.691.691,0,0,1,24.9-.248a1.05,1.05,0,0,1-.157-.333,1.617,1.617,0,0,1-.057-.449,1.4,1.4,0,0,1,.064-.431,1.057,1.057,0,0,1,.181-.344.84.84,0,0,1,.281-.227.8.8,0,0,1,.362-.082.707.707,0,0,1,.272.046.738.738,0,0,1,.2.124v-1.05Zm1.13.92V0h-.62V-2.074Zm.064-.568a.328.328,0,0,1-.03.139.366.366,0,0,1-.082.114.4.4,0,0,1-.121.078.375.375,0,0,1-.147.029.349.349,0,0,1-.142-.029.4.4,0,0,1-.117-.078.36.36,0,0,1-.08-.114.337.337,0,0,1-.029-.139.349.349,0,0,1,.029-.142.369.369,0,0,1,.08-.116.375.375,0,0,1,.117-.078.36.36,0,0,1,.142-.028.387.387,0,0,1,.147.028.378.378,0,0,1,.121.078.374.374,0,0,1,.082.116A.339.339,0,0,1,27.862-2.642Zm1.516,1.8a2.058,2.058,0,0,0-.306.032.743.743,0,0,0-.19.06.23.23,0,0,0-.1.082.194.194,0,0,0-.027.1.174.174,0,0,0,.058.149.283.283,0,0,0,.17.043A.492.492,0,0,0,29.2-.42a.64.64,0,0,0,.182-.136Zm-1.116-.942a1.261,1.261,0,0,1,.417-.247,1.462,1.462,0,0,1,.491-.081.9.9,0,0,1,.339.061.73.73,0,0,1,.256.17.743.743,0,0,1,.161.259.931.931,0,0,1,.056.328V0H29.7a.29.29,0,0,1-.133-.024.183.183,0,0,1-.075-.1l-.044-.114q-.078.066-.15.116a.951.951,0,0,1-.149.085.736.736,0,0,1-.164.052,1.009,1.009,0,0,1-.193.017.846.846,0,0,1-.258-.037.538.538,0,0,1-.2-.109.479.479,0,0,1-.125-.179.646.646,0,0,1-.044-.247.516.516,0,0,1,.056-.227.56.56,0,0,1,.194-.21,1.233,1.233,0,0,1,.372-.159,2.5,2.5,0,0,1,.59-.072V-1.3a.38.38,0,0,0-.075-.263.276.276,0,0,0-.213-.081.565.565,0,0,0-.18.024.809.809,0,0,0-.125.054q-.055.03-.107.054a.294.294,0,0,1-.124.024.179.179,0,0,1-.108-.032.278.278,0,0,1-.072-.076Zm4.48,1.252a.622.622,0,0,0,.243-.045.492.492,0,0,0,.181-.129.57.57,0,0,0,.113-.205.9.9,0,0,0,.039-.275V-2.914h.676v1.726a1.348,1.348,0,0,1-.087.492,1.1,1.1,0,0,1-.249.386,1.124,1.124,0,0,1-.394.252,1.434,1.434,0,0,1-.522.09,1.44,1.44,0,0,1-.524-.09,1.124,1.124,0,0,1-.394-.252A1.092,1.092,0,0,1,31.576-.7a1.362,1.362,0,0,1-.086-.492V-2.914h.676V-1.19a.9.9,0,0,0,.039.275.58.58,0,0,0,.113.206.486.486,0,0,0,.181.13A.622.622,0,0,0,32.742-.534ZM35.028-1.85a1.506,1.506,0,0,1,.124-.1.726.726,0,0,1,.137-.081.813.813,0,0,1,.158-.052.848.848,0,0,1,.185-.019.726.726,0,0,1,.3.059.625.625,0,0,1,.221.164.708.708,0,0,1,.136.25,1.037,1.037,0,0,1,.046.315V0h-.62V-1.318a.363.363,0,0,0-.07-.237.251.251,0,0,0-.206-.085.433.433,0,0,0-.191.043.769.769,0,0,0-.173.117V0h-.62V-2.074h.384a.146.146,0,0,1,.152.1Zm3.042.332a.392.392,0,0,0-.152-.109.482.482,0,0,0-.172-.031.365.365,0,0,0-.158.034.322.322,0,0,0-.125.109.58.58,0,0,0-.083.2,1.211,1.211,0,0,0-.03.29,1.343,1.343,0,0,0,.024.276.569.569,0,0,0,.067.181.26.26,0,0,0,.1.1.3.3,0,0,0,.134.03A.536.536,0,0,0,37.8-.457a.432.432,0,0,0,.1-.037.419.419,0,0,0,.087-.061A.829.829,0,0,0,38.07-.64Zm.62-1.476V0h-.384a.146.146,0,0,1-.152-.1l-.048-.158a1.216,1.216,0,0,1-.13.12.818.818,0,0,1-.147.093.778.778,0,0,1-.17.06.875.875,0,0,1-.2.021.639.639,0,0,1-.3-.072.691.691,0,0,1-.238-.208,1.05,1.05,0,0,1-.157-.333,1.617,1.617,0,0,1-.057-.449,1.4,1.4,0,0,1,.064-.431,1.057,1.057,0,0,1,.181-.344.84.84,0,0,1,.281-.227.8.8,0,0,1,.362-.082.707.707,0,0,1,.272.046.739.739,0,0,1,.2.124v-1.05Zm1.786,1.708a.547.547,0,0,0-.019-.144.349.349,0,0,0-.062-.125.315.315,0,0,0-.113-.089.386.386,0,0,0-.17-.034.371.371,0,0,0-.276.1.526.526,0,0,0-.132.291Zm-.78.36a.585.585,0,0,0,.158.377.47.47,0,0,0,.33.117.591.591,0,0,0,.186-.026.938.938,0,0,0,.139-.058l.112-.058A.233.233,0,0,1,40.728-.6a.128.128,0,0,1,.112.054l.18.222a.922.922,0,0,1-.207.179,1.076,1.076,0,0,1-.228.108,1.236,1.236,0,0,1-.234.054,1.756,1.756,0,0,1-.223.015,1.164,1.164,0,0,1-.409-.071.94.94,0,0,1-.334-.211A1,1,0,0,1,39.159-.6a1.3,1.3,0,0,1-.083-.484,1.1,1.1,0,0,1,.071-.394.97.97,0,0,1,.2-.326.971.971,0,0,1,.322-.222,1.063,1.063,0,0,1,.427-.082,1.068,1.068,0,0,1,.377.064.82.82,0,0,1,.294.186.849.849,0,0,1,.192.3,1.1,1.1,0,0,1,.069.4.875.875,0,0,1-.006.114A.18.18,0,0,1,41-.972a.084.084,0,0,1-.043.036.2.2,0,0,1-.069.01ZM42-1.754a.872.872,0,0,1,.221-.264.458.458,0,0,1,.287-.1.37.37,0,0,1,.228.066l-.04.456a.1.1,0,0,1-.033.06.109.109,0,0,1-.063.016l-.042,0-.054,0-.057-.006-.053,0a.315.315,0,0,0-.217.072.566.566,0,0,0-.137.2V0h-.62V-2.074h.368a.314.314,0,0,1,.077.008.135.135,0,0,1,.052.025A.107.107,0,0,1,41.947-2a.406.406,0,0,1,.019.068ZM43.762.032A.731.731,0,0,1,43.5-.011a.518.518,0,0,1-.19-.122.52.52,0,0,1-.117-.191.739.739,0,0,1-.04-.25V-1.646h-.176a.117.117,0,0,1-.082-.031.117.117,0,0,1-.034-.091V-2.01l.33-.064.122-.506a.123.123,0,0,1,.136-.1h.324v.606h.514v.424h-.514v1.03a.194.194,0,0,0,.035.119.118.118,0,0,0,.1.047.2.2,0,0,0,.057-.007.227.227,0,0,0,.04-.016l.032-.016A.082.082,0,0,1,44.074-.5a.072.072,0,0,1,.045.013.161.161,0,0,1,.035.041l.188.294a.856.856,0,0,1-.27.135A1.073,1.073,0,0,1,43.762.032ZM45.7-.844a2.058,2.058,0,0,0-.306.032.743.743,0,0,0-.19.06.23.23,0,0,0-.1.082.194.194,0,0,0-.027.1.174.174,0,0,0,.058.149.283.283,0,0,0,.17.043.492.492,0,0,0,.21-.042A.64.64,0,0,0,45.7-.556Zm-1.116-.942A1.261,1.261,0,0,1,45-2.033a1.462,1.462,0,0,1,.491-.081.9.9,0,0,1,.339.061.73.73,0,0,1,.256.17.743.743,0,0,1,.161.259.931.931,0,0,1,.056.328V0h-.284a.29.29,0,0,1-.133-.024.183.183,0,0,1-.075-.1L45.77-.238q-.078.066-.15.116a.951.951,0,0,1-.149.085.736.736,0,0,1-.164.052,1.009,1.009,0,0,1-.193.017.846.846,0,0,1-.258-.037.538.538,0,0,1-.2-.109.479.479,0,0,1-.125-.179A.646.646,0,0,1,44.49-.54a.516.516,0,0,1,.056-.227.56.56,0,0,1,.194-.21,1.233,1.233,0,0,1,.372-.159,2.5,2.5,0,0,1,.59-.072V-1.3a.38.38,0,0,0-.075-.263.276.276,0,0,0-.213-.081.565.565,0,0,0-.18.024.809.809,0,0,0-.125.054q-.055.03-.107.054a.294.294,0,0,1-.124.024.179.179,0,0,1-.108-.032.278.278,0,0,1-.072-.076ZM47.4-2.994v1.678h.092a.182.182,0,0,0,.088-.017.206.206,0,0,0,.06-.057l.392-.584a.248.248,0,0,1,.082-.075.246.246,0,0,1,.118-.025H48.8l-.536.738a.658.658,0,0,1-.18.164.494.494,0,0,1,.084.079.8.8,0,0,1,.072.1L48.822,0h-.56a.285.285,0,0,1-.12-.023A.192.192,0,0,1,48.058-.1l-.392-.734A.153.153,0,0,0,47.608-.9a.209.209,0,0,0-.09-.015H47.4V0h-.62V-2.994Zm2.324.92V0H49.1V-2.074Zm.064-.568a.328.328,0,0,1-.03.139.366.366,0,0,1-.082.114.4.4,0,0,1-.121.078.376.376,0,0,1-.147.029.349.349,0,0,1-.142-.029.4.4,0,0,1-.117-.078.36.36,0,0,1-.08-.114.337.337,0,0,1-.029-.139.349.349,0,0,1,.029-.142.368.368,0,0,1,.08-.116.375.375,0,0,1,.117-.078.36.36,0,0,1,.142-.028.387.387,0,0,1,.147.028.378.378,0,0,1,.121.078.374.374,0,0,1,.082.116A.339.339,0,0,1,49.786-2.642ZM50.8-1.85a1.506,1.506,0,0,1,.124-.1.726.726,0,0,1,.137-.081.813.813,0,0,1,.158-.052.848.848,0,0,1,.185-.019.726.726,0,0,1,.3.059.625.625,0,0,1,.221.164.708.708,0,0,1,.136.25,1.037,1.037,0,0,1,.046.315V0h-.62V-1.318a.363.363,0,0,0-.07-.237.251.251,0,0,0-.206-.085.433.433,0,0,0-.191.043.769.769,0,0,0-.173.117V0h-.62V-2.074h.384a.146.146,0,0,1,.152.1Zm2.574.7a.286.286,0,0,0,.223-.077.287.287,0,0,0,.069-.2.274.274,0,0,0-.069-.2.3.3,0,0,0-.223-.072.3.3,0,0,0-.223.072.274.274,0,0,0-.069.2.34.34,0,0,0,.017.11.229.229,0,0,0,.053.087.248.248,0,0,0,.091.058A.367.367,0,0,0,53.378-1.146Zm.48,1.222a.111.111,0,0,0-.066-.107.549.549,0,0,0-.172-.047A2.208,2.208,0,0,0,53.383-.1q-.131,0-.261-.015a.407.407,0,0,0-.1.089A.179.179,0,0,0,52.99.09a.169.169,0,0,0,.019.08.157.157,0,0,0,.067.062A.445.445,0,0,0,53.2.273a1.158,1.158,0,0,0,.205.015,1.24,1.24,0,0,0,.22-.016.466.466,0,0,0,.137-.044.165.165,0,0,0,.071-.067A.184.184,0,0,0,53.858.076ZM54.47-2.01v.226a.113.113,0,0,1-.029.082.2.2,0,0,1-.1.046l-.15.034a.8.8,0,0,1,.019.09.638.638,0,0,1,.007.1.594.594,0,0,1-.065.28.637.637,0,0,1-.178.211.83.83,0,0,1-.267.134,1.125,1.125,0,0,1-.33.047q-.048,0-.094,0a.79.79,0,0,1-.09-.011.116.116,0,0,0-.068.094.078.078,0,0,0,.056.075.535.535,0,0,0,.148.032q.092.009.209.012t.239.014a1.878,1.878,0,0,1,.239.037.655.655,0,0,1,.209.084.44.44,0,0,1,.148.155.489.489,0,0,1,.056.247.6.6,0,0,1-.068.274.715.715,0,0,1-.2.238,1.045,1.045,0,0,1-.324.167,1.41,1.41,0,0,1-.44.063,1.69,1.69,0,0,1-.421-.046,1.019,1.019,0,0,1-.294-.121A.51.51,0,0,1,52.51.374a.406.406,0,0,1-.056-.2.338.338,0,0,1,.08-.23.558.558,0,0,1,.224-.148.351.351,0,0,1-.12-.118.352.352,0,0,1-.044-.186.324.324,0,0,1,.016-.1.355.355,0,0,1,.051-.1A.514.514,0,0,1,52.748-.8a.563.563,0,0,1,.124-.078.689.689,0,0,1-.256-.227.579.579,0,0,1-.094-.329.592.592,0,0,1,.066-.281.635.635,0,0,1,.181-.212.852.852,0,0,1,.271-.134,1.167,1.167,0,0,1,.338-.047,1.05,1.05,0,0,1,.468.1Zm.6.758a3.482,3.482,0,0,0-.023-.4,3.569,3.569,0,0,0-.068-.395,3.72,3.72,0,0,0-.109-.38,3.424,3.424,0,0,0-.144-.353.238.238,0,0,1-.03-.085.136.136,0,0,1,.007-.065.132.132,0,0,1,.032-.048.283.283,0,0,1,.047-.036l.276-.16a3.322,3.322,0,0,1,.419.93,3.783,3.783,0,0,1,.129.99,3.779,3.779,0,0,1-.129.991,3.3,3.3,0,0,1-.419.927L54.78.506A.283.283,0,0,1,54.733.47.132.132,0,0,1,54.7.422a.136.136,0,0,1-.007-.065.238.238,0,0,1,.03-.085,3.424,3.424,0,0,0,.144-.353,3.751,3.751,0,0,0,.109-.379,3.525,3.525,0,0,0,.068-.394A3.482,3.482,0,0,0,55.068-1.252Z" transform="translate(144 -64)" fill="#392e00"/>
    <g id="Group_37333" data-name="Group 37333">
      <path id="Path_44727" data-name="Path 44727" d="M124.969-89.425v4.051h-8.145v16.215H120.9v-4.374l-3.512-3.512,6.986-7.539v1.957l-4.325,5.081,4.325,4.394v8.17h-7.547L112.8-69V-85.168l4.022-4.257Z" fill="#0044a8"/>
      <path id="Path_44728" data-name="Path 44728" d="M112.8-89.425v4.051h8.145v16.215h-4.073v-4.374l3.512-3.512L113.4-84.584v1.957l4.325,5.081L113.4-73.153v8.17h7.547L124.969-69V-85.168l-4.022-4.257Z" transform="translate(12.167)" fill="#0044a8"/>
      <circle id="Ellipse_3703" data-name="Ellipse 3703" cx="3" cy="3" r="3" transform="translate(122 -81)" fill="#0044a8"/>
    </g>
  </g>
</svg>
