<?xml version="1.0" standalone="no"?>
<!DOCTYPE svg PUBLIC "-//W3C//DTD SVG 1.1//EN" "http://www.w3.org/Graphics/SVG/1.1/DTD/svg11.dtd" >
<svg xmlns="http://www.w3.org/2000/svg">
<metadata>Generated by IcoMoon</metadata>
<defs>
<font id="icomoon" horiz-adv-x="1024">
<font-face units-per-em="1024" ascent="960" descent="-64" />
<missing-glyph horiz-adv-x="1024" />
<glyph unicode="&#x20;" horiz-adv-x="512" d="" />
<glyph unicode="&#xe900;" glyph-name="Allocated-but-Not-Accepted" horiz-adv-x="1026" d="M149.046 808.577c90.404 93.456 216.943 151.474 357.034 151.474 2.513 0 5.022-0.019 7.526-0.056l-0.379 0.004c2.362 0.041 5.148 0.064 7.941 0.064 139.231 0 265.023-57.539 354.895-150.137l0.119-0.123c92.706-89.773 150.251-215.377 150.251-354.421 0-2.596-0.020-5.188-0.060-7.774l0.005 0.391c0.034-2.173 0.054-4.738 0.054-7.308 0-139.043-57.545-264.646-150.118-354.293l-0.132-0.127c-89.996-92.765-215.818-150.335-355.087-150.335-2.766 0-5.527 0.023-8.283 0.068l0.416-0.005c-2.34-0.040-5.101-0.063-7.867-0.063-139.268 0-265.090 57.57-354.966 150.21l-0.12 0.125c-92.75 89.779-150.326 215.412-150.326 354.493 0 2.543 0.019 5.082 0.058 7.617l-0.005-0.382c-0.043 2.411-0.067 5.255-0.067 8.104 0 138.222 57.098 263.108 148.994 352.359l0.119 0.115zM411.026 190.85l461.551 461.551-72.146 74.523-389.405-389.482-185.081 182.704-72.146-72.146z" />
<glyph unicode="&#xe901;" glyph-name="Allocation-Completed" horiz-adv-x="1026" d="M149.046 808.577c90.404 93.456 216.943 151.474 357.034 151.474 2.513 0 5.022-0.019 7.526-0.056l-0.379 0.004c2.362 0.041 5.148 0.064 7.941 0.064 139.231 0 265.023-57.539 354.895-150.137l0.119-0.123c92.706-89.773 150.251-215.377 150.251-354.421 0-2.596-0.020-5.188-0.060-7.774l0.005 0.391c0.034-2.173 0.054-4.738 0.054-7.308 0-139.043-57.545-264.646-150.118-354.293l-0.132-0.127c-89.996-92.765-215.818-150.335-355.087-150.335-2.766 0-5.527 0.023-8.283 0.068l0.416-0.005c-2.34-0.040-5.101-0.063-7.867-0.063-139.268 0-265.090 57.57-354.966 150.21l-0.12 0.125c-92.75 89.779-150.326 215.412-150.326 354.493 0 2.543 0.019 5.082 0.058 7.617l-0.005-0.382c-0.043 2.411-0.067 5.255-0.067 8.104 0 138.222 57.098 263.108 148.994 352.359l0.119 0.115zM411.026 190.85l461.551 461.551-72.146 74.523-389.405-389.482-185.081 182.704-72.146-72.146z" />
<glyph unicode="&#xe902;" glyph-name="calendar" d="M750.885 398.263v-256h-256v256zM698.368 960h102.4v-102.4h50.176c0.665 0.016 1.448 0.025 2.233 0.025 27.783 0 52.896-11.432 70.891-29.848l0.019-0.019c18.436-18.014 29.867-43.127 29.867-70.91 0-0.785-0.009-1.568-0.027-2.349l0.002 0.116v-711.973c0.016-0.665 0.025-1.448 0.025-2.233 0-27.783-11.432-52.896-29.848-70.891l-0.019-0.019c-18.014-18.436-43.127-29.867-70.91-29.867-0.785 0-1.568 0.009-2.349 0.027l0.116-0.002h-711.973c-0.665-0.016-1.448-0.025-2.233-0.025-27.783 0-52.896 11.432-70.891 29.848l-0.019 0.019c-18.436 18.014-29.867 43.127-29.867 70.91 0 0.785 0.009 1.568 0.027 2.349l-0.002-0.116v711.973c-0.016 0.665-0.025 1.448-0.025 2.233 0 27.783 11.432 52.896 29.848 70.891l0.019 0.019c18.014 18.436 43.127 29.867 70.91 29.867 0.785 0 1.568-0.009 2.349-0.027l-0.116 0.002h50.469v102.4h103.131v-102.4h405.797zM851.237 42.569v559.031h-712.265v-559.031z" />
<glyph unicode="&#xe903;" d="M873.956 463.159l-184.577 69.792c-9.399 3.625-15.946 12.586-15.946 23.075 0 3.145 0.589 6.153 1.662 8.92l-0.057-0.168 96.59 255.46c3.632 9.407 12.601 15.959 23.101 15.959 3.135 0 6.134-0.584 8.894-1.65l-0.169 0.057 117.070-44.253 55.286-127.66-70.018-185.246c-3.655-9.359-12.601-15.869-23.067-15.869-3.148 0-6.159 0.589-8.928 1.663l0.168-0.057z" />
<glyph unicode="&#xe904;" d="M920.525 790.345l-27.205-71.896c-0.944-2.416-1.491-5.214-1.491-8.139 0-9.763 6.092-18.103 14.682-21.426l0.157-0.053 69.133-26.14z" />
<glyph unicode="&#xe905;" d="M891.873 711.77c-0.998-2.636-1.576-5.684-1.576-8.866 0-9.005 4.626-16.929 11.631-21.526l0.098-0.060c0.591-0.45 1.263-0.903 1.961-1.315l0.098-0.053c8.424-5.074 63.853-38.078 64.363-36.725l7.307 19.338-69.133 26.14s-16.981 7.23-14.748 23.068z" />
<glyph unicode="&#xe906;" d="M878.952 727.228c-0.355-0.937-19.744 5.557-43.322 14.465s-42.406 16.904-42.051 17.763 19.744-5.557 43.322-14.465 42.406-16.775 42.051-17.763z" />
<glyph unicode="&#xe907;" d="M918.724 665.716c-0.355-0.916-32.078 10.153-70.882 24.895s-69.982 27.334-69.637 28.271 32.078-10.153 70.908-24.921 69.889-27.314 69.611-28.245z" />
<glyph unicode="&#xe908;" d="M918.549 626.984c-0.355-0.916-34.919 11.295-77.227 27.308s-76.311 29.717-75.956 30.633 34.919-11.295 77.227-27.308 76.414-29.696 75.956-30.633z" />
<glyph unicode="&#xe909;" d="M906.441 594.952c-0.355-0.916-34.919 11.295-77.227 27.308s-76.311 29.845-75.956 30.633 34.919-11.295 77.227-27.272 76.311-29.727 75.956-30.669z" />
<glyph unicode="&#xe90a;" d="M894.338 562.925c-0.355-0.916-34.945 11.295-77.227 27.308s-76.311 29.717-75.982 30.633 34.919-11.295 77.253-27.272 76.285-29.732 75.956-30.669z" />
<glyph unicode="&#xe90b;" d="M882.204 530.898c-0.329-0.916-34.919 11.321-77.186 27.308s-76.337 29.717-75.982 30.633 34.919-11.295 77.227-27.272 76.296-29.732 75.941-30.669z" />
<glyph unicode="&#xe90c;" d="M30.894 648.659l212.067 74.358c17.062 5.983 35.744-2.999 41.727-20.062l111.286-317.384c5.983-17.062-2.999-35.744-20.062-41.727l-212.067-74.358c-17.062-5.983-35.744 2.999-41.727 20.062l-111.286 317.384c-5.983 17.062 2.999 35.744 20.062 41.727z" />
<glyph unicode="&#xe90d;" d="M26.305 624.277l235.427 82.549 121.184-345.611-235.427-82.549-121.184 345.611z" />
<glyph unicode="&#xe90e;" d="M22.096 625.903l235.427 82.549 118.872-339.019-235.427-82.549-118.872 339.019z" />
<glyph unicode="&#xe90f;" d="M376.127 369.389l-119 338.831 0.432-0.201-235.335-82.455 0.226 0.458c44.361-127.3 85.651-244.88 118.619-338.954l-0.381 0.18 235.463 82.152-235.561-82.769v0.278c-32.994 94.090-74.16 211.659-118.774 338.934v0.355h0.329l235.69 82.378v-0.304z" />
<glyph unicode="&#xe910;" d="M292.658 340.156s52.404 44.207 61.491 90.246c-10.465-14.4-26.276-24.367-44.462-26.988l-0.358-0.042s-1.039-48.215-16.672-63.215z" />
<glyph unicode="&#xe911;" d="M96.344 548.215l-0.005-0.002c7.946 2.786 16.647-1.397 19.433-9.343l-0.002 0.005c2.786-7.946-1.397-16.647-9.343-19.433l0.005 0.002c-7.946-2.786-16.647 1.397-19.433 9.343l0.002-0.005c-2.786 7.946 1.397 16.647 9.343 19.433z" />
<glyph unicode="&#xe912;" d="M101.026 529.045v0c-0.081-0.042-0.176-0.067-0.278-0.067s-0.197 0.025-0.281 0.069l0.003-0.002-5.66 3.298c-0.174 0.131-0.286 0.337-0.286 0.57 0 0.392 0.318 0.71 0.71 0.71 0.104 0 0.202-0.022 0.291-0.062l-0.004 0.002 5.074-2.892 5.99 12.689c0.13 0.246 0.384 0.411 0.676 0.411 0.103 0 0.202-0.021 0.291-0.058l-0.005 0.002c0.242-0.117 0.406-0.36 0.406-0.642 0-0.117-0.028-0.227-0.078-0.325l0.002 0.004-6.34-13.508c-0.12-0.124-0.288-0.202-0.474-0.202-0.012 0-0.025 0-0.037 0.001h0.002z" />
<glyph unicode="&#xe913;" d="M263.549 602.845c0-0.201-30.452-11.089-68.243-24.314s-68.521-23.778-68.521-23.603 30.452 11.089 68.268 24.314 68.448 23.784 68.495 23.603z" />
<glyph unicode="&#xe915;" d="M191.781 554.069s-0.787-0.355-2.208-0.916l-6.144-2.285c-5.074-1.878-12.386-4.441-20.305-7.235s-15.226-5.28-20.305-7.029l-6.216-2.058c-0.634-0.243-1.408-0.47-2.203-0.639l-0.108-0.019c0.616 0.331 1.345 0.648 2.102 0.905l0.105 0.031 6.144 2.259c5.074 1.904 12.386 4.466 20.305 7.261s15.226 5.254 20.305 7.029l6.216 2.058c0.649 0.251 1.424 0.472 2.224 0.624l0.087 0.014z" />
<glyph unicode="&#xe916;" d="M266.77 593.511c0-0.18-30.452-11.063-68.268-24.288s-68.521-23.809-68.521-23.603 30.452 11.063 68.294 24.288 68.495 23.804 68.495 23.603z" />
<glyph unicode="&#xe917;" d="M114.025 497.72l-0.005-0.002c7.946 2.786 16.647-1.397 19.433-9.343l-0.002 0.005c2.786-7.946-1.397-16.647-9.343-19.433l0.005 0.002c-7.946-2.786-16.647 1.397-19.433 9.343l0.002-0.005c-2.786 7.946 1.397 16.647 9.343 19.433z" />
<glyph unicode="&#xe918;" d="M118.717 478.545v0c-0.085-0.043-0.185-0.068-0.291-0.068s-0.206 0.025-0.295 0.069l0.004-0.002-5.66 3.298c-0.211 0.125-0.351 0.351-0.351 0.61 0 0.39 0.316 0.706 0.706 0.706 0.131 0 0.253-0.036 0.358-0.098l-0.003 0.002 5.074-2.892 5.99 12.818c0.123 0.244 0.372 0.409 0.659 0.409 0.1 0 0.195-0.020 0.282-0.056l-0.005 0.002c0.248-0.114 0.417-0.361 0.417-0.647 0-0.105-0.023-0.205-0.064-0.294l0.002 0.004-6.319-13.528c-0.111-0.175-0.291-0.299-0.5-0.334l-0.004-0.001z" />
<glyph unicode="&#xe919;" d="M281.24 552.34c0-0.201-30.452-11.063-68.268-24.314s-68.521-23.778-68.521-23.603 30.452 11.089 68.268 24.314 68.469 23.784 68.521 23.603z" />
<glyph unicode="&#xe91a;" d="M209.467 503.564s-0.787-0.355-2.233-0.916l-6.118-2.285c-5.074-1.878-12.386-4.441-20.305-7.235s-15.226-5.28-20.305-7.029l-6.216-2.058c-0.635-0.243-1.408-0.47-2.203-0.64l-0.107-0.019c0.622 0.341 1.352 0.658 2.112 0.909l0.095 0.027 6.144 2.259c5.074 1.904 12.386 4.466 20.305 7.261s15.226 5.254 20.305 7.029l6.216 2.058c0.649 0.251 1.424 0.472 2.224 0.624l0.087 0.014z" />
<glyph unicode="&#xe91b;" d="M284.538 542.949c0-0.18-30.452-11.063-68.268-24.288s-68.521-23.804-68.521-23.603 30.452 11.063 68.268 24.288 68.521 23.861 68.521 23.603z" />
<glyph unicode="&#xe91c;" d="M131.726 447.22l-0.005-0.002c7.946 2.786 16.647-1.397 19.433-9.343l-0.002 0.005c2.786-7.946-1.397-16.647-9.343-19.433l0.005 0.002c-7.946-2.786-16.647 1.397-19.433 9.343l0.002-0.005c-2.786 7.946 1.397 16.647 9.343 19.433z" />
<glyph unicode="&#xe91d;" d="M136.403 428.040v0c-0.085-0.043-0.185-0.068-0.291-0.068s-0.206 0.025-0.295 0.069l0.004-0.002-5.66 3.247c-0.252 0.113-0.424 0.361-0.424 0.65 0 0.392 0.318 0.71 0.71 0.71 0.16 0 0.307-0.053 0.426-0.142l-0.002 0.001 5.074-2.892 5.99 12.818c0.114 0.25 0.361 0.42 0.648 0.42 0.392 0 0.711-0.318 0.711-0.711 0-0.105-0.023-0.205-0.064-0.295l0.002 0.004-6.319-13.528c-0.128-0.148-0.304-0.251-0.505-0.282l-0.005-0.001z" />
<glyph unicode="&#xe91e;" d="M298.926 501.84c0-0.201-30.452-11.063-68.268-24.314s-68.521-23.778-68.521-23.578 30.452 11.063 68.294 24.288 68.423 23.784 68.495 23.603z" />
<glyph unicode="&#xe91f;" d="M227.158 453.089c-0.616-0.324-1.354-0.64-2.118-0.902l-0.115-0.034-6.144-2.285c-5.074-1.878-12.35-4.441-20.305-7.235s-15.226-5.254-20.305-7.029l-6.216-2.058c-0.628-0.237-1.401-0.464-2.194-0.637l-0.116-0.021c0.622 0.341 1.352 0.658 2.112 0.909l0.095 0.027 6.144 2.285c5.074 1.878 12.386 4.441 20.305 7.235s15.226 5.254 20.305 7.029l6.175 2.058c0.619 0.223 1.409 0.45 2.217 0.631l0.145 0.027z" />
<glyph unicode="&#xe920;" d="M302.301 492.505c0-0.18-30.452-11.063-68.268-24.288s-68.521-23.804-68.521-23.603 30.452 11.063 68.268 24.314 68.346 23.778 68.521 23.578z" />
<glyph unicode="&#xe921;" d="M149.402 396.725l-0.005-0.002c7.946 2.786 16.647-1.397 19.433-9.343l-0.002 0.005c2.786-7.946-1.397-16.647-9.343-19.433l0.005 0.002c-7.946-2.786-16.647 1.397-19.433 9.343l0.002-0.005c-2.786 7.946 1.397 16.647 9.343 19.433z" />
<glyph unicode="&#xe922;" d="M154.068 377.534v0c-0.083-0.036-0.179-0.058-0.28-0.058s-0.198 0.021-0.285 0.060l0.005-0.002-5.66 3.298c-0.208 0.127-0.344 0.352-0.344 0.61 0 0.393 0.319 0.712 0.712 0.712 0.136 0 0.263-0.038 0.371-0.104l-0.003 0.002 5.074-2.892 5.99 12.689c0.114 0.248 0.361 0.417 0.647 0.417 0.105 0 0.205-0.023 0.294-0.064l-0.004 0.002c0.244-0.123 0.409-0.372 0.409-0.659 0-0.1-0.020-0.195-0.056-0.282l0.002 0.005-6.345-13.528c-0.132-0.127-0.312-0.206-0.511-0.206-0.005 0-0.010 0-0.015 0h0.001z" />
<glyph unicode="&#xe923;" d="M316.617 451.334c0-0.201-30.452-11.063-68.268-24.288s-68.521-23.804-68.521-23.603 30.452 11.063 68.268 24.288 68.448 23.861 68.521 23.603z" />
<glyph unicode="&#xe924;" d="M244.823 402.584c-0.622-0.341-1.352-0.658-2.112-0.909l-0.095-0.027-6.144-2.285c-5.074-1.878-12.386-4.441-20.305-7.235s-15.226-5.254-20.305-7.029l-6.216-2.058c-1.472-0.458-2.31-0.684-2.31-0.659 0.622 0.341 1.352 0.658 2.112 0.909l0.095 0.027 6.144 2.285c5.074 1.878 12.386 4.441 20.305 7.235s15.226 5.254 20.305 7.029l6.216 2.058c0.628 0.237 1.401 0.464 2.194 0.637l0.116 0.021z" />
<glyph unicode="&#xe925;" d="M319.889 442c0-0.18-30.452-11.063-68.268-24.288s-68.521-23.778-68.521-23.603 30.452 11.063 68.268 24.314 68.454 23.778 68.521 23.578z" />
<glyph unicode="&#xe926;" d="M48.745 658.934l6.175-17.763c2.781-7.773 10.082-13.234 18.658-13.234 2.336 0 4.577 0.405 6.658 1.149l-0.138-0.043 130.187 45.684c7.764 2.767 13.222 10.055 13.222 18.618 0 2.342-0.408 4.588-1.157 6.672l0.043-0.138-6.175 17.763z" />
<glyph unicode="&#xe927;" d="M134.221 682.995c-1.837-0.67-3.957-1.057-6.167-1.057-10.231 0-18.525 8.294-18.525 18.525s8.294 18.525 18.525 18.525c8.042 0 14.887-5.124 17.448-12.285l0.040-0.129c0.657-1.82 1.037-3.921 1.037-6.11 0-8.020-5.097-14.85-12.228-17.427l-0.129-0.041zM124.326 711.24c-4.494-1.603-7.652-5.823-7.652-10.779 0-6.306 5.112-11.418 11.418-11.418s11.418 5.112 11.418 11.418c0 1.353-0.235 2.651-0.667 3.856l0.025-0.080c-1.606 4.489-5.823 7.642-10.776 7.642-1.349 0-2.644-0.234-3.846-0.664l0.080 0.025z" />
<glyph unicode="&#xe928;" d="M238.273 636.843c0-0.329-34.209-12.689-76.671-27.535s-76.996-26.634-77.098-26.305 34.209 12.689 76.671 27.535 76.97 26.747 77.098 26.305z" />
<glyph unicode="&#xe929;" d="M194.292 630.637c0-0.329-14.974-5.938-33.73-12.509s-34.060-11.727-34.183-11.269 15 5.938 33.756 12.509 34.054 11.598 34.157 11.269z" />
<glyph unicode="&#xe92a;" d="M870.801 116.394c6.002 2.885 13.049 4.57 20.489 4.57 3.357 0 6.633-0.343 9.797-0.996l-0.312 0.054c5.763-0.524 10.881-2.938 14.808-6.61l-0.014 0.013c1.889-1.92 3.055-4.556 3.055-7.464 0-2.83-1.104-5.402-2.905-7.309l0.005 0.005c-2.219-1.527-4.964-2.439-7.923-2.439-0.517 0-1.028 0.028-1.531 0.082l0.062-0.005c-7.945 0-16.724 1.497-23.043-3.273-3.628-2.717-6.015-7.235-10.327-8.578-0.692-0.168-1.487-0.265-2.305-0.265-3.844 0-7.189 2.136-8.912 5.286l-0.027 0.053c-1.23 2.332-1.952 5.097-1.952 8.031 0 1.722 0.249 3.386 0.712 4.957l-0.031-0.124c1.127 6.147 4.986 11.21 10.245 13.96l0.108 0.052z" />
<glyph unicode="&#xe92b;" d="M849.771 156.69c5.583-7.945 16.42-5.331 21.447-0.458 4.422 5.104 7.607 11.398 9.017 18.336l0.044 0.26c4.415 15.355 8.882 31.446 5.609 47.078-0.873 4.913-3.002 9.224-6.043 12.721l0.027-0.032c-2.517 2.819-6.161 4.586-10.218 4.586-0.964 0-1.904-0.1-2.812-0.289l0.089 0.016c-5.299-2.198-9.37-6.45-11.277-11.737l-0.044-0.139c-6.935-14.095-11.020-30.673-11.089-48.197v-0.023c-0.053-0.761-0.082-1.648-0.082-2.543 0-7.282 1.982-14.101 5.436-19.946l-0.1 0.183z" />
<glyph unicode="&#xe92c;" d="M834.462 145.272c3.726 4.824 5.973 10.956 5.973 17.613 0 3.241-0.532 6.357-1.515 9.267l0.060-0.204c-3.218 9.182-8.664 16.902-15.705 22.775l-0.082 0.067c-7.948 7.097-17.349 12.763-27.678 16.486l-0.592 0.186c-3.334 1.385-7.206 2.19-11.266 2.19-0.501 0-0.998-0.012-1.493-0.036l0.070 0.003c-4.528-0.265-8.42-2.757-10.624-6.388l-0.033-0.059c-2.995-5.66 0-12.561 2.943-18.17 5.966-10.794 12.115-20.037 18.928-28.737l-0.352 0.466c5.111-7.543 12.019-13.51 20.125-17.366l0.304-0.13c8.501-3.247 17.285-2.84 21.777 3.021z" />
<glyph unicode="&#xe92d;" d="M849.416 36.625c0.263 1.065 0.437 2.301 0.483 3.569l0.001 0.033c0.278 2.537 0.581 5.938 0.962 9.875 0.568 5.612 1.355 10.552 2.397 15.399l-0.164-0.908c1.482 6.628 3.288 12.334 5.521 17.822l-0.267-0.743c2.349 5.898 5.292 10.991 8.855 15.58l-0.107-0.143c2.947 3.812 6.632 6.904 10.856 9.099l0.181 0.086c2.694 1.37 5.822 2.383 9.12 2.871l0.168 0.020c1.302 0.050 2.537 0.235 3.723 0.541l-0.121-0.027c-0.552 0.063-1.192 0.099-1.84 0.099s-1.288-0.036-1.917-0.106l0.078 0.007c-3.562-0.295-6.845-1.199-9.843-2.611l0.174 0.074c-4.656-2.226-8.552-5.358-11.599-9.195l-0.051-0.067c-3.602-4.539-6.644-9.751-8.888-15.369l-0.148-0.418c-2.037-4.866-3.851-10.659-5.142-16.646l-0.122-0.675c-0.846-4.131-1.531-9.154-1.906-14.264l-0.024-0.406c-0.329-4.189-0.432-7.616-0.484-9.921-0.046-0.443-0.072-0.957-0.072-1.477 0-0.749 0.054-1.486 0.159-2.207l-0.010 0.082z" />
<glyph unicode="&#xe92e;" d="M850.074 44.215c0.036 0.252 0.057 0.543 0.057 0.839s-0.021 0.587-0.061 0.871l0.004-0.033v4.719c0 4.163 0 10.153 0.201 17.763 0.381 14.923 1.652 30.91 4.117 53.516 2.336 21.242 5.48 45.962 8.804 62.027 0.71 3.653 1.42 6.952 2.105 9.823s1.194 5.382 1.724 7.384 0.813 3.453 1.117 4.667c0.124 0.467 0.231 1.037 0.298 1.619l0.006 0.059c-0.235-0.451-0.434-0.975-0.571-1.524l-0.011-0.050c-0.381-1.22-0.839-2.743-1.394-4.631s-1.271-4.466-1.981-7.333-1.544-6.144-2.336-9.777c-3.557-15.602-6.783-35.235-8.944-55.187l-0.215-2.445c-2.096-17.178-3.426-37.353-3.676-57.788l-0.003-0.359c0-7.461 0-13.502 0.252-17.763 0-1.955 0.201-3.551 0.278-4.796 0.032-0.585 0.115-1.133 0.244-1.662l-0.013 0.062z" />
<glyph unicode="&#xe92f;" d="M850.172 83.955c0.067 0.76 0.106 1.644 0.106 2.537s-0.038 1.777-0.114 2.65l0.008-0.114c-0.328 5.132-0.877 9.795-1.656 14.381l0.113-0.801c-1.285 7.837-2.82 14.514-4.725 21.033l0.31-1.238c-2.477 9.165-5.301 16.951-8.682 24.432l0.408-1.009c-6.094 14.618-14.284 27.155-24.353 37.912l0.065-0.070c-1.782 1.868-3.654 3.603-5.628 5.218l-0.11 0.087c-0.765 0.716-1.592 1.392-2.464 2.009l-0.073 0.049-2.208 1.544c-1.233 0.955-2.621 1.848-4.085 2.617l-0.155 0.074c5.060-3.977 9.572-8.020 13.813-12.33l0.019-0.020c9.672-10.716 17.655-23.194 23.381-36.853l0.32-0.86c2.85-6.272 5.685-13.974 8-21.898l0.325-1.299c1.606-5.097 3.232-11.687 4.506-18.403l0.187-1.187c1.029-5.66 1.652-10.153 2.007-13.451 0.117-1.858 0.361-3.58 0.726-5.256l-0.042 0.228z" />
<glyph unicode="&#xe930;" d="M811.754 13.834l3.983-54.545h70.121l3.957 54.545z" />
<glyph unicode="&#xe931;" d="M805.003 35.354h93.215v-21.519h-93.215v21.519z" />
<glyph unicode="&#xe932;" d="M805.003-38.647v-5.938h91.64v5.938z" />
<glyph unicode="&#xe933;" d="M813.653-55.093l-4.286 10.508h83.953l-5.027-10.508z" />
<glyph unicode="&#xe934;" d="M888.544-3.98s0-0.201-0.329-0.515l-1.029-1.394-4.266-5.454-0.175 0.252-10.024 13.857h0.607l-10.209-14.434-0.355 0.407-11.701 13.96h0.659l-0.633-0.813-10.461-13.122-0.329-0.458-0.329 0.458c-3.551 5.074-6.88 9.746-9.895 13.981h0.581l-12.381-14.11-0.18 0.278c-1.6 2.691-2.866 4.847-3.808 6.396l-0.962 1.698c-0.121 0.175-0.223 0.376-0.298 0.589l-0.005 0.018c0.145-0.154 0.279-0.322 0.398-0.501l0.009-0.014 1.091-1.652 3.983-6.267h-0.381l12.283 14.387 0.278-0.381 9.947-13.909h-0.684l11.192 13.935 0.329 0.432 0.329-0.407 11.701-13.986h-0.659l9.972 13.935 0.278 0.407 0.304-0.407c3.931-5.66 7.307-10.456 9.823-14.032h-0.391l4.266 5.074 1.142 1.317z" />
<glyph unicode="&#xe935;" d="M890.808 14.215c0-0.252-17.562-0.458-39.236-0.458s-39.236 0.201-39.236 0.458 17.562 0.432 39.236 0.432 39.236-0.201 39.236-0.432z" />
<glyph unicode="&#xe936;" d="M894.359-45.197c0-0.226-19.111-0.432-42.638-0.432s-42.638 0.201-42.638 0.432 19.086 0.458 42.638 0.458 42.638-0.201 42.638-0.458z" />
<glyph unicode="&#xe937;" d="M336.896 242.881h374.64v-298.756h-374.64v298.756z" />
<glyph unicode="&#xe938;" d="M364.179 242.274c44.109-15.736 92.757-19.111 140.087-19.996 1.048 0.031 2.282 0.048 3.519 0.048 9.103 0 17.987-0.941 26.559-2.731l-0.84 0.147c9.939-2.164 18.214-8.076 23.438-16.146l0.088-0.145c2.559-5.139 4.056-11.193 4.056-17.597 0-4.838-0.855-9.477-2.421-13.773l0.089 0.279c-3.021-10.23-8.233-19.693-11.979-29.67-4.506-11.601-7.116-25.028-7.116-39.065 0-5.748 0.438-11.393 1.282-16.905l-0.078 0.617c0.924-8.386 3.712-15.969 7.94-22.538l-0.124 0.206c4.34-6.623 11.521-11.075 19.77-11.62l0.077-0.004c14.238-0.201 23.984 13.78 31.039 26.166 28.955 50.757 60.272 108.364 78.802 163.768z" />
<glyph unicode="&#xe939;" d="M464.556-54.275c-0.381 0-0.659 66.21-0.659 147.883s0.278 147.904 0.659 147.904 0.659-66.21 0.659-147.904-0.314-147.883-0.659-147.883z" />
<glyph unicode="&#xe93a;" d="M618.069 463.674c-1.117 7.461-23.398 32.078-23.398 32.078s-11.115 44.691-14.465 57.864c-1.223 4.112-2.874 7.697-4.953 10.985l0.105-0.179c-7.995 13.165-18.976 23.781-32.047 31.117l-0.438 0.226-30.833 17.336-7.353 16.384-74.052 38.078-20.068-35.506s-48.751-15.483-55.198-26.47 3.195-159.379 3.195-159.379-20.305-85.579-24.699-103.29c-0.948-4.906-1.491-10.548-1.491-16.317 0-8 1.043-15.757 3.001-23.141l-0.142 0.628 36.319 45.555c11.295 14.161 36.061 20.686 53.855 20.429l152.041-0.684-6.118 42.586 123.009-23.804s21.139 41.264 22.842 42.077-99.112 33.427-99.112 33.427z" />
<glyph unicode="&#xe93b;" d="M427.451 618.2c6.838-26.314 13.92-47.881 22.133-68.881l-1.427 4.143c6.222-16.587 9.823-35.757 9.823-55.767 0-0.086 0-0.171 0-0.257v0.013-120.297l72.889 4.95-10.888 79.244s-8.882 51.113-11.372 70.553c-2.285 17.763-10.153 65.984-10.153 65.984s-40.456-10.77-71.006 20.315z" />
<glyph unicode="&#xe93c;" d="M589.232 433.829c-0.054 0.278-0.085 0.599-0.085 0.926s0.031 0.648 0.090 0.958l-0.005-0.032c0.187 1.825 0.526 3.488 1.011 5.087l-0.049-0.189c1.634 5.552 4.514 10.309 8.327 14.136l-0.001-0.001c3.832 3.816 8.586 6.709 13.898 8.316l0.237 0.062c1.411 0.436 3.073 0.775 4.785 0.953l0.114 0.010c0.275 0.055 0.59 0.086 0.913 0.086s0.639-0.031 0.944-0.091l-0.031 0.005c0-0.226-2.537-0.515-6.448-1.852-10.302-3.608-18.264-11.588-21.774-21.654l-0.075-0.246c-1.343-3.936-1.626-6.473-1.852-6.473z" />
<glyph unicode="&#xe93d;" d="M592.989 462.66c3.193 1.905 7.015 3.085 11.102 3.22l0.038 0.001c0.942 0.138 2.029 0.216 3.135 0.216 3.009 0 5.883-0.582 8.514-1.639l-0.154 0.055c0-0.407-5.074 0.581-11.393 0s-11.089-2.233-11.243-1.852z" />
<glyph unicode="&#xe93e;" d="M351.196 397.006l-6.329-7.153c6.522-7.995 15.281-13.937 25.32-16.89l0.362-0.091c8.161-1.812 17.535-2.85 27.152-2.85 1.349 0 2.693 0.020 4.032 0.061l-0.196-0.005c0.635-0.033 1.378-0.051 2.126-0.051 3.694 0 7.283 0.454 10.712 1.309l-0.304-0.064c3.51 1.571 7.615 2.879 11.887 3.721l0.37 0.061c3.034-0.015 5.958-0.46 8.722-1.276l-0.221 0.056c1.349-0.398 2.9-0.627 4.504-0.627 1.429 0 2.815 0.182 4.137 0.523l-0.115-0.025c2.813 0.774 4.861 3.27 4.95 6.258v0.010c-28.485 8.666-61.61 14.734-95.781 16.963l-1.329 0.069z" />
<glyph unicode="&#xe93f;" d="M559.31 387.821l-17.763 18.983-36.926 9.262s-33.705-10.153-34.512-10.153-29.331 7.816-29.331 7.816l-9.972-36.596 51.39-3.53 58.661 2.362s3.087 2.84 1.245 4.796 9.823-3.298 11.192-3.35 4.009-1.117 5.835 1.065c1.005 1.317 1.61 2.986 1.61 4.796 0 1.703-0.535 3.28-1.446 4.574l0.017-0.025z" />
<glyph unicode="&#xe940;" d="M542.118 380.874c-2.229 0.428-4.185 1.008-6.056 1.755l0.221-0.078c-3.551 1.117-8.501 2.537-14.007 4.060s-10.585 2.537-14.264 3.17c-2.217 0.295-4.214 0.783-6.122 1.459l0.209-0.065c0.333 0.015 0.723 0.024 1.116 0.024 1.752 0 3.463-0.176 5.116-0.51l-0.165 0.028c5.672-0.798 10.551-1.79 15.323-3.045l-0.915 0.204c5.632-1.434 10.3-2.963 14.835-4.755l-0.828 0.288c2.111-0.667 3.945-1.528 5.636-2.595l-0.099 0.058z" />
<glyph unicode="&#xe941;" d="M559.315 387.816c-3.34 0.845-6.064 1.714-8.722 2.72l0.55-0.183c-5.074 1.678-12.005 3.756-19.796 5.912-5.64 2.014-12.359 3.729-19.282 4.836l-0.668 0.088c-0.722 0.040-1.567 0.062-2.417 0.062-2.136 0-4.239-0.142-6.3-0.418l0.241 0.026c0.638 0.357 1.38 0.623 2.167 0.756l0.041 0.006c1.53 0.347 3.286 0.546 5.089 0.546 0.432 0 0.862-0.011 1.289-0.034l-0.060 0.003c7.495-0.736 14.378-2.36 20.874-4.781l-0.569 0.186c7.616-2.285 14.768-4.389 19.744-6.319 2.537-0.937 4.441-1.801 5.81-2.413 0.765-0.249 1.43-0.584 2.032-1.004l-0.025 0.016z" />
<glyph unicode="&#xe942;" d="M355.349 605.567s-26.521-18.453-32.994-44.994-34.415-135.039-28.677-151.259 117.251-32.156 117.251-32.156l13.225 55.831-56.644 15.504s0.736 51.648 1.446 73.038-13.605 84.035-13.605 84.035z" />
<glyph unicode="&#xe943;" d="M423.432 424.592l18.247-4.492-10.991-42.077-17.917 2.866z" />
<glyph unicode="&#xe944;" d="M293.271 415.057c0.029-0.917 0.129-1.791 0.295-2.64l-0.017 0.103c0.652-2.537 2.018-4.693 3.87-6.306l0.015-0.013c7.194-5.457 15.993-9.17 25.576-10.353l0.26-0.026c5.357-1.775 11.47-3.17 18.010-4.631s13.58-2.969 20.989-4.466c14.845-3.046 31.265-6.242 48.679-9.494l-0.762-0.484c1.245 5.074 2.537 10.636 3.931 16.194 3.123 12.689 6.175 25.173 9.036 36.926l0.458-0.762-50.222 14.238c-5.734 2.48-12.41 3.923-19.424 3.923-0.889 0-1.773-0.023-2.65-0.069l0.123 0.005c-6.063-0.348-11.711-1.753-16.886-4.033l0.312 0.122c-3.649-1.595-6.774-3.36-9.695-5.399l0.18 0.119-2.31-1.678c-0.237-0.186-0.503-0.357-0.785-0.502l-0.028-0.013c0.221 0.232 0.453 0.447 0.697 0.648l0.014 0.011c0.484 0.407 1.22 1.029 2.233 1.801 2.742 2.054 5.851 3.909 9.149 5.426l0.319 0.132c4.901 2.279 10.602 3.781 16.604 4.181l0.145 0.008c0.956 0.065 2.073 0.102 3.198 0.102 6.921 0 13.516-1.399 19.516-3.93l-0.33 0.124 50.984-14.264-0.154-0.607c-2.866-11.748-5.887-24.133-8.984-36.951-1.369-5.532-2.691-11.012-3.957-16.168l-0.154-0.607h-0.607c-17.408 3.273-33.802 6.525-48.653 9.617-7.41 1.544-14.439 3.087-20.989 4.631s-12.689 2.969-18.072 4.822v0c-9.967 1.313-18.837 5.214-26.148 10.999l0.111-0.085c-1.892 1.705-3.245 3.975-3.793 6.542l-0.014 0.080c-0.1 0.466-0.157 1.001-0.157 1.55 0 0.416 0.033 0.823 0.096 1.221l-0.006-0.044z" />
<glyph unicode="&#xe945;" d="M370.601 444.712c-0.154-0.18-2.058 1.575-5.454 3.834-8.148 5.523-18.197 8.817-29.015 8.817-0.399 0-0.796-0.004-1.193-0.013l0.059 0.001c-4.117 0-6.623-0.556-6.689-0.329 1.963 0.734 4.231 1.186 6.596 1.245l0.026 0.001c0.997 0.077 2.16 0.121 3.332 0.121 10.349 0 19.901-3.409 27.595-9.166l-0.12 0.086c1.889-1.28 3.496-2.802 4.827-4.546l0.036-0.049z" />
<glyph unicode="&#xe946;" d="M378.036 535.57c0.044-0.509 0.070-1.102 0.070-1.701s-0.025-1.191-0.075-1.777l0.005 0.076c0-2.208-0.226-5.357-0.515-9.262-0.633-7.791-1.775-18.525-3.834-30.303-1.85-11.476-4.295-21.498-7.439-31.206l0.41 1.464c-0.607-1.852-1.271-3.53-1.801-5.074l-1.626-3.653c-0.518-1.124-1.102-2.090-1.778-2.983l0.029 0.040c0.359 1.211 0.791 2.255 1.316 3.242l-0.045-0.093c0.432 1.091 0.89 2.336 1.42 3.705s1.029 3.149 1.6 5.074c2.382 7.905 4.686 17.919 6.406 28.132l0.217 1.559c2.033 11.727 3.324 22.41 4.189 30.175 0.381 3.679 0.71 6.751 0.962 9.185 0.029 1.221 0.206 2.389 0.513 3.503l-0.024-0.101z" />
<glyph unicode="&#xe947;" d="M442.697 564.324c-0.305 0.766-0.596 1.384-0.916 1.984l0.051-0.105c-0.926 1.711-2.223 3.114-3.79 4.136l-0.043 0.026c-1.501 1.041-3.361 1.663-5.367 1.663-1.024 0-2.010-0.162-2.933-0.462l0.067 0.019c-3.53-1.234-6.168-4.184-6.94-7.824l-0.012-0.069-0.355-1.801-0.787 1.678c-2.517 5.206-5.131 11.688-7.358 18.346l-0.361 1.244c-3.637 10.102-5.74 21.758-5.74 33.905 0 0.25 0.001 0.499 0.003 0.748v-0.038c0 2.259 0.304 4.292 0.432 6.093 0.163 1.689 0.45 3.225 0.858 4.712l-0.045-0.194c0.307 1.452 0.691 2.708 1.173 3.916l-0.056-0.16c-0.818-4.259-1.339-9.212-1.444-14.267l-0.002-0.095c0.228-12.317 2.432-24.045 6.306-34.984l-0.239 0.775c2.642-7.988 5.22-14.437 8.119-20.706l-0.504 1.214-1.142-0.154c0.92 4.090 3.895 7.318 7.76 8.58l0.082 0.023c0.879 0.276 1.89 0.434 2.938 0.434 2.266 0 4.359-0.742 6.048-1.997l-0.027 0.019c1.635-1.16 2.919-2.713 3.728-4.525l0.028-0.070c0.208-0.445 0.376-0.962 0.477-1.503l0.006-0.041c0.010-0.324 0.036-0.52-0.015-0.52z" />
<glyph unicode="&#xe948;" d="M504.57 558.613c-0.245 0.853-0.45 1.877-0.573 2.927l-0.009 0.094c-0.381 1.855-0.599 3.987-0.599 6.17 0 0.82 0.031 1.633 0.091 2.438l-0.006-0.107c0.607 4.532 2.845 8.452 6.093 11.223l0.025 0.021c1.992 1.649 4.57 2.653 7.381 2.665h0.003c0.034 0 0.074 0.001 0.114 0.001 3.047 0 5.78-1.342 7.641-3.467l0.010-0.012-1.117-0.659-2.413 6.067c-4.744 11.954-8.959 22.842-11.954 30.684l-3.479 9.365c-0.443 0.992-0.819 2.155-1.071 3.364l-0.020 0.114c0.57-0.937 1.1-2.025 1.529-3.161l0.045-0.137c1.029-2.537 2.31-5.506 3.885-9.211 3.221-7.791 7.616-18.576 12.309-30.452l2.388-6.093 1.544-3.911-2.537 3.273c-1.62 1.871-3.998 3.047-6.652 3.047-0.044 0-0.088 0-0.132-0.001h0.007c-0.019 0-0.042 0-0.065 0-2.5 0-4.797-0.871-6.603-2.326l0.020 0.016c-3.090-2.596-5.247-6.214-5.949-10.328l-0.014-0.102c-0.109-1.054-0.172-2.277-0.172-3.515 0-1.706 0.119-3.384 0.348-5.027l-0.022 0.19c0.048-0.416 0.075-0.898 0.075-1.387 0-0.622-0.044-1.233-0.129-1.831l0.008 0.069z" />
<glyph unicode="&#xe949;" d="M551.653 552.319c0.355 0 6.093-38.526 12.818-86.16s11.835-86.289 11.496-86.289-6.093 38.526-12.818 86.289-11.856 86.109-11.496 86.16z" />
<glyph unicode="&#xe94a;" d="M414.679 582.751c0.336-10.43 2.627-20.238 6.518-29.191l-0.199 0.514c2.408 3.688 5.896 6.495 10.013 7.998l0.14 0.045c0.545 0.066 1.176 0.104 1.815 0.104 5.050 0 9.552-2.347 12.475-6.010l0.025-0.032c-0.706 4.172-2.315 7.876-4.621 11.040l0.051-0.074c-2.325 3.144-5.994 5.18-10.141 5.254h-0.012c-4.118-0.101-7.534-2.989-8.437-6.845l-0.012-0.060-7.281 17.079z" />
<glyph unicode="&#xe94b;" d="M371.815 554.856c-0.226 0-0.154 2.665-0.916 6.803-1.132 5.72-3.282 10.791-6.27 15.254l0.095-0.151c-1.78 2.571-3.691 4.821-5.799 6.869l-0.011 0.011c-1.729 1.64-3.628 3.137-5.657 4.451l-0.153 0.093c-3.602 2.259-6.093 3.123-5.99 3.35 0.662-0.050 1.274-0.213 1.834-0.472l-0.033 0.014c0.789-0.215 1.473-0.483 2.119-0.815l-0.060 0.028c0.991-0.428 1.824-0.868 2.619-1.365l-0.082 0.048c2.339-1.332 4.361-2.793 6.209-4.445l-0.034 0.030c2.246-2.096 4.243-4.406 5.975-6.914l0.092-0.141c3.011-4.455 5.128-9.759 5.965-15.479l0.025-0.205c0.181-1.142 0.284-2.46 0.284-3.801 0-0.447-0.011-0.892-0.034-1.334l0.003 0.062c0-1.225-0.077-1.888-0.18-1.888z" />
<glyph unicode="&#xe94c;" d="M519.137 735.831c-3.013 27.452-26.074 48.619-54.079 48.619-0.491 0-0.981-0.007-1.47-0.019l0.072 0.002h-2.815c-30.329-2.537-45.097-29.717-41.68-59.943l8.326-106.336 3.53-4.312c10.506-12.833 26.348-20.958 44.088-20.958 8.487 0 16.539 1.86 23.772 5.194l-0.353-0.146-2.336 34.209s29.084 5.28 28.677 34.476c-0.201 14.146-2.938 43.126-5.732 69.215z" />
<glyph unicode="&#xe94d;" d="M496.403 632.227c-0.585-0.017-1.273-0.027-1.964-0.027-13.501 0-26.117 3.787-36.845 10.356l0.309-0.176s9.52-20.784 38.593-17.408z" />
<glyph unicode="&#xe94e;" d="M509.901 711.822c0.001-0.032 0.001-0.070 0.001-0.109 0-2.221-1.718-4.041-3.898-4.203l-0.014-0.001c-0.118-0.012-0.256-0.019-0.395-0.019-2.096 0-3.816 1.608-3.993 3.658l-0.001 0.015c-0.001 0.040-0.002 0.086-0.002 0.133 0 2.216 1.721 4.031 3.9 4.179l0.013 0.001c0.126 0.014 0.271 0.022 0.418 0.022 2.091 0 3.806-1.612 3.97-3.662l0.001-0.014z" />
<glyph unicode="&#xe94f;" d="M511.758 727.686c-0.329-0.515-3.628-0.864-7.616-2.995s-6.319-4.796-6.854-4.744 0 0.736 0.988 1.93c1.498 1.648 3.261 3.023 5.227 4.066l0.104 0.050c1.782 1.017 3.866 1.742 6.084 2.048l0.091 0.010c1.513 0.165 2.151-0.113 1.976-0.365z" />
<glyph unicode="&#xe950;" d="M467.772 709.593c0.003-0.060 0.005-0.13 0.005-0.2 0-2.203-1.73-4.002-3.906-4.111h-0.010c-0.126-0.014-0.271-0.022-0.418-0.022-2.091 0-3.806 1.612-3.97 3.662l-0.001 0.014c-0.001 0.040-0.002 0.086-0.002 0.133 0 2.216 1.721 4.031 3.9 4.179l0.013 0.001c0.126 0.014 0.271 0.022 0.418 0.022 2.091 0 3.806-1.612 3.97-3.662l0.001-0.014z" />
<glyph unicode="&#xe951;" d="M467.263 721.573c-2.003 0.901-4.529 1.842-7.119 2.637l-0.496 0.131c-4.312 1.065-7.894 0.839-8.274 1.194s0.458 0.515 2.007 0.633c0.409 0.028 0.887 0.044 1.369 0.044 1.903 0 3.749-0.247 5.507-0.71l-0.15 0.034c2.271-0.549 4.27-1.422 6.066-2.583l-0.077 0.046c1.019-0.818 1.322-1.374 1.168-1.425z" />
<glyph unicode="&#xe952;" d="M484.722 686.752c2.121 0.735 4.588 1.266 7.143 1.489l0.118 0.008c1.142 0 2.208 0.407 2.388 1.194 0.007 0.103 0.010 0.224 0.010 0.346 0 1.112-0.316 2.149-0.863 3.028l0.014-0.024-3.628 8.655c-3.011 6.314-5.8 13.82-7.939 21.595l-0.232 0.99c3.587-6.181 6.95-13.398 9.672-20.922l0.301-0.952c1.22-3.046 2.388-5.938 3.479-8.707 0.52-0.93 0.827-2.040 0.827-3.222 0-0.44-0.043-0.87-0.124-1.287l0.007 0.042c-0.326-0.827-0.997-1.457-1.832-1.718l-0.020-0.006c-0.572-0.186-1.232-0.304-1.917-0.329h-0.013c-1.32-0.214-2.841-0.337-4.391-0.337-1.056 0-2.099 0.057-3.126 0.168l0.127-0.011z" />
<glyph unicode="&#xe953;" d="M467.263 738.878c-0.515-1.194-4.95-0.407-10.153-0.762s-9.617-1.626-10.153-0.484c-0.304 0.515 0.515 1.652 2.259 2.743 2.525 1.462 5.554 2.324 8.785 2.324 2.462 0 4.807-0.501 6.938-1.406l-0.116 0.044c1.678-0.885 2.593-1.873 2.439-2.46z" />
<glyph unicode="&#xe954;" d="M511.65 737.89c-0.988-1.029-4.847 0-9.468 0s-8.552-0.787-9.468 0.278c-0.407 0.515 0.201 1.544 1.904 2.537 2.070 1.107 4.529 1.757 7.139 1.757 0.168 0 0.335-0.003 0.501-0.008l-0.024 0.001c0.031 0 0.068 0 0.105 0 2.762 0 5.352-0.735 7.585-2.021l-0.074 0.039c1.672-1.034 2.233-2.105 1.801-2.583z" />
<glyph unicode="&#xe955;" d="M527.643 761.766c-0.512 2.584-2.76 4.505-5.457 4.505-0.133 0-0.265-0.005-0.396-0.014l0.018 0.001c1.538 0.448 2.875 1.153 4.032 2.076l-0.023-0.018c0.919 0.746 1.501 1.875 1.501 3.14 0 0.326-0.039 0.644-0.112 0.948l0.006-0.028c-0.762 2.259-3.653 2.743-5.938 3.376-3.088 0.915-5.685 2.689-7.593 5.045l-0.022 0.028c-2.768 3.504-3.834 8.069-6.242 11.835-3.493 5.416-9.497 8.952-16.326 8.952-5.338 0-10.171-2.16-13.674-5.654v0c-3.67 3.769-8.792 6.107-14.461 6.107-7.816 0-14.594-4.444-17.945-10.944l-0.053-0.113c-2.675 1.147-5.788 1.813-9.057 1.813-12.993 0-23.526-10.533-23.526-23.526 0-1.43 0.128-2.83 0.372-4.189l-0.021 0.143 18.17-11.141c0.546 4.957 4.71 8.779 9.768 8.779 0.784 0 1.547-0.092 2.278-0.266l-0.067 0.013c5.48-1.6 8.984-7.945 14.67-8.377 4.441-0.329 8.233 3.087 12.509 4.24 1.069 0.191 2.299 0.3 3.554 0.3 4.422 0 8.528-1.355 11.925-3.672l-0.073 0.047c4.149-2.866 8.91-5.32 13.979-7.127l0.429-0.134c1.773-0.373 3.811-0.587 5.898-0.587 4.583 0 8.925 1.030 12.808 2.872l-0.182-0.077c2.673 0.954 4.96 2.4 6.859 4.244l-0.004-0.004c1.551 1.537 2.511 3.667 2.511 6.022 0 0.488-0.041 0.967-0.121 1.433l0.007-0.050z" />
<glyph unicode="&#xe956;" d="M433.97 762.708l83.242 0.458c-3.080 5.662-7.37 10.309-12.547 13.718l-0.142 0.088c-10.532 7.768-23.752 12.453-38.065 12.509h-0.013c-13.58 0-40.734-17.434-50.299-27.051-4.098-3.498-6.843-8.477-7.403-14.098l-0.007-0.089c-0.962-10.806 5.408-22.842 8.12-33.447 1.369-5.429 4.24-21.874 4.24-21.874v0c4.569 0.129 6.175 3.834 5.357 8.352l-1.343 17.763c5.92 4.964 9.657 12.363 9.657 20.636 0 3.959-0.856 7.718-2.393 11.102l0.069-0.169c-1.163 1.595-3.88 8.928 1.528 12.103z" />
<glyph unicode="&#xe957;" d="M423.915 720.224c-4.24 14.722-8.146 30.452-3.628 45.174h-2.537l-1.029-0.736c-1.106 0.384-2.382 0.606-3.709 0.606-6.434 0-11.65-5.216-11.65-11.65 0-2.596 0.849-4.994 2.285-6.931l-0.022 0.031c-0.027 0-0.058 0-0.090 0-5.132 0-9.374-3.808-10.057-8.752l-0.006-0.053c0.010-3.584 1.019-6.93 2.764-9.777l-0.047 0.082c1.696-2.761 2.832-6.039 3.168-9.551l0.007-0.092c0.008-0.13 0.013-0.282 0.013-0.435 0-3.39-2.332-6.236-5.48-7.020l-0.050-0.011c1.35-2.865 4.213-4.812 7.532-4.812 0.669 0 1.319 0.079 1.942 0.228l-0.057-0.011c-1.232-2.952-3.192-5.393-5.663-7.17l-0.049-0.034c2.6-1.44 5.702-2.288 9.001-2.288 3.605 0 6.973 1.012 9.837 2.767l-0.082-0.047c3.684 1.508 6.611 4.236 8.335 7.673l0.042 0.092c0.437 1.562 0.688 3.355 0.688 5.207 0 2.706-0.537 5.287-1.509 7.641l0.049-0.133z" />
<glyph unicode="&#xe958;" d="M422.552 703.048c-0.515 0.201-20.305 5.403-19.039-14.516s20.938-14.67 20.938-14.084-1.899 28.6-1.899 28.6z" />
<glyph unicode="&#xe959;" d="M419.665 681.678c-0.264-0.194-0.564-0.381-0.878-0.543l-0.038-0.018c-0.443-0.224-0.966-0.355-1.519-0.355-0.363 0-0.713 0.057-1.042 0.161l0.024-0.007c-2.647 1.493-4.407 4.284-4.415 7.486v0.001c-0.029 0.308-0.046 0.666-0.046 1.028 0 1.453 0.268 2.844 0.757 4.125l-0.027-0.079c0.34 1.31 1.283 2.345 2.509 2.805l0.028 0.009c0.16 0.051 0.343 0.081 0.534 0.081 0.671 0 1.256-0.367 1.566-0.911l0.005-0.009c0.304-0.515 0.18-0.937 0.304-0.988s0.407 0.381 0.201 1.194c-0.323 0.971-1.224 1.659-2.285 1.659-0.188 0-0.37-0.022-0.546-0.062l0.016 0.003c-1.65-0.443-2.937-1.679-3.443-3.264l-0.010-0.035c-0.586-1.387-0.926-3-0.926-4.692 0-0.332 0.013-0.66 0.039-0.985l-0.003 0.043c0-0.007 0-0.015 0-0.024 0-3.732 2.28-6.931 5.524-8.28l0.059-0.022c0.243-0.056 0.522-0.088 0.808-0.088 0.877 0 1.684 0.301 2.323 0.804l-0.008-0.006c0.489 0.484 0.556 0.942 0.489 0.967z" />
<glyph unicode="&#xe95a;" d="M401.866 719.566c-0.278 0.487-0.441 1.070-0.441 1.692 0 0.228 0.022 0.451 0.064 0.666l-0.004-0.022c0.45 2.204 1.825 4.019 3.693 5.054l0.038 0.019c2.671 1.302 5.799 2.105 9.104 2.207l0.035 0.001c3.722 0.002 7.021 1.812 9.065 4.6l0.022 0.031c1.154 2.201 1.832 4.808 1.832 7.574 0 1.028-0.094 2.034-0.273 3.010l0.015-0.102c-0.484 3.35-1.369 6.37-1.801 8.984-0.362 1.217-0.571 2.616-0.571 4.064 0 1.604 0.256 3.147 0.729 4.593l-0.030-0.104c0.018-2.96 0.358-5.83 0.987-8.591l-0.051 0.265c0.561-2.537 1.544-5.506 2.156-9.036 0.207-1.009 0.326-2.168 0.326-3.356 0-2.968-0.741-5.762-2.049-8.208l0.046 0.094c-1.107-1.808-2.737-3.201-4.679-3.985l-0.065-0.023c-1.614-0.619-3.484-1.052-5.431-1.215l-0.075-0.005c-3.157-0.019-6.16-0.651-8.906-1.781l0.158 0.058c-1.748-0.912-3.064-2.451-3.665-4.311l-0.015-0.052c-0.111-0.618-0.188-1.348-0.215-2.092l-0.001-0.028z" />
<glyph unicode="&#xe95b;" d="M397.060 728.221c-0.327 0.513-0.545 1.126-0.606 1.785l-0.001 0.016c-0.037 0.297-0.058 0.64-0.058 0.989 0 1.498 0.388 2.906 1.068 4.128l-0.022-0.043c0.604 1.124 1.396 2.069 2.344 2.827l0.018 0.014c1.083 0.819 2.368 1.435 3.765 1.762l0.069 0.014c1.433 0.313 2.699 0.859 3.824 1.601l-0.042-0.026c0.926 0.831 1.506 2.032 1.506 3.368 0 0.1-0.003 0.2-0.010 0.299l0.001-0.013c0 1.497-0.18 3.087-0.129 4.693 0.025 1.623 0.212 3.188 0.543 4.699l-0.029-0.155c0.556 2.688 1.551 5.069 2.916 7.189l-0.050-0.083c0.887 1.583 2.497 2.669 4.371 2.814l0.019 0.001c1.317 0 1.878-0.607 1.827-0.659-0.267 0.053-0.574 0.083-0.888 0.083s-0.621-0.030-0.918-0.088l0.030 0.005c-1.572-0.344-2.849-1.379-3.517-2.764l-0.013-0.030c-1.081-1.965-1.91-4.246-2.365-6.659l-0.023-0.144c-0.234-1.278-0.372-2.753-0.381-4.258v-0.007c0-1.472 0.226-3.046 0.154-4.77 0.003-0.072 0.005-0.157 0.005-0.243 0-1.813-0.816-3.435-2.101-4.52l-0.009-0.007c-1.236-0.837-2.695-1.449-4.268-1.739l-0.070-0.011c-2.396-0.418-4.401-1.824-5.614-3.773l-0.020-0.035c-0.859-1.545-1.365-3.388-1.365-5.349 0-0.32 0.013-0.636 0.040-0.949l-0.003 0.041z" />
<glyph unicode="&#xe95c;" d="M513.683 780.826c-0.563-0.315-1.234-0.5-1.949-0.5-0.804 0-1.553 0.234-2.183 0.638l0.016-0.010c-1.502 0.824-2.761 1.904-3.762 3.194l-0.020 0.027c-1.265 1.645-2.803 3.009-4.557 4.045l-0.074 0.040c-1.944 1.113-4.273 1.769-6.755 1.769-3.119 0-5.995-1.036-8.305-2.783l0.035 0.025c-2.537-1.775-4.631-4.292-7.616-6.37-1.433-1.074-3.136-1.876-4.985-2.294l-0.089-0.017c-0.568-0.106-1.222-0.167-1.891-0.167-1.354 0-2.65 0.25-3.843 0.707l0.074-0.025c-3.602 1.297-6.448 3.504-9.54 4.631-2.721 1.075-5.874 1.699-9.172 1.699-0.068 0-0.136 0-0.203-0.001h0.010c-0.009 0-0.020 0-0.031 0-5.751 0-11.044-1.958-15.25-5.244l0.055 0.041c-2.889-2.272-5.268-5.048-7.035-8.213l-0.071-0.138c-1.245-2.31-1.698-3.731-1.827-3.679s0 0.381 0.201 1.065c0.335 1.145 0.697 2.104 1.122 3.029l-0.057-0.138c1.706 3.545 4.060 6.525 6.934 8.898l0.044 0.035c4.272 3.525 9.778 5.695 15.787 5.789h0.020c0.202 0.006 0.439 0.009 0.677 0.009 3.323 0 6.501-0.626 9.42-1.768l-0.176 0.061c3.35-1.22 6.242-3.427 9.514-4.569 0.983-0.39 2.122-0.617 3.314-0.617 0.551 0 1.090 0.048 1.614 0.141l-0.055-0.008c1.677 0.393 3.149 1.098 4.419 2.054l-0.030-0.022c2.665 1.904 4.899 4.415 7.616 6.293 2.369 1.79 5.364 2.866 8.611 2.866 0.034 0 0.067 0 0.101 0h-0.005c2.806-0.013 5.431-0.776 7.688-2.098l-0.073 0.039c1.875-1.208 3.45-2.703 4.71-4.442l0.035-0.050c0.9-1.308 2.025-2.392 3.329-3.219l0.047-0.028c0.844-0.52 1.867-0.828 2.961-0.828 0.426 0 0.84 0.047 1.239 0.135l-0.038-0.007z" />
<glyph unicode="&#xe95d;" d="M473.659 681.498c0.633 0 1.343-4.117 5.506-6.525s8.604-1.194 8.748-1.775-0.89-1.029-2.794-1.369c-0.589-0.115-1.267-0.18-1.96-0.18-1.949 0-3.777 0.52-5.352 1.428l0.052-0.028c-2.085 1.223-3.641 3.158-4.346 5.464l-0.018 0.068c-0.443 1.75-0.139 2.892 0.165 2.918z" />
<glyph unicode="&#xe95e;" d="M736.282 284.958c-6.753 5.827-15.613 9.376-25.303 9.376-0.919 0-1.831-0.032-2.735-0.095l0.122 0.007-17.156-54.488c12.561-0.561 25.101-7.029 37.229-3.705 9.816 3.085 17.078 11.452 18.509 21.688l0.016 0.14c0.108 0.98 0.17 2.117 0.17 3.268 0 9.486-4.187 17.994-10.815 23.777l-0.037 0.032z" />
<glyph unicode="&#xe95f;" d="M708.562 295.491c0 0.432 1.852 0.787 5.074 0.762 5.064-0.096 9.873-1.065 14.323-2.763l-0.291 0.097c7.015-2.782 12.821-7.354 17.028-13.16l0.076-0.111c2.513-3.366 4.474-7.314 5.653-11.587l0.058-0.248c0.665-2.401 1.048-5.159 1.048-8.006 0-2.225-0.234-4.395-0.677-6.487l0.036 0.203c-1.013-5.023-3.194-9.424-6.252-13.063l0.036 0.045c-2.952-3.347-6.666-5.952-10.875-7.553l-0.189-0.063c-3.947-1.441-8.503-2.274-13.255-2.274-2.946 0-5.817 0.32-8.58 0.928l0.264-0.049c-5.102 1.015-9.605 2.462-13.866 4.353l0.416-0.165c-3.021 1.297-4.631 2.259-4.466 2.691s1.981 0.304 5.074-0.226 7.791-1.544 13.379-2.033c1.281-0.15 2.764-0.236 4.268-0.236 5.182 0 10.126 1.019 14.644 2.866l-0.258-0.093c3.335 1.427 6.14 3.526 8.35 6.142l0.027 0.033c2.283 2.824 3.937 6.251 4.693 10.003l0.025 0.15c0.311 1.565 0.489 3.364 0.489 5.205 0 6.040-1.918 11.631-5.178 16.199l0.058-0.085c-3.524 5.286-8.229 9.52-13.756 12.392l-0.204 0.097c-3.564 1.731-7.734 3.229-12.079 4.276l-0.43 0.088c-2.933 0.684-4.713 1.214-4.662 1.672z" />
<glyph unicode="&#xe960;" d="M549.62 91.067l-37.307-104.535 129.811-47.078c3.756 12.689-54.385 61.924-54.385 61.924l26.65 65.984z" />
<glyph unicode="&#xe961;" d="M549.646 21.553c-0.083 0.004-0.18 0.007-0.278 0.007-2.796 0-5.118-2.027-5.578-4.692l-0.005-0.034c-0.014-0.145-0.022-0.314-0.022-0.485 0-2.719 2.009-4.97 4.624-5.347l0.029-0.003c0.089-0.005 0.194-0.008 0.299-0.008 2.977 0 5.443 2.191 5.872 5.049l0.004 0.033c0 2.768-2.743 5.938-5.48 5.557z" />
<glyph unicode="&#xe962;" d="M512.314-13.469l3.782 10.533 123.287-49.183s4.873-4.595 2.743-8.424z" />
<glyph unicode="&#xe963;" d="M590.097 1.279c-0.252-0.633-3.53 0.226-7.384-0.684s-6.499-2.969-6.978-2.537 1.775 3.782 6.473 4.796 8.218-1.045 7.888-1.575z" />
<glyph unicode="&#xe964;" d="M601.772-9.306c0-0.659-3.221-0.736-6.345-2.537s-4.77-4.518-5.408-4.266 0.278 3.983 4.214 6.293 7.538 1.117 7.538 0.509z" />
<glyph unicode="&#xe965;" d="M603.47-28.392c-0.607 0-0.355 3.551 2.537 6.448s6.345 3.175 6.422 2.537-2.413-1.801-4.744-4.214-3.556-4.945-4.214-4.77z" />
<glyph unicode="&#xe966;" d="M594.491 16.989c-0.484-0.484-3.087 1.446-6.725 2.537s-6.88 0.942-7.003 1.6 3.35 1.955 7.616 0.633 6.617-4.389 6.113-4.77z" />
<glyph unicode="&#xe967;" d="M596.971 33.506c-2.449 0.222-4.661 1.083-6.512 2.414l0.039-0.027c-2.296 1.328-4.279 2.842-6.046 4.574l0.005-0.005c-1.070 1.024-2.058 2.109-2.97 3.258l-0.051 0.066c-0.563 0.641-1.040 1.377-1.398 2.178l-0.022 0.055c-0.147 0.337-0.233 0.73-0.233 1.143 0 0.952 0.456 1.798 1.162 2.331l0.007 0.005c0.59 0.409 1.321 0.653 2.108 0.653 0.426 0 0.835-0.071 1.216-0.203l-0.026 0.008c0.882-0.321 1.645-0.733 2.337-1.238l-0.026 0.018c1.328-0.894 2.488-1.837 3.557-2.873l-0.007 0.006c1.795-1.741 3.317-3.749 4.506-5.963l0.064-0.13c1.196-1.79 1.909-3.991 1.909-6.359 0-0.116-0.002-0.232-0.005-0.347v0.017c-0.355 0-1.117 2.413-3.324 5.835-1.361 2.026-2.889 3.784-4.606 5.335l-0.025 0.022c-0.99 0.891-2.076 1.726-3.222 2.475l-0.102 0.062c-1.245 0.864-2.413 1.297-2.969 0.813s-0.278-0.278-0.129-0.787c0.279-0.632 0.624-1.177 1.037-1.661l-0.008 0.009c0.878-1.18 1.768-2.223 2.723-3.202l-0.006 0.007c1.625-1.709 3.394-3.25 5.297-4.617l0.111-0.076c3.376-2.403 5.763-3.468 5.609-3.798z" />
<glyph unicode="&#xe968;" d="M595.839 32.848c-0.195 0.78-0.306 1.676-0.306 2.598 0 1.553 0.317 3.032 0.89 4.375l-0.028-0.073c0.831 2.599 2.015 4.858 3.521 6.861l-0.042-0.059c0.952 1.237 1.965 2.333 3.066 3.331l0.021 0.019c1.065 1.155 2.586 1.877 4.276 1.877 0.382 0 0.756-0.037 1.117-0.107l-0.037 0.006c1.151-0.465 1.966-1.534 2.058-2.804l0.001-0.011c0.010-0.159 0.015-0.344 0.015-0.531 0-0.711-0.079-1.403-0.227-2.069l0.012 0.063c-0.848-4.269-3.326-7.843-6.745-10.116l-0.058-0.036c-3.756-2.537-6.689-2.233-6.648-2.007 2.161 0.978 4.020 2.097 5.731 3.402l-0.071-0.052c1.77 1.448 3.206 3.233 4.224 5.264l0.042 0.093c0.555 1.101 0.988 2.378 1.232 3.721l0.013 0.087c0.304 1.446 0.18 2.768-0.381 2.794-0.044 0.002-0.095 0.003-0.147 0.003-1.151 0-2.185-0.501-2.896-1.296l-0.003-0.004c-1.058-0.899-2.005-1.863-2.861-2.904l-0.031-0.039c-1.424-1.731-2.634-3.715-3.542-5.857l-0.060-0.158c-1.585-3.834-1.76-6.37-2.135-6.37z" />
<glyph unicode="&#xe969;" d="M423.869 370.233c-19.693-0.458-38.372-3.221-51.972-17.495-18.010-18.957-40.224-45.936-41.495-64.641-1.878-27.916 15-36.293 27.308-43.142 4.744-2.609 10.397-4.143 16.409-4.143 0.476 0 0.951 0.010 1.422 0.029l-0.068-0.002 227.596 1.724 7.132 38.552-147.194 36.293 6.118 55.399z" />
<glyph unicode="&#xe96a;" d="M469.27 372.795l71.593 3.298s123.693-6.88 150.065-31.065 23.094-51.668 14.29-78.040-86.289-195.111-86.289-195.111c2.318-4.090 3.684-8.983 3.684-14.195 0-2.577-0.334-5.076-0.961-7.456l0.046 0.203c-2.966-9.527-10.574-16.78-20.11-19.193l-0.196-0.042-68.824 25.379s-9.339 3.298-2.743 12.103c2.751 4.364 6.456 7.89 10.84 10.352l0.152 0.078v17.588s24.185 43.981 26.367 50.022 25.379 95.525 25.379 95.525l15.406 26.47s-37.229 17.495-69.514 30.2l-75.375 18.576z" />
<glyph unicode="&#xe96b;" d="M585.409 59.667c-2.356 1.375-4.328 2.682-6.224 4.086l0.183-0.129c-9.164 6.019-20.007 10.315-31.668 12.146l-0.462 0.060c-2.776 0.272-5.218 0.647-7.616 1.145l0.459-0.079c0.945 0.115 2.039 0.181 3.148 0.181 1.451 0 2.876-0.113 4.267-0.33l-0.155 0.020c12.339-1.353 23.433-5.793 32.764-12.525l-0.202 0.139c2.091-1.371 3.899-2.927 5.484-4.688l0.022-0.025z" />
<glyph unicode="&#xe96c;" d="M619.788 71.749c-1.502 1.238-2.813 2.622-3.938 4.151l-0.045 0.063c-2.336 2.717-5.429 6.571-8.655 10.991s-6.015 8.501-7.919 11.521c-1.064 1.466-2.016 3.134-2.776 4.905l-0.065 0.169c1.328-1.344 2.516-2.832 3.538-4.436l0.064-0.108 8.233-11.269c3.087-4.163 5.887-7.919 8.326-11.192 1.197-1.402 2.275-2.974 3.177-4.654l0.070-0.142z" />
<glyph unicode="&#xe96d;" d="M644.914 292.774c0-0.201-2.537-0.762-6.525-2.058-10.835-3.641-20.079-9.547-27.548-17.194l-0.013-0.013c-1.538-1.77-3.087-3.384-4.712-4.92l-0.032-0.030c1.132 2.138 2.483 3.975 4.064 5.587l-0.004-0.004c3.663 4.123 7.837 7.675 12.451 10.593l0.238 0.141c4.38 2.801 9.44 5.098 14.823 6.627l0.404 0.098c2.038 0.701 4.389 1.127 6.832 1.173h0.022z" />
<glyph unicode="&#xe96e;" d="M574.618 173.29c0.032 0.546 0.131 1.056 0.29 1.54l-0.012-0.043 1.065 4.189 4.117 15.355 14.084 50.531c2.866 9.875 5.305 19.26 8.069 27.787 3.086 7.707 7.48 14.285 12.967 19.77v0c3.648 3.74 7.668 7.084 12.012 9.982l0.271 0.17c1.6 1.029 2.84 1.775 3.731 2.233 0.384 0.247 0.826 0.477 1.289 0.665l0.054 0.019s-1.724-1.168-4.77-3.324c-4.44-3.192-8.341-6.601-11.894-10.343l-0.034-0.036c-5.285-5.449-9.519-11.953-12.352-19.16l-0.136-0.394c-2.537-8.398-5.074-17.917-7.945-27.741l-14.439-50.402c-1.878-6.319-3.427-11.47-4.544-15.226-0.515-1.672-0.937-3.046-1.297-4.117-0.116-0.555-0.293-1.047-0.53-1.504l0.015 0.032z" />
<glyph unicode="&#xe96f;" d="M511.3 302.211c-0.381 0-1.878 13.348-3.376 29.897-1.14 8.853-1.874 19.262-2.030 29.811l-0.002 0.214c1.473-8.381 2.666-18.652 3.309-29.072l0.041-0.824c1.497-16.574 2.413-30.025 2.058-30.025z" />
<glyph unicode="&#xe970;" d="M392.11 266.33c-0.201 0-1.297 2.058-3.551 5.228-2.98 4.185-6.404 7.787-10.271 10.857l-0.108 0.083c-3.778 2.942-8.108 5.444-12.763 7.309l-0.359 0.127c-3.628 1.42-5.99 1.955-5.938 2.182 2.271-0.11 4.401-0.576 6.38-1.344l-0.139 0.047c10.115-3.402 18.403-9.989 23.876-18.55l0.108-0.181c1.17-1.65 2.114-3.564 2.728-5.62l0.036-0.138z" />
<glyph unicode="&#xe971;" d="M435.977 315.055c0-0.201-3.149 1.724-8.398 4.117-9.629 4.483-20.904 7.098-32.789 7.098-3.976 0-7.883-0.293-11.701-0.858l0.432 0.053c-5.712-0.813-9.185-1.827-9.262-1.6 0.681 0.393 1.469 0.708 2.303 0.904l0.059 0.012c1.814 0.593 4.077 1.157 6.39 1.576l0.335 0.050c3.762 0.693 8.090 1.090 12.511 1.090 11.676 0 22.707-2.765 32.472-7.675l-0.416 0.19c2.344-1.163 4.305-2.311 6.181-3.574l-0.192 0.122c0.792-0.425 1.474-0.924 2.077-1.505l-0.003 0.003z" />
<glyph unicode="&#xe972;" d="M607.428 281.15c-0.654 0.033-1.27 0.142-1.856 0.318l0.055-0.014-5.074 1.091-18.525 4.086c-15.658 3.504-37.332 8.233-61.363 12.967s-45.859 8.681-61.672 11.393l-23.83 4.111c-0.65 0.079-1.241 0.231-1.799 0.449l0.049-0.017c0.655-0.020 1.277-0.075 1.888-0.165l-0.087 0.011 5.074-0.659c4.441-0.607 10.863-1.575 18.808-2.815 15.859-2.537 37.739-6.242 61.795-11.012s45.684-9.617 61.317-13.348c7.791-1.878 14.11-3.453 18.453-4.595l5.074-1.317c0.648-0.125 1.216-0.292 1.759-0.507l-0.066 0.023z" />
<glyph unicode="&#xe973;" d="M463.157 310.871c-1.087 2.944-2.148 5.339-3.334 7.658l0.185-0.398c-1.453 2.563-3.136 4.773-5.076 6.728l0.002-0.002c-2.439 2.402-5.039 4.662-7.773 6.755l-0.198 0.146c-4.717 3.525-10.057 6.895-15.656 9.836l-0.661 0.316c-2.698 1.291-4.976 2.609-7.142 4.079l0.19-0.122c2.851-0.911 5.294-1.97 7.608-3.235l-0.223 0.112c6.381-2.987 11.86-6.295 16.947-10.099l-0.249 0.178c2.948-2.26 5.566-4.579 8.011-7.069l0.011-0.011c1.981-2.050 3.672-4.399 4.996-6.967l0.077-0.165c0.848-1.604 1.554-3.465 2.025-5.418l0.034-0.165c0.156-0.504 0.246-1.082 0.246-1.682 0-0.167-0.007-0.332-0.021-0.495l0.001 0.021z" />
<glyph unicode="&#xe974;" d="M716.661 276.483c0.278-0.304-3.53-4.117-6.499-9.998s-3.931-11.141-4.312-11.063c0 0.014 0 0.031 0 0.047 0 4.286 1.17 8.298 3.208 11.735l-0.059-0.107c1.743 3.823 4.355 6.988 7.594 9.339l0.067 0.047z" />
<glyph unicode="&#xe975;" d="M553.758 536.512l16.291-114.75 0.813-1.827c0.722 7.075 1.134 15.289 1.134 23.599 0 33.526-6.702 65.487-18.839 94.616l0.601-1.628z" />
<glyph unicode="&#xe976;" d="M641.487 470.574l-52.965-92.582-130.521-2.84-0.329-5.912 130.393 1.091 133.439-0.278 26.979 46.517 34.476 49.399c0.529 0.768 0.845 1.718 0.845 2.743 0 2.691-2.182 4.873-4.873 4.873-0.002 0-0.004 0-0.007 0v0l-133.213-0.515c-1.807-0.011-3.379-1.004-4.212-2.472l-0.013-0.024z" />
<glyph unicode="&#xe977;" d="M748.482 416.493s6.854-6.293 5.784-11.624-0.736-9.314-5.784-9.669c0.006-0.109 0.009-0.238 0.009-0.367 0-3.941-2.993-7.183-6.831-7.576l-0.032-0.003c0.070-0.409 0.11-0.88 0.11-1.36 0-4.62-3.7-8.375-8.299-8.463h-0.008s-2.995-8.959-9.139-6.777c-3.895 1.338-7.249 2.924-10.389 4.826l0.237-0.133-1.801 3.247s-9.062 3.401-6.828 8.501c1.369 3.087 6.041 3.911 6.041 3.911-0.435 1.001-0.688 2.167-0.688 3.392 0 1.674 0.472 3.237 1.291 4.565l-0.022-0.038c2.156 2.918 9.211 0.515 9.211 0.515-0.011 0.175-0.017 0.38-0.017 0.586 0 2.405 0.849 4.612 2.264 6.337l-0.014-0.018c2.537 2.866 13.652-4.873 13.652-4.873l6.118 7.307z" />
<glyph unicode="&#xe978;" d="M733.436 377.437c-4.318 1.857-8.022 3.937-11.474 6.352l0.205-0.136c-4.004 2.23-7.461 4.667-10.635 7.423l0.076-0.065c4.32-1.876 8.023-3.964 11.478-6.38l-0.209 0.139c4.003-2.239 7.46-4.667 10.644-7.404l-0.085 0.071z" />
<glyph unicode="&#xe979;" d="M741.633 387.26c-4 1.59-7.444 3.448-10.634 5.647l0.178-0.116c-3.714 1.985-6.918 4.191-9.848 6.708l0.071-0.060c3.998-1.573 7.442-3.432 10.625-5.643l-0.169 0.111c3.714-1.985 6.918-4.191 9.848-6.708l-0.071 0.060z" />
<glyph unicode="&#xe97a;" d="M730.467 405.64c3.538-1.261 6.602-2.927 9.353-4.989l-0.090 0.065c3.352-1.945 6.195-3.856 8.906-5.93l-0.199 0.146c-3.602 1.024-6.742 2.624-9.485 4.717l0.068-0.050c-3.241 1.827-6.041 3.827-8.607 6.088l0.054-0.047z" />
<glyph unicode="&#xe97b;" d="M782.948 470.019c-0.095-0.016-0.205-0.025-0.316-0.025s-0.221 0.009-0.328 0.027l0.012-0.002h-9.087l-26.495-0.201-93.801-0.201c-0.149 0.015-0.322 0.024-0.497 0.024-1.802 0-3.392-0.907-4.339-2.29l-0.012-0.018q-3.046-5.429-5.938-10.708l-11.269-20.305-19.111-34.337c-5.429-9.695-9.875-17.562-12.993-23.12-1.497-2.537-2.717-4.719-3.602-6.242l-0.962-1.6-0.355-0.515c0.027 0.229 0.107 0.436 0.229 0.612l-0.003-0.004 0.864 1.678 3.376 6.345 12.689 23.326 18.88 34.476c3.551 6.473 7.307 13.271 11.166 20.305l5.964 10.806c1.202 1.766 3.203 2.91 5.471 2.91 0.174 0 0.346-0.007 0.516-0.020l-0.023 0.001h6.37l87.431-0.18 26.495-0.226 7.204-0.129h1.878c0.226-0.099 0.421-0.228 0.588-0.387l-0.001 0.001z" />
<glyph unicode="&#xe97c;" d="M689.049 423.45c-0.626-0.895-1-2.006-1-3.205 0-3.112 2.523-5.635 5.635-5.635s5.635 2.523 5.635 5.635c0 1.663-0.72 3.157-1.866 4.189l-0.005 0.005c-1.009 0.793-2.298 1.272-3.699 1.272-1.896 0-3.587-0.877-4.69-2.248l-0.009-0.012z" />
<glyph unicode="&#xe97d;" d="M318.526 459.207c-1.117-0.458-2.413-1.22-2.413-2.537 0.085-1.015 0.854-1.828 1.84-1.98l0.012-0.002c2.030 0.293 3.86 0.799 5.586 1.503l-0.158-0.057c13.729 3.021 25.024 0.129 38.078-5.074l0.432 0.432c-5.187 11.243-28.61 13.708-43.378 7.713z" />
<glyph unicode="&#xe97e;" d="M1025.59-55.978c0-0.355-229.551-0.659-512.648-0.659s-512.643 0.401-512.643 0.659 229.499 0.659 512.648 0.659 512.643-0.18 512.643-0.659z" />
<glyph unicode="&#xe97f;" d="M247.535 753.065c0.432-0.432 84.714 28.528 84.714 28.528l-32.485 74.361-74.942-28.754 41.264-23.701z" />
<glyph unicode="&#xe980;" d="M287.075 833.564v101.211s116.257 21.267 200.035 19.996c61.521-1.647 120.242-7.041 177.786-15.992l-7.751 0.993v-97.172s-262.566 23.449-370.071-9.036z" />
<glyph unicode="&#xe981;" d="M286.468 833.461l45.684-52.306v61.445s-38.197-4.569-45.684-9.139z" />
<glyph unicode="&#xe982;" d="M287.096 934.827c0.381 0 0.515-22.842 0.381-50.757s-0.607-50.757-0.962-50.757-0.515 22.688-0.381 50.757 0.566 50.757 0.962 50.757z" />
<glyph unicode="&#xe983;" d="M696.469 760.829c-0.432-0.432-84.714 28.528-84.714 28.528l32.418 74.387 75.020-28.703-41.289-23.701z" />
<glyph unicode="&#xe984;" d="M657.604 841.231l-45.684-52.322v57.015c16.603-0.581 32.34-2.265 47.716-4.991l-2.032 0.299z" />
<glyph unicode="&#xe985;" d="M657.094 939.803c0.355 0 0.762-22.055 0.89-49.286s0-49.286-0.432-49.286-0.762 22.055-0.89 49.286 0.051 49.286 0.432 49.286z" />
<glyph unicode="&#xe986;" d="M352.632 890.414c-0.032 0.366-0.050 0.791-0.050 1.221 0 8.213 6.658 14.871 14.871 14.871 3.608 0 6.916-1.285 9.491-3.422l-0.025 0.020-3.551-4.266c-1.555 1.423-3.635 2.295-5.919 2.295-0.437 0-0.867-0.032-1.287-0.094l0.048 0.006c-4.206-0.64-7.392-4.231-7.392-8.567 0-4.783 3.877-8.66 8.66-8.66 3.128 0 5.869 1.659 7.391 4.145l0.022 0.038 4.466-3.123c-2.713-3.91-7.179-6.437-12.235-6.437-7.181 0-13.171 5.099-14.548 11.874l-0.016 0.095z" />
<glyph unicode="&#xe987;" d="M380.305 894.222c-0.12 0.708-0.189 1.525-0.189 2.357 0 8.185 6.635 14.82 14.82 14.82s14.82-6.635 14.82-14.82c0-7.652-5.8-13.95-13.244-14.737l-0.065-0.006c-0.664-0.112-1.43-0.175-2.21-0.175-7.227 0-13.175 5.473-13.927 12.5l-0.005 0.061zM403.461 896.584c-0.542 4.191-4.088 7.395-8.383 7.395-4.666 0-8.449-3.783-8.449-8.449s3.783-8.449 8.449-8.449c0.27 0 0.538 0.013 0.801 0.038l-0.034-0.003c4.317 0.283 7.711 3.853 7.711 8.217 0 0.442-0.035 0.875-0.102 1.298l0.006-0.047z" />
<glyph unicode="&#xe988;" d="M440.135 885.768l-1.091 16.194-7.065-13.857-2.794-0.18-8.748 12.489 1.029-15.839-5.861-0.381-1.636 26.979 5.074 0.329 11.166-16.116 8.856 17.382 5.074 0.329 1.827-26.953z" />
<glyph unicode="&#xe989;" d="M475.079 904.246c0.154-6.041-4.266-9.895-11.47-10.153l-5.454-0.154 0.226-7.461-6.267-0.18-0.762 27.18 11.681 0.334c7.25 0.103 11.835-3.525 12.046-9.566zM468.735 904.066c0 2.969-2.058 4.631-5.887 4.544l-5.074-0.154 0.278-9.391 5.074 0.154c3.808 0.103 5.686 1.904 5.609 4.852z" />
<glyph unicode="&#xe98a;" d="M479.952 914.069h6.242v-21.926h13.554v-5.074h-19.796z" />
<glyph unicode="&#xe98b;" d="M523.984 891.351v-5.069l-20.938 0.607 0.787 27.031 20.305-0.607-0.154-5.074-14.213 0.432-0.154-5.923 12.535-0.355-0.154-4.873-12.535 0.381-0.18-6.267z" />
<glyph unicode="&#xe98c;" d="M535.557 907.647l-8.629 0.515 0.304 5.074 23.501-1.42-0.304-5.074-8.629 0.515-1.317-21.9-6.242 0.381z" />
<glyph unicode="&#xe98d;" d="M573.481 887.651l-0.458-5.074-20.861 1.93 2.537 26.902 20.305-1.878-0.458-5.074-14.161 1.42-0.515-5.861 12.489-1.142-0.432-4.847-12.509 1.142-0.561-6.216z" />
<glyph unicode="&#xe98e;" d="M581.313 908.939l12.154-1.626c7.257-0.262 13.040-6.208 13.040-13.504 0-7.463-6.050-13.513-13.513-13.513-1.11 0-2.189 0.134-3.222 0.387l0.093-0.019-12.154 1.626zM590.272 885.665c0.41-0.071 0.882-0.112 1.364-0.112 4.627 0 8.377 3.751 8.377 8.377 0 4.33-3.284 7.892-7.498 8.332l-0.036 0.003-5.66 0.762-2.208-16.6z" />
<glyph unicode="&#xe98f;" d="M557.179 706.316l35.835-3.957c15.405 21.613 40.383 35.539 68.614 35.539 46.394 0 84.004-37.61 84.004-84.004s-37.61-84.004-84.004-84.004c-46.394 0-84.004 37.61-84.004 84.004 0 7.51 0.986 14.79 2.834 21.718l-0.133-0.587z" />
<glyph unicode="&#xe990;" d="M557.179 706.316c1.394-1.878 8.655-11.47 23.475-31.142h-0.515c0.047 0.11 0.155 0.186 0.28 0.186 0.067 0 0.129-0.022 0.179-0.058l-0.001 0.001c0.098-0.058 0.162-0.164 0.162-0.284 0-0.025-0.003-0.050-0.008-0.074v0.002c-1.646-6.191-2.591-13.299-2.591-20.628 0-8.081 1.149-15.894 3.293-23.283l-0.146 0.589c1.327-4.774 2.906-8.875 4.822-12.781l-0.191 0.431c1.029-2.033 1.981-4.117 3.087-6.175l3.782-6.015c11.962-17.178 29.8-29.546 50.551-34.231l0.562-0.107c5.355-1.23 11.504-1.935 17.818-1.935 6.056 0 11.96 0.649 17.648 1.88l-0.547-0.099c12.803 2.838 24.041 8.223 33.645 15.625l-0.198-0.146c10.24 7.83 18.442 17.803 24.024 29.285l0.212 0.483c5.267 10.596 8.35 23.078 8.35 36.279 0 0.7-0.009 1.397-0.026 2.093l0.002-0.103c-0.401 13.339-3.828 25.79-9.613 36.808l0.222-0.464c-5.657 10.902-13.291 20.029-22.506 27.224l-0.181 0.136c-14.082 10.969-32.024 17.587-51.511 17.587-2.997 0-5.957-0.156-8.873-0.462l0.364 0.031c-9.741-1.199-18.604-3.755-26.814-7.493l0.57 0.233c-13.522-6.345-24.7-15.725-32.998-27.308l-0.172-0.252c-0.043-0.081-0.127-0.135-0.223-0.135-0.019 0-0.038 0.002-0.056 0.006h0.002l-35.809 4.266 35.886-3.628-0.304-0.154c8.451 12.004 19.684 21.511 32.791 27.7l0.507 0.215c7.699 3.642 16.632 6.302 26.018 7.517l0.451 0.048c2.689 0.301 5.807 0.473 8.965 0.473 19.643 0 37.733-6.652 52.139-17.825l-0.194 0.145c9.561-7.42 17.325-16.676 22.852-27.284l0.217-0.457c5.68-10.71 9.173-23.354 9.563-36.777l0.003-0.123c0.017-0.625 0.026-1.36 0.026-2.098 0-13.383-3.119-26.038-8.67-37.276l0.22 0.493c-5.897-12.149-14.235-22.275-24.443-30.079l-0.2-0.147c-9.553-7.354-20.965-12.811-33.39-15.577l-0.572-0.107c-5.18-1.139-11.129-1.792-17.231-1.792-6.477 0-12.783 0.735-18.838 2.127l0.563-0.109c-21.535 4.86-39.549 17.395-51.412 34.515l-0.184 0.281-3.808 6.093c-1.091 2.058-2.058 4.214-3.087 6.267-1.724 3.509-3.304 7.655-4.506 11.959l-0.125 0.524c-1.946 6.723-3.066 14.445-3.066 22.429 0 7.576 1.008 14.917 2.897 21.895l-0.135-0.585 0.607-0.226c-0.064-0.1-0.174-0.166-0.3-0.166-0.057 0-0.112 0.014-0.16 0.038l0.002-0.001z" />
<glyph unicode="&#xe991;" d="M630.697 683.978c0.014-0.175 0.022-0.379 0.022-0.584s-0.008-0.409-0.024-0.611l0.002 0.027v-3.247c0-2.943 0-7.029 0.154-12.206 0-10.533 0.18-25.379 0.304-43.142l-0.581 0.581h59.69c0.154 0.154-1.245-1.245-0.659-0.633v0 59.69l0.561-0.581-55.574 0.432 12.056 0.154 44.053 0.278v-59.968c0.607 0.581-0.787-0.839-0.659-0.684h-60.282v0.684c0 17.917 0.201 32.866 0.278 43.471 0 5.074 0 9.185 0.154 12.082v3.149c0.129 0.421 0.3 0.788 0.515 1.124l-0.011-0.018z" />
<glyph unicode="&#xe992;" d="M683.97 674.083c0.864-0.684-7.158-12.257-17.943-25.862-2.13-2.717-4.24-5.305-6.175-7.616l-1.271-1.544-1.42 1.297c-9.339 8.398-15.658 14.845-15.103 15.504s7.894-4.667 17.562-12.689l-2.717-0.252c1.852 2.537 3.885 5.074 6.041 7.765 10.744 13.6 20.187 24.036 21.025 23.398z" />
<glyph unicode="&#xe993;" glyph-name="contactus" horiz-adv-x="1026" d="M863.658 524.058c-8.894 8.489-20.969 13.714-34.264 13.714s-25.37-5.224-34.283-13.732l0.019 0.018-56.909-57.063-205.17 205.273 56.96 56.96c8.764 8.771 14.183 20.884 14.183 34.264s-5.42 25.492-14.184 34.264v0l-148.467 148.467c-8.771 8.55-20.772 13.823-34.004 13.823-13.361 0-25.467-5.377-34.27-14.085l0.004 0.004c-57.010-45.415-93.23-114.832-93.23-192.709 0-66.847 26.687-127.462 69.987-171.771l-0.046 0.047 33.981-33.981h-319.451c-35.62-0.029-64.488-28.897-64.517-64.514v-370.913c0-0.015 0-0.033 0-0.051 0-35.642 28.879-64.539 64.515-64.569h322.743l67.807-88.679c10.709-14.009 27.427-22.955 46.235-22.955 27.471 0 50.484 19.085 56.504 44.718l0.078 0.393 15.217 66.522h56.035c35.436 0.172 64.141 28.75 64.517 64.122v0.036l0.771 136.335c35.299-21.487 77.973-34.229 123.62-34.289h0.017c78.036 1.332 147.39 37.383 193.457 93.328l0.352 0.44c8.69 8.805 14.057 20.907 14.057 34.264s-5.367 25.459-14.062 34.269l0.005-0.005zM547.343 112.125c-0.013 0-0.028 0-0.043 0-15.25 0-28.026-10.59-31.376-24.817l-0.043-0.218-17.839-78.14-69.247 90.53c-5.95 7.721-15.199 12.647-25.6 12.647-0.037 0-0.073 0-0.11 0h-338.568v370.91h384.019l181.625-181.625-1.028-189.285zM943.186 329.735c-32.037-31.887-76.216-51.599-124.999-51.599s-92.962 19.712-125.006 51.606l-297.492 297.389c-31.788 32.235-51.42 76.53-51.42 125.41 0 54.574 24.471 103.432 63.039 136.2l0.256 0.212 125.487-125.487-56.549-56.549c-8.937-8.768-14.476-20.971-14.476-34.468 0-13.344 5.415-25.424 14.167-34.162l228.048-228.202c8.758-8.73 20.842-14.128 34.186-14.128s25.429 5.398 34.188 14.129l-0.001-0.001 57.012 57.166 125.487-125.487zM193.5 386.284c0-17.802-14.431-32.233-32.233-32.233s-32.233 14.431-32.233 32.233c0 17.802 14.431 32.233 32.233 32.233s32.233-14.431 32.233-32.233z" />
<glyph unicode="&#xe995;" glyph-name="Document" d="M1015.068 756.281l-195.129 195.129c-5.294 5.307-12.615 8.59-20.702 8.59-0.002 0-0.004 0-0.006 0h-448.796c-48.498-0.032-87.804-39.339-87.836-87.833v-385.994c-132.049-15.539-233.52-126.793-233.52-261.747 0-145.278 117.59-263.091 262.784-263.452h643.959c48.498 0.032 87.804 39.339 87.836 87.833v686.766c-0.005 8.088-3.287 15.409-8.59 20.707v0zM828.473 860.046l95.232-95.232h-95.232zM86.983 224.37c0 113.108 91.692 204.8 204.8 204.8s204.8-91.692 204.8-204.8c0-113.108-91.692-204.8-204.8-204.8v0c-113.030 0.194-204.606 91.77-204.8 204.782v0.018zM935.822 19.57h-478.606c52.563 42.608 88.199 104.307 96.312 174.393l0.115 1.223h304.071c0.385-0.018 0.837-0.028 1.291-0.028 16.181 0 29.298 13.117 29.298 29.298s-13.117 29.298-29.298 29.298c-0.454 0-0.905-0.010-1.354-0.031l0.064 0.002h-304.071c-5.031 44.155-20.347 83.943-43.48 117.991l0.585-0.913h347.022c0.385-0.018 0.837-0.028 1.291-0.028 16.181 0 29.298 13.117 29.298 29.298s-13.117 29.298-29.298 29.298c-0.454 0-0.905-0.010-1.354-0.031l0.064 0.002h-400.555c-37.32 30.438-83.869 50.923-134.868 56.776l-1.21 0.113v385.934c0 16.181 13.117 29.298 29.298 29.298h419.556v-165.888c0-16.181 13.117-29.298 29.298-29.298v0h165.888v-657.522c0 0 0 0 0 0 0-16.181-13.117-29.298-29.298-29.298-0.020 0-0.040 0-0.060 0h0.003zM857.771 604.843h-429.284c-0.385 0.018-0.837 0.028-1.291 0.028-16.181 0-29.298-13.117-29.298-29.298s13.117-29.298 29.298-29.298c0.454 0 0.905 0.010 1.354 0.031l-0.064-0.002h429.284c15.616 0.71 28.007 13.543 28.007 29.269s-12.391 28.559-27.943 29.267l-0.064 0.002zM408.178 297.756c-5.301 5.296-12.622 8.572-20.708 8.572s-15.407-3.276-20.708-8.572l-115.882-115.882-37.831 37.831c-5.233 4.94-12.309 7.976-20.094 7.976-16.181 0-29.298-13.117-29.298-29.298 0-7.785 3.036-14.861 7.99-20.108l-0.013 0.014 58.539-58.539c5.295-5.31 12.617-8.596 20.708-8.596s15.413 3.285 20.707 8.595l136.534 136.534c5.344 5.3 8.653 12.646 8.653 20.764 0 8.090-3.286 15.413-8.595 20.707l-0.001 0.001z" />
<glyph unicode="&#xe996;" glyph-name="dropdown" d="M0 661.333h991.232l-485.205-436.565z" />
<glyph unicode="&#xe997;" glyph-name="Flagged-for-Discussion" d="M642.633 838.144h337.481v-603.502h-422.473l-25.527 119.003h-337.115v-422.107h-121.856v1028.608h543.963z" />
<glyph unicode="&#xe998;" glyph-name="home" d="M977.461 494.539h-372.448c-25.666 0-46.473 20.807-46.473 46.473v372.515c0 25.666 20.807 46.473 46.473 46.473v0h372.448c25.666 0 46.473-20.807 46.473-46.473v0-372.448c0-0.020 0-0.043 0-0.066 0-25.666-20.807-46.473-46.473-46.473v0zM651.485 587.618h279.303v279.436h-279.303zM791.303-64c-128.552 0-232.763 104.212-232.763 232.763s104.212 232.763 232.763 232.763c128.552 0 232.763-104.212 232.763-232.763v0c0-128.552-104.212-232.763-232.763-232.763v0zM791.303 308.382c-76.999 0-139.419-62.42-139.419-139.419s62.42-139.419 139.419-139.419c76.999 0 139.419 62.42 139.419 139.419v0c0 0.039 0 0.086 0 0.133 0 76.999-62.42 139.419-139.419 139.419v0zM418.921 401.461h-372.448c-25.666 0-46.473-20.807-46.473-46.473v0-372.448c0-25.666 20.807-46.473 46.473-46.473v0h372.448c25.666 0 46.473 20.807 46.473 46.473v0 372.448c0 25.666-20.807 46.473-46.473 46.473v0zM372.448 29.079h-279.502v279.436h279.436zM418.921 494.539h-372.448c-25.666 0-46.473 20.807-46.473 46.473v0 372.515c0 25.666 20.807 46.473 46.473 46.473v0h372.448c25.666 0 46.473-20.807 46.473-46.473v0-372.448c0-0.020 0-0.043 0-0.066 0-25.666-20.807-46.473-46.473-46.473v0zM92.946 587.618h279.436v279.436h-279.436z" />
<glyph unicode="&#xe999;" glyph-name="instructions" d="M53.895 877.272c0 45.69 37.039 82.728 82.728 82.728v0h661.666c0.048 0 0.105 0 0.162 0 45.69 0 82.728-37.039 82.728-82.728 0 0 0 0 0 0v0-245.706c0.017-0.412 0.027-0.896 0.027-1.382 0-19.586-15.877-35.463-35.463-35.463s-35.463 15.877-35.463 35.463c0 0.486 0.010 0.97 0.029 1.451l-0.002-0.069v245.706c0 6.519-5.284 11.803-11.803 11.803v0h-661.881c-6.519 0-11.803-5.284-11.803-11.803v0-850.728c0-6.519 5.284-11.803 11.803-11.803h236.328c18.982-0.763 34.081-16.336 34.081-35.436s-15.099-34.672-34.012-35.434l-0.069-0.002h-236.328c-45.671 0-82.698 37.008-82.728 82.672v0.003zM242.957 688.209c0 19.586 15.877 35.463 35.463 35.463v0h307.2c18.982-0.763 34.081-16.336 34.081-35.436s-15.099-34.672-34.012-35.434l-0.069-0.002h-307.2c0 0 0 0 0 0-19.567 0-35.432 15.846-35.463 35.406v0.003zM242.957 522.806c0 19.586 15.877 35.463 35.463 35.463v0h118.137c18.982-0.763 34.081-16.336 34.081-35.436s-15.099-34.672-34.012-35.434l-0.069-0.002h-118.137c0 0 0 0 0 0-19.567 0-35.432 15.846-35.463 35.406v0.003zM904.677 215.552c0 110.935-89.931 200.866-200.866 200.866s-200.866-89.931-200.866-200.866c0-110.935 89.931-200.866 200.866-200.866v0c110.935 0 200.866 89.931 200.866 200.866v0zM703.811 487.343c150.106 0 271.791-121.685 271.791-271.791s-121.685-271.791-271.791-271.791c-150.106 0-271.791 121.685-271.791 271.791v0c0 150.106 121.685 271.791 271.791 271.791v0zM703.811 203.803c19.586 0 35.463-15.877 35.463-35.463v0-70.872c0.017-0.412 0.027-0.896 0.027-1.382 0-19.586-15.877-35.463-35.463-35.463s-35.463 15.877-35.463 35.463c0 0.486 0.010 0.97 0.029 1.451l-0.002-0.069v70.872c0 0 0 0 0 0 0 19.567 15.846 35.432 35.406 35.463h0.003zM703.757 262.872c26.104 0 47.266 21.162 47.266 47.266s-21.162 47.266-47.266 47.266c-26.104 0-47.266-21.162-47.266-47.266v0c0-26.104 21.162-47.266 47.266-47.266v0z" />
<glyph unicode="&#xe99a;" glyph-name="logout" horiz-adv-x="892" d="M660.508-15.989c0-26.516-21.495-48.011-48.011-48.011v0h-452.507c-88.316 0.108-159.882 71.673-159.99 159.979v704.031c0.108 88.316 71.673 159.882 159.979 159.99h452.517c26.516 0 48.011-21.495 48.011-48.011s-21.495-48.011-48.011-48.011v0h-452.507c-35.307-0.054-63.914-28.661-63.967-63.962v-704.026c0.027-35.327 28.644-63.961 63.962-64.015h452.512c26.499 0 47.984-21.468 48.011-47.961v-0.003zM877.599 481.783l-228.076 228.266c-8.702 8.773-20.762 14.204-34.091 14.204-26.516 0-48.011-21.495-48.011-48.011 0-13.329 5.431-25.389 14.201-34.088l146.167-146.167h-377.886c-26.516 0-48.011-21.495-48.011-48.011s21.495-48.011 48.011-48.011v0h377.886l-146.164-146.164c-9.229-8.767-14.97-21.13-14.97-34.833 0-26.516 21.495-48.011 48.011-48.011 13.715 0 26.087 5.751 34.836 14.973l0.020 0.021 228.124 228.124c8.618 8.676 13.944 20.631 13.944 33.83 0 13.223-5.345 25.197-13.993 33.879l0.002-0.002z" />
<glyph unicode="&#xe99b;" glyph-name="myTeam" d="M934.23 143.318c18.488 22.284 29.707 51.178 29.707 82.693 0 71.767-58.179 129.946-129.946 129.946-47.372 0-88.823-25.349-111.53-63.222l-0.328-0.59-120.245 37.337c-1.448 37.601-25.715 69.18-59.283 81.384l-0.627 0.199v128.952h129.993c16.57 0 30.002 13.432 30.002 30.002v0 39.798c-0.141 61.009-36.633 113.459-88.959 136.853l-0.953 0.381c18.51 22.297 29.742 51.213 29.742 82.752 0 71.793-58.2 129.993-129.993 129.993s-129.993-58.2-129.993-129.993c0-31.539 11.232-60.456 29.915-82.966l-0.173 0.214c-53.221-23.814-89.655-76.255-89.77-137.219v-40.002c0-16.57 13.432-30.002 30.002-30.002v0h129.993v-128.763c-34.125-12.373-58.362-43.841-59.904-81.167l-0.006-0.18-120.245-37.337c-22.942 38.877-64.618 64.548-112.29 64.548-71.767 0-129.946-58.179-129.946-129.946 0-31.96 11.538-61.225 30.675-83.857l-0.158 0.191c-53.279-23.774-89.771-76.225-89.912-137.215v-39.863c0-16.57 13.432-30.002 30.002-30.002v0h320.18c16.488 0.107 29.813 13.498 29.813 30.002 0 0 0 0 0 0.001v0 39.987c-0.141 61.009-36.633 113.459-88.959 136.853l-0.953 0.381c18.522 22.23 29.766 51.090 29.766 82.576 0 0.033 0 0.067 0 0.1v-0.005c0 2.981 0 5.915-0.331 8.849l120.576 37.242c16.57-22.064 42.684-36.186 72.095-36.186s55.524 14.122 71.929 35.955l0.167 0.231 120.245-37.337c0-2.934-0.331-5.868-0.331-8.849 0-0.028 0-0.062 0-0.095 0-31.486 11.244-60.347 29.935-82.785l-0.169 0.209c-53.279-23.774-89.771-76.225-89.912-137.215v-39.91c0-16.57 13.432-30.002 30.002-30.002v0h319.707c0.070-0.001 0.153-0.001 0.237-0.001 16.57 0 30.002 13.432 30.002 30.002 0 0 0 0.001 0 0.001v0 39.987c-0.141 61.009-36.633 113.459-88.959 136.853l-0.953 0.381zM511.976 899.996c38.654 0 69.989-31.335 69.989-69.989s-31.335-69.989-69.989-69.989c-38.654 0-69.989 31.335-69.989 69.989v0c0.054 38.632 31.357 69.935 69.984 69.989h0.005zM381.983 609.817c0 49.657 40.255 89.912 89.912 89.912h80.021c49.657 0 89.912-40.255 89.912-89.912v0-9.985h-259.845zM189.998 296.026c38.654 0 69.989-31.335 69.989-69.989s-31.335-69.989-69.989-69.989c-38.654 0-69.989 31.335-69.989 69.989v0c0.054 38.632 31.357 69.935 69.984 69.989h0.005zM319.991 6.037v-9.985h-259.987v9.985c0 49.657 40.255 89.912 89.912 89.912v0h80.069c0.028 0 0.061 0 0.095 0 49.657 0 89.912-40.255 89.912-89.912v0zM511.976 296.026c-16.57 0-30.002 13.432-30.002 30.002s13.432 30.002 30.002 30.002c16.57 0 30.002-13.432 30.002-30.002v0c-0.027-16.559-13.443-29.975-30-30.002h-0.003zM833.766 296.026c38.654 0 69.989-31.335 69.989-69.989s-31.335-69.989-69.989-69.989c-38.654 0-69.989 31.335-69.989 69.989v0c0.054 38.666 31.411 69.989 70.084 69.989 0.050 0 0.1 0 0.15 0h-0.008zM963.759-3.948h-259.75v9.985c0 49.657 40.255 89.912 89.912 89.912v0h80.021c49.657 0 89.912-40.255 89.912-89.912v0z" />
<glyph unicode="&#xe99c;" glyph-name="PMS" d="M512.512 856.218c-6.714 58.739-56.14 103.941-116.124 103.941-2.142 0-4.271-0.058-6.385-0.171l0.295 0.013c-1.804 0.099-3.915 0.156-6.039 0.156-59.983 0-109.409-45.201-116.074-103.4l-0.050-0.539h-140.134v-938.189h785.562v938.189zM390.298 898.97c0.787 0.043 1.709 0.068 2.636 0.068 25.317 0 46.343-18.376 50.467-42.517l0.043-0.303h-106.291c4.167 24.444 25.192 42.82 50.51 42.82 0.927 0 1.849-0.025 2.764-0.073l-0.128 0.005zM844.8-20.89h-647.885v816.026h71.066v-174.49c4.109-60.776 54.415-108.518 115.872-108.518 2.267 0 4.519 0.065 6.754 0.193l-0.309-0.014c1.926-0.114 4.177-0.179 6.444-0.179 61.457 0 111.763 47.742 115.853 108.162l0.019 0.356v115.507h-68.915v-115.507c-1.784-26.537-23.748-47.387-50.58-47.387-0.992 0-1.978 0.029-2.957 0.085l0.135-0.006c-0.843-0.050-1.829-0.079-2.821-0.079-26.833 0-48.796 20.85-50.572 47.233l-0.008 0.155v174.49h507.904zM425.83 298.035l101.888-99.328-24.064-140.288 125.952 66.202 125.952-66.202-24.064 140.288 101.888 99.328-140.8 20.48-62.976 127.59-62.976-127.59zM629.658 308.275l22.426-45.466 50.176-7.27-36.301-35.379 8.55-49.971-44.851 23.603-44.902-23.603 8.602 49.971-36.301 35.379 50.176 7.322z" />
<glyph unicode="&#xe99d;" glyph-name="redArrow" d="M944.494 375.808h-944.494v73.143h944.494zM607.013 46.373l-51.639 51.785 330.752 329.947-330.898 334.117 52.005 51.2 382.245-385.902z" />
<glyph unicode="&#xe99e;" glyph-name="remove" d="M106.667-49.067c-0.002 0-0.005 0-0.008 0-35.346 0-64 28.654-64 64 0 16.826 6.493 32.136 17.111 43.56l-0.037-0.040 817.493 881.067c11.724 12.617 28.41 20.486 46.933 20.486 35.349 0 64.006-28.656 64.006-64.006 0-16.826-6.493-32.135-17.109-43.56l0.037 0.040-817.493-881.067c-11.695-12.612-28.354-20.48-46.851-20.48-0.029 0-0.058 0-0.087 0h0.005zM924.587-49.067c-0.024 0-0.053 0-0.082 0-18.497 0-35.156 7.868-46.814 20.439l-0.037 0.041-817.493 881.067c-10.58 11.385-17.072 26.694-17.072 43.52 0 35.349 28.656 64.006 64.006 64.006 18.523 0 35.209-7.869 46.897-20.446l0.037-0.040 817.493-881.067c10.581-11.384 17.074-26.694 17.074-43.52 0-35.346-28.654-64-64-64-0.003 0-0.005 0-0.008 0v0z" />
<glyph unicode="&#xe99f;" glyph-name="RoleClarity" d="M933.99 839.987h-150.016v30.003c0 49.711-40.299 90.010-90.010 90.010s-90.010-40.299-90.010-90.010v0-30.003h-389.939c-46.156-0.049-84.182-34.793-89.406-79.553l-0.040-0.421h-34.56c-49.688-0.058-89.951-40.322-90.010-90.004v-704.005c0-16.57 13.433-30.003 30.003-30.003v0h843.981c16.57 0 30.003 13.433 30.003 30.003v0 613.99h90.010c16.57 0 30.003 13.433 30.003 30.003v0 140.083c-0.116 49.644-40.358 89.849-90.004 89.907h-0.005zM124.006-3.994h-64v673.997c0.029 16.559 13.445 29.974 30 30.003h34zM664.013 869.99c0 16.57 13.433 30.003 30.003 30.003s30.003-13.433 30.003-30.003v0-30.003h-60.006zM843.981 750.080v-754.074h-659.968v754.074c0.029 16.559 13.445 29.974 30 30.003h390.147v-90.061c0-49.711 40.299-90.010 90.010-90.010s90.010 40.299 90.010 90.010v0c0 16.57-13.433 30.003-30.003 30.003s-30.003-13.433-30.003-30.003v0c0-16.57-13.433-30.003-30.003-30.003s-30.003 13.433-30.003 30.003v0 89.958h185.139c-3.244-8.89-5.12-19.153-5.12-29.855 0-0.052 0-0.104 0-0.157v0.008zM963.994 640h-60.006v110.080c0 16.57 13.433 30.003 30.003 30.003s30.003-13.433 30.003-30.003v0zM280.32 309.35h343.808c15.835 0 28.672 12.837 28.672 28.672v0 19.149c-0.104 68.587-42.654 127.21-102.784 151.014l-1.101 0.384c17.125 21.109 27.494 48.303 27.494 77.92 0 68.572-55.588 124.16-124.16 124.16s-124.16-55.588-124.16-124.16c0-29.616 10.37-56.811 27.676-78.151l-0.182 0.231c-61.252-24.172-103.824-82.8-103.936-151.384v-19.112c0-0.015 0-0.033 0-0.051 0-15.835 12.837-28.672 28.672-28.672 0 0 0 0 0 0v0zM452.25 653.158c36.93 0 66.867-29.937 66.867-66.867s-29.937-66.867-66.867-66.867c-36.93 0-66.867 29.937-66.867 66.867v0c0.029 36.9 29.92 66.809 66.81 66.867h0.006zM414.054 462.131h76.39c54.615-0.088 99.466-41.773 104.569-95.062l0.033-0.426h-285.645c5.135 53.715 49.987 95.4 104.593 95.488h0.009zM743.322 235.981h-458.394c-0.361 0.016-0.785 0.026-1.211 0.026-15.835 0-28.672-12.837-28.672-28.672s12.837-28.672 28.672-28.672c0.426 0 0.85 0.009 1.271 0.028l-0.060-0.002h458.394c0.361-0.016 0.785-0.026 1.211-0.026 15.835 0 28.672 12.837 28.672 28.672s-12.837 28.672-28.672 28.672c-0.426 0-0.85-0.009-1.271-0.028l0.060 0.002zM743.322 109.824h-458.394c-0.361 0.016-0.785 0.026-1.211 0.026-15.835 0-28.672-12.837-28.672-28.672s12.837-28.672 28.672-28.672c0.426 0 0.85 0.009 1.271 0.028l-0.060-0.002h458.394c0.361-0.016 0.785-0.026 1.211-0.026 15.835 0 28.672 12.837 28.672 28.672s-12.837 28.672-28.672 28.672c-0.426 0-0.85-0.009-1.271-0.028l0.060 0.002z" />
<glyph unicode="&#xe9a0;" glyph-name="Search" d="M869.375 525.312c0-240.071-194.616-434.688-434.688-434.688s-434.688 194.616-434.688 434.688c0 240.071 194.616 434.688 434.688 434.688s434.688-194.616 434.688-434.688z" />
<glyph unicode="&#xe9a1;" glyph-name="targetsetting" d="M219.746 650.248l-37.801-37.801-8.798 8.798c-5.475 5.723-13.174 9.28-21.703 9.28-16.579 0-30.018-13.44-30.018-30.018 0-8.529 3.557-16.227 9.269-21.692l30.029-30.029c5.432-5.429 12.934-8.787 21.221-8.787s15.789 3.358 21.221 8.787l59.021 58.973c5.948 5.502 9.66 13.347 9.66 22.060 0 16.579-13.44 30.018-30.018 30.018-8.725 0-16.58-3.722-22.065-9.665l-0.019-0.020zM331.988 568.073h180.012c0.359-0.015 0.781-0.024 1.204-0.024 16.579 0 30.018 13.44 30.018 30.018s-13.44 30.018-30.018 30.018c-0.424 0-0.845-0.009-1.264-0.026l0.060 0.002h-180.012c-0.359 0.015-0.781 0.024-1.204 0.024-16.579 0-30.018-13.44-30.018-30.018s13.44-30.018 30.018-30.018c0.424 0 0.845 0.009 1.264 0.026l-0.060-0.002zM219.746 468.302l-37.801-37.801-8.798 8.798c-5.475 5.723-13.174 9.28-21.703 9.28-16.579 0-30.018-13.44-30.018-30.018 0-8.529 3.557-16.227 9.269-21.692l30.029-30.029c5.432-5.429 12.934-8.787 21.221-8.787s15.789 3.358 21.221 8.787l59.021 58.973c5.723 5.475 9.28 13.174 9.28 21.703 0 16.579-13.44 30.018-30.018 30.018-8.529 0-16.227-3.557-21.692-9.269l-0.011-0.011zM219.746 289.112l-37.801-37.801-8.798 8.798c-5.475 5.723-13.174 9.28-21.703 9.28-16.579 0-30.018-13.44-30.018-30.018 0-8.529 3.557-16.227 9.269-21.692l30.029-30.029c5.432-5.429 12.934-8.787 21.221-8.787s15.789 3.358 21.221 8.787l59.021 58.973c5.723 5.475 9.28 13.174 9.28 21.703 0 16.579-13.44 30.018-30.018 30.018-8.529 0-16.227-3.557-21.692-9.269l-0.011-0.011zM1003.456 472.508l-70.526 23.444-23.541 70.622c-4.129 11.972-15.299 20.418-28.442 20.418-8.325 0-15.859-3.389-21.297-8.863l-0.002-0.002-84.834-84.544c-32.823 14.214-71.047 22.482-111.202 22.482-0.569 0-1.138-0.002-1.707-0.005h0.087v261.946h59.988c16.579 0 30.018 13.44 30.018 30.018v0 45.97c-0.192 58.468-47.538 105.814-105.988 106.006h-540.006c-58.468-0.192-105.814-47.538-106.006-105.988v-827.909c0-16.579 13.44-30.018 30.018-30.018v0h456.459c48.31-37.31 109.722-59.802 176.387-59.802 160.080 0 289.869 129.69 290.030 289.732v0.015c0 0.199 0.001 0.435 0.001 0.671 0 40.182-8.266 78.433-23.191 113.145l0.713-1.864 84.689 84.834c5.403 5.427 8.744 12.912 8.744 21.178 0 13.17-8.481 24.358-20.279 28.403l-0.211 0.063zM662.864 126.115c-0.048 0-0.106 0-0.163 0-55.208 0-99.964 44.755-99.964 99.964s44.755 99.964 99.964 99.964c16.955 0 32.924-4.221 46.914-11.67l-0.539 0.262-67.432-67.432c-5.147-5.379-8.315-12.689-8.315-20.738 0-16.579 13.44-30.018 30.018-30.018 8.050 0 15.359 3.168 20.749 8.326l67.421 67.421c7.075-13.375 11.229-29.236 11.229-46.067 0-55.209-44.691-99.979-99.869-100.108h-0.012zM645.946 900.012c25.387-0.027 45.963-20.587 46.018-45.965v-16.005h-479.952c0.262 3.070 0.411 6.643 0.411 10.251 0 18.718-4.013 36.498-11.226 52.528l0.326-0.809zM59.988 853.994c1.612 24.099 21.555 43.037 45.921 43.037s44.309-18.937 45.914-42.897l0.008-0.14v-45.97c0-16.579 13.44-30.018 30.018-30.018h420.012v-268.423c-48.527-10.618-90.919-32.124-126.106-61.886l0.426 0.351h-144.193c-0.359 0.015-0.781 0.024-1.204 0.024-16.579 0-30.018-13.44-30.018-30.018s13.44-30.018 30.018-30.018c0.424 0 0.845 0.009 1.264 0.026l-0.060-0.002h90.489c-23.184-33.843-39.562-74.169-46.204-117.698l-0.201-1.601h-44.085c-0.359 0.015-0.781 0.024-1.204 0.024-16.579 0-30.018-13.44-30.018-30.018s13.44-30.018 30.018-30.018c0.424 0 0.845 0.009 1.264 0.026l-0.060-0.002h41.426c3.489-57.744 23.465-110.222 55.234-153.505l-0.563 0.804h-368.097zM662.864-3.867c-0.036 0-0.080 0-0.123 0-127.022 0-229.994 102.972-229.994 229.994s102.972 229.994 229.994 229.994c30.248 0 59.132-5.839 85.586-16.452l-1.548 0.548 21.946-65.885-16-16c-25.177 17.304-56.319 27.637-89.874 27.637-88.339 0-159.952-71.613-159.952-159.952s71.613-159.952 159.952-159.952c88.339 0 159.952 71.613 159.952 159.952 0 33.555-10.332 64.697-27.989 90.417l0.352-0.543 16 16 65.837-21.946c9.966-24.806 15.746-53.565 15.746-83.674 0-127.023-102.886-230.015-229.869-230.187h-0.016zM879.758 372.302l-53.172 17.692-17.692 53.172 58.634 58.634 12.955-38.671c3.070-8.971 10.015-15.901 18.786-18.886l0.211-0.062 38.671-12.955z" />
<glyph unicode="&#xe9a2;" glyph-name="tools" d="M169.541-64c-17.426 0.103-34.201 2.726-50.031 7.521l1.245-0.324c-0.627 0.064-1.117 0.576-1.146 1.207v0.003c0 0.701 0 1.146 0 1.337h0.382l66.301 65.855v110.119h-110.438l-65.919-65.919c-0.252-0.243-0.595-0.393-0.973-0.393-0.061 0-0.121 0.004-0.18 0.012l0.007-0.001c-0.382 0-1.146 0-1.465 1.21-4.674 14.766-7.367 31.748-7.367 49.36 0 46.751 18.98 89.069 49.654 119.669l0.003 0.003c30.844 30.709 73.342 49.735 120.284 49.869h0.025c13.595-0.111 26.772-1.637 39.47-4.436l-1.257 0.233h1.656l14.075-2.293 467.991 467.672-4.458 24.393c-1.637 8.863-2.572 19.061-2.572 29.478 0 46.923 18.991 89.411 49.706 120.196l-0.003-0.003c31.107 30.611 73.818 49.512 120.943 49.512 17.135 0 33.686-2.499 49.309-7.152l-1.221 0.312c0.562-0.241 1.006-0.665 1.267-1.195l0.006-0.015v-0.51s0-0.382 0-0.51c-0.022-0.076-0.035-0.164-0.035-0.255s0.013-0.178 0.036-0.261l-0.002 0.007-65.919-65.919v-110.055h110.119l65.791 65.855c0.382 0.382 0.382 0.382 1.274 0.382 0.688-0.048 1.256-0.509 1.462-1.135l0.003-0.012c4.571-14.638 7.204-31.469 7.204-48.915 0-93.706-75.963-169.669-169.669-169.669-0.226 0-0.453 0-0.679 0.001h-0.347c-14.031 0.011-27.672 1.658-40.749 4.762l1.198-0.24-13.693 2.293-468.118-468.054 4.204-24.011c1.698-9.019 2.669-19.395 2.669-29.998 0-93.822-76.038-169.884-169.85-169.924h-0.004z" />
<glyph unicode="&#xe9a3;" glyph-name="WhiteArrow" d="M944.494 375.808h-944.494v73.143h944.494zM607.013 46.373l-51.639 51.785 330.752 329.947-330.898 334.117 52.005 51.2 382.245-385.902z" />
<glyph unicode="&#xe9a4;" glyph-name="Yet-to-be-Allocated" d="M1012.053 444.723l-112.23-127.317 17.271-170.667-166.161-36.523-88.747-146.91-155.375 66.901-157.218-66.901-86.357 144.794-166.161 38.844 15.087 170.667-112.162 127.113 112.23 129.707-15.087 168.346 166.161 36.659 86.289 146.432 157.491-66.901 155.102 66.901 88.747-146.705 166.161-36.659-17.271-170.667zM552.414 213.777v92.843h-92.774v-92.774zM552.414 399.326v276.207h-92.774v-276.207z" />
</font>
</defs>
</svg>
